<?xml version="1.0" encoding="UTF-8"?>
<!-- Generator: Adobe Illustrator 24.0.3, SVG Export Plug-In . SVG Version: 6.00 Build 0)  -->
<svg xmlns="http://www.w3.org/2000/svg" xmlns:xlink="http://www.w3.org/1999/xlink" version="1.1" id="Layer_1" x="0px" y="0px" viewBox="0 0 576 288" style="enable-background:new 0 0 576 288;" xml:space="preserve">
<style type="text/css">
	.st0{fill:#FFFFFF;}
</style>
<g>
	<path class="st0" d="M537.9,112.6h1.1l1.2,2.9h1.3l-1.4-3.1c0.4-0.1,0.8-0.3,1-0.6c0.2-0.3,0.4-0.7,0.4-1.2c0-0.6-0.2-1.1-0.6-1.4   c-0.4-0.3-1.1-0.5-1.9-0.5h-2.3v6.8h1.1V112.6z M537.9,109.6h0.9c0.5,0,0.9,0.1,1.2,0.3c0.2,0.2,0.4,0.5,0.4,0.9   c0,0.4-0.1,0.7-0.4,0.8c-0.2,0.2-0.6,0.3-1.2,0.3h-1V109.6z"></path>
	<path class="st0" d="M535.2,116.5c0.5,0.6,1.1,1,1.7,1.3c0.7,0.3,1.3,0.5,2,0.5c0.7,0,1.4-0.2,2-0.5c0.7-0.3,1.2-0.7,1.8-1.3   c0.5-0.6,0.9-1.2,1.1-1.9c0.3-0.7,0.4-1.5,0.4-2.3c0-0.9-0.2-1.8-0.5-2.6c-0.4-0.8-0.9-1.5-1.5-2.1c-0.5-0.4-1-0.7-1.5-0.9   c-0.6-0.2-1.1-0.3-1.7-0.3c-0.8,0-1.6,0.2-2.3,0.6c-0.7,0.4-1.3,1-1.8,1.7c-0.4,0.5-0.7,1.1-0.9,1.8c-0.2,0.6-0.3,1.3-0.3,1.9   c0,0.8,0.1,1.5,0.4,2.3C534.3,115.2,534.7,115.9,535.2,116.5z M534.6,110.2c0.2-0.6,0.6-1.2,1-1.7c0.4-0.5,0.9-0.8,1.5-1.1   c0.6-0.3,1.2-0.4,1.8-0.4c0.6,0,1.2,0.1,1.8,0.4c0.6,0.3,1.1,0.6,1.5,1.1c0.4,0.5,0.8,1.1,1,1.7c0.2,0.6,0.3,1.3,0.3,2   c0,0.7-0.1,1.3-0.3,2c-0.2,0.6-0.6,1.2-1,1.7c-0.4,0.5-1,0.9-1.5,1.1c-0.6,0.3-1.2,0.4-1.8,0.4c-0.6,0-1.2-0.1-1.7-0.4   c-0.6-0.3-1.1-0.7-1.5-1.1c-0.4-0.5-0.8-1-1-1.7c-0.2-0.6-0.4-1.3-0.4-2C534.3,111.6,534.4,110.9,534.6,110.2z"></path>
	<path class="st0" d="M258.1,167.6c-0.6,0-1.5,0-2.6,0.1c-1.1,0-1.9,0.1-2.5,0.1l-0.2,1.1c1.1,0,1.7,0.2,1.7,0.5c0,0,0,0.1,0,0.1   l-2,10.2c-0.1,0.3-0.3,0.5-0.7,0.6c-0.2,0.1-0.6,0.1-1.2,0.1l-0.2,1.1c0.5,0,1.3,0,2.3,0.1c1,0,1.7,0.1,2.3,0.1   c2.3,0,3.9-0.4,5-1.3c0.9-0.7,1.5-1.7,1.7-2.8c0.1-0.3,0.1-0.5,0.1-0.7c0-0.7-0.2-1.4-0.7-1.9c-0.4-0.4-0.9-0.7-1.5-0.9l0,0   c0.8-0.3,1.4-0.7,1.9-1.2c0.5-0.5,0.9-1.2,1-1.8c0-0.2,0.1-0.5,0.1-0.7c0-0.7-0.2-1.3-0.7-1.8C261,167.9,259.8,167.6,258.1,167.6z    M259.8,176.9c0,0.2,0,0.4-0.1,0.6c-0.4,1.8-1.7,2.7-4.1,2.7c-0.7,0-1.2,0-1.5-0.1l1-5.3h1.5c0.9,0,1.7,0.2,2.2,0.5   C259.5,175.7,259.8,176.2,259.8,176.9z M260.6,171.2c-0.1,0.7-0.5,1.2-1.1,1.7c-0.6,0.4-1.4,0.7-2.3,0.7h-1.6l0.9-4.4   c0.4-0.1,0.9-0.1,1.6-0.1c1.8,0,2.6,0.6,2.6,1.7C260.6,170.8,260.6,171,260.6,171.2z"></path>
	<path class="st0" d="M269.2,171.3c-1.5,0-2.7,0.5-3.8,1.6c-1,1-1.6,2.2-1.9,3.7c-0.1,0.5-0.1,0.9-0.1,1.3c0,0.9,0.2,1.7,0.7,2.4   c0.7,0.9,1.8,1.4,3.3,1.4c1.3,0,2.4-0.2,3.4-0.6l-0.1-1.3c-0.9,0.3-1.8,0.5-2.8,0.5c-1.9,0-2.8-0.9-2.8-2.6c0-0.3,0-0.6,0.1-0.9   h6.9c0.3-0.5,0.4-1.2,0.4-2.1c0-0.6-0.1-1.2-0.4-1.8C271.7,171.9,270.7,171.3,269.2,171.3z M270.8,175.5h-5.3   c0.2-0.7,0.6-1.4,1.1-1.9c0.6-0.7,1.4-1,2.2-1c0.9,0,1.5,0.4,1.8,1C270.9,174.2,270.9,174.8,270.8,175.5z"></path>
	<path class="st0" d="M275.8,172.8c-1.2,1-1.9,2.2-2.2,3.8c-0.1,0.4-0.1,0.8-0.1,1.2c0,1.2,0.4,2.1,1.1,2.8c0.7,0.7,1.7,1,3,1   c1.1,0,2.1-0.2,2.9-0.6l0-1.3c-0.8,0.3-1.6,0.5-2.3,0.5c-0.9,0-1.5-0.2-2-0.7c-0.5-0.5-0.8-1.2-0.8-2c0-0.3,0-0.6,0.1-0.9   c0.2-1.1,0.7-2,1.4-2.6c0.8-0.7,1.7-1.1,2.8-1.1c0.3,0,0.6,0,0.9,0.1c0.2,0.1,0.3,0.3,0.3,0.6c0,0.2-0.1,0.6-0.2,1.1h1.1l0.5-2.7   c-0.6-0.4-1.4-0.5-2.4-0.5C278.4,171.3,277,171.8,275.8,172.8z"></path>
	<path class="st0" d="M292.1,180.3H292c-0.6,0-1-0.2-1-0.5l0-0.2c0.1-1,0.2-1.9,0.4-2.8l1-5.2c-0.8-0.3-1.7-0.4-2.7-0.4   c-2,0-3.7,0.7-5,2.2c-1.2,1.4-1.8,3-1.8,4.8c0,0.9,0.2,1.7,0.7,2.3c0.5,0.7,1.2,1,2.1,1c1.6,0,2.9-0.9,3.8-2.8h0   c-0.2,1.2-0.2,2.1-0.2,2.6h3.1l0.2-1.1L292.1,180.3L292.1,180.3z M289.9,175.8c-0.2,1-0.6,2-1.2,2.8c-0.7,1.1-1.5,1.6-2.4,1.6   c-1.1,0-1.7-0.7-1.7-2.2c0-1.3,0.4-2.6,1.3-3.7c0.9-1.2,2.1-1.8,3.4-1.8c0.5,0,0.9,0,1.2,0.1L289.9,175.8z"></path>
	<path class="st0" d="M303,179.8c0.1-0.3,0.1-0.7,0.2-1l1.4-7.2H301l-0.2,1.1c1.1,0,1.7,0.2,1.7,0.5c0,0,0,0.1,0,0.1l-0.8,4.3   c-0.1,0.3-0.2,0.7-0.3,0.9c-0.3,0.4-0.6,0.8-1.1,1.1c-0.5,0.3-1.1,0.5-1.6,0.5c-1.2,0-1.7-0.6-1.7-1.9c0-0.4,0-0.8,0.1-1.2l1.1-5.5   h-3.6l-0.2,1.1c1.1,0,1.7,0.2,1.7,0.5c0,0,0,0.1,0,0.1l-0.8,4c-0.1,0.5-0.2,1-0.2,1.5c0,1.9,0.9,2.9,2.7,2.9c1.5,0,2.7-0.6,3.6-1.9   h0.1l-0.2,1.6h1.6h1.7l0.2-1.1C303.6,180.3,303,180.2,303,179.8z"></path>
	<path class="st0" d="M308.3,172.2c-0.7,0.5-1.2,1.2-1.3,2c0,0.2,0,0.3,0,0.5c0,1,0.7,1.8,2.1,2.3c1,0.4,1.5,0.9,1.5,1.5   c0,0.1,0,0.2,0,0.3c-0.2,1-0.9,1.5-2.2,1.5c-0.3,0-0.7,0-1-0.1c-0.1,0-0.2-0.1-0.3-0.1c-0.1-0.1-0.2-0.3-0.2-0.6   c0-0.2,0.1-0.6,0.2-1.1h-1.1l-0.5,2.6c0.7,0.5,1.6,0.7,2.6,0.7c1.2,0,2.1-0.3,2.9-0.8c0.8-0.5,1.2-1.3,1.4-2.1   c0-0.2,0.1-0.4,0.1-0.6c0-1-0.7-1.8-2.1-2.4c-1-0.4-1.6-0.9-1.6-1.4c0-0.1,0-0.2,0-0.3c0.1-0.4,0.3-0.7,0.6-1   c0.3-0.3,0.8-0.4,1.3-0.4c0.3,0,0.6,0,0.9,0.1c0.2,0.1,0.2,0.3,0.2,0.6c0,0.2-0.1,0.6-0.2,1.1h1.1l0.5-2.6   c-0.6-0.4-1.4-0.6-2.3-0.6C310,171.3,309.1,171.6,308.3,172.2z"></path>
	<path class="st0" d="M320.3,171.3c-1.5,0-2.7,0.5-3.8,1.6c-1,1-1.6,2.2-1.9,3.7c-0.1,0.5-0.1,0.9-0.1,1.3c0,0.9,0.2,1.7,0.7,2.4   c0.7,0.9,1.8,1.4,3.3,1.4c1.3,0,2.4-0.2,3.4-0.6l-0.1-1.3c-0.9,0.3-1.8,0.5-2.8,0.5c-1.9,0-2.8-0.9-2.8-2.6c0-0.3,0-0.6,0.1-0.9   h6.9c0.3-0.5,0.4-1.2,0.4-2.1c0-0.6-0.1-1.2-0.4-1.8C322.7,171.9,321.7,171.3,320.3,171.3z M321.8,175.5h-5.3   c0.2-0.7,0.6-1.4,1.1-1.9c0.6-0.7,1.4-1,2.2-1c0.9,0,1.5,0.4,1.8,1C321.9,174.2,321.9,174.8,321.8,175.5z"></path>
	<path class="st0" d="M338.7,179.8c0,0,0-0.1,0-0.1l0.8-4.1c0.1-0.5,0.1-0.9,0.1-1.3c0-1-0.3-1.8-1-2.3c-0.5-0.4-1.1-0.6-1.8-0.6   c-0.8,0-1.5,0.2-2.2,0.6c-0.6,0.3-1.1,0.8-1.5,1.3h0l0.2-1.6h-3.3l-0.2,1.1c1.1,0,1.7,0.2,1.7,0.6c-0.1,0.3-0.1,0.7-0.2,1l-1.1,5.4   c-0.1,0.3-0.3,0.5-0.7,0.6c-0.2,0.1-0.7,0.1-1.2,0.1l-0.2,1.1h5.4l0.2-1.1c-1.1,0-1.7-0.2-1.7-0.5c0,0,0-0.1,0-0.1l0.8-4.2   c0.1-0.3,0.2-0.6,0.3-0.8c0.3-0.5,0.7-1,1.1-1.3c0.5-0.4,1.1-0.5,1.6-0.5c1.2,0,1.8,0.6,1.8,1.9c0,0.3,0,0.6-0.1,1l-1.1,5.7h3.6   l0.2-1.1C339.2,180.3,338.7,180.2,338.7,179.8z"></path>
	<path class="st0" d="M348.2,171.3c-1.5,0-2.8,0.5-3.9,1.5c-1.1,1-1.7,2.2-2,3.7c-0.1,0.5-0.1,0.9-0.1,1.3c0,1,0.3,1.8,0.7,2.4   c0.7,0.9,1.8,1.4,3.1,1.4h0c1.3,0,2.5-0.4,3.6-1.3c1.2-1,2-2.3,2.4-4c0.1-0.5,0.1-0.9,0.1-1.3c0-0.9-0.2-1.7-0.7-2.4   C350.7,171.8,349.6,171.3,348.2,171.3z M350.1,176.5c-0.2,1-0.6,1.9-1.2,2.6c-0.7,0.8-1.6,1.2-2.5,1.2h0c-0.9,0-1.5-0.4-1.9-1.1   c-0.3-0.5-0.4-1-0.4-1.7c0-0.3,0-0.7,0.1-1.1c0.2-1,0.6-1.9,1.3-2.6c0.7-0.8,1.6-1.2,2.5-1.2c1,0,1.7,0.4,2,1.3   c0.2,0.4,0.3,0.9,0.3,1.5C350.2,175.7,350.2,176.1,350.1,176.5z"></path>
	<path class="st0" d="M363.2,171.3c-1.5,0-2.8,0.5-3.9,1.5c-1.1,1-1.7,2.2-2,3.7c-0.1,0.5-0.1,0.9-0.1,1.3c0,1,0.2,1.8,0.8,2.4   c0.7,0.9,1.8,1.4,3.1,1.4h0c1.3,0,2.5-0.4,3.6-1.3c1.2-1,2-2.3,2.4-4c0.1-0.5,0.1-0.9,0.1-1.3c0-0.9-0.2-1.7-0.7-2.4   C365.7,171.8,364.6,171.3,363.2,171.3z M365.1,176.5c-0.2,1-0.6,1.9-1.2,2.6c-0.7,0.8-1.6,1.2-2.5,1.2h0c-0.9,0-1.5-0.4-1.9-1.1   c-0.3-0.5-0.4-1-0.4-1.7c0-0.3,0-0.7,0.1-1.1c0.2-1,0.6-1.9,1.3-2.6c0.7-0.8,1.6-1.2,2.5-1.2c1,0,1.7,0.4,2,1.3   c0.2,0.4,0.3,0.9,0.3,1.5C365.2,175.7,365.2,176.1,365.1,176.5z"></path>
	<path class="st0" d="M378.9,179.8c0,0,0-0.1,0-0.1l0.8-4.1c0.1-0.5,0.1-0.9,0.1-1.3c0-1-0.3-1.8-1-2.3c-0.5-0.4-1.1-0.6-1.8-0.6   c-0.8,0-1.5,0.2-2.2,0.6c-0.6,0.3-1.1,0.8-1.5,1.3h0l0.2-1.6h-3.3l-0.2,1.1c1.1,0,1.7,0.2,1.7,0.6c-0.1,0.3-0.1,0.7-0.2,1l-1.1,5.4   c-0.1,0.3-0.3,0.5-0.7,0.6c-0.2,0.1-0.7,0.1-1.3,0.1l-0.2,1.1h5.4l0.2-1.1c-1.1,0-1.7-0.2-1.7-0.5c0,0,0-0.1,0-0.1l0.8-4.2   c0.1-0.3,0.2-0.6,0.3-0.8c0.3-0.5,0.7-1,1.2-1.3c0.5-0.4,1.1-0.5,1.6-0.5c1.2,0,1.8,0.6,1.8,1.9c0,0.3,0,0.6-0.1,1l-1.1,5.7h3.6   l0.2-1.1C379.4,180.3,378.9,180.2,378.9,179.8z"></path>
	<path class="st0" d="M388.1,171.3c-1.5,0-2.7,0.5-3.8,1.6c-1,1-1.6,2.2-1.9,3.7c-0.1,0.5-0.1,0.9-0.1,1.3c0,0.9,0.2,1.7,0.7,2.4   c0.7,0.9,1.8,1.4,3.3,1.4c1.3,0,2.4-0.2,3.4-0.6l-0.1-1.3c-0.9,0.3-1.8,0.5-2.8,0.5c-1.9,0-2.8-0.9-2.8-2.6c0-0.3,0-0.6,0.1-0.9   h6.9c0.3-0.5,0.4-1.2,0.4-2.1c0-0.6-0.1-1.2-0.4-1.8C390.5,171.9,389.5,171.3,388.1,171.3z M389.6,175.5h-5.3   c0.2-0.7,0.6-1.4,1.1-1.9c0.6-0.7,1.4-1,2.2-1c0.9,0,1.5,0.4,1.8,1C389.7,174.2,389.8,174.8,389.6,175.5z"></path>
	<path class="st0" d="M399.9,179.8c0,0,0-0.1,0-0.1l1.6-8.1h-3.6l-0.2,1.1c1.1,0,1.7,0.2,1.7,0.5c0,0,0,0.1,0,0.1l-1.2,6.3   c-0.1,0.3-0.3,0.5-0.7,0.6c-0.2,0.1-0.6,0.1-1.2,0.1l-0.2,1.1h5.4l0.2-1.1C400.5,180.3,399.9,180.2,399.9,179.8z"></path>
	<path class="st0" d="M401.4,167.4c-0.4,0-0.7,0.1-1,0.4c-0.3,0.3-0.4,0.6-0.4,1c0,0.6,0.3,0.9,0.9,0.9h0c0.4,0,0.7-0.1,1-0.4   c0.3-0.3,0.4-0.6,0.4-1C402.4,167.7,402.1,167.4,401.4,167.4z"></path>
	<path class="st0" d="M405.2,172.2c-0.7,0.5-1.2,1.2-1.3,2c0,0.2,0,0.3,0,0.5c0,1,0.7,1.8,2.1,2.3c1,0.4,1.5,0.9,1.5,1.5   c0,0.1,0,0.2,0,0.3c-0.2,1-0.9,1.5-2.2,1.5c-0.3,0-0.7,0-1-0.1c-0.1,0-0.2-0.1-0.3-0.1c-0.1-0.1-0.2-0.3-0.2-0.6   c0-0.2,0.1-0.6,0.2-1.1h-1.1l-0.5,2.6c0.7,0.5,1.6,0.7,2.6,0.7c1.2,0,2.1-0.3,2.9-0.8c0.8-0.5,1.2-1.3,1.4-2.1   c0-0.2,0.1-0.4,0.1-0.6c0-1-0.7-1.8-2.1-2.4c-1-0.4-1.6-0.9-1.6-1.4c0-0.1,0-0.2,0-0.3c0.1-0.4,0.3-0.7,0.6-1   c0.3-0.3,0.8-0.4,1.3-0.4c0.3,0,0.6,0,0.9,0.1c0.2,0.1,0.2,0.3,0.2,0.6c0,0.2-0.1,0.6-0.2,1.1h1.1l0.5-2.6   c-0.6-0.4-1.4-0.6-2.3-0.6C406.9,171.3,406,171.6,405.2,172.2z"></path>
	<path class="st0" d="M424.3,180.3h-0.1c-0.6,0-1-0.2-1-0.5l0-0.2c0.1-1,0.2-1.9,0.4-2.8l1-5.2c-0.8-0.3-1.7-0.4-2.7-0.4   c-2,0-3.7,0.7-5,2.2c-1.2,1.4-1.8,3-1.8,4.8c0,0.9,0.2,1.7,0.7,2.3c0.5,0.7,1.2,1,2.1,1c1.6,0,2.9-0.9,3.8-2.8h0   c-0.2,1.2-0.2,2.1-0.2,2.6h3.1l0.2-1.1L424.3,180.3L424.3,180.3z M422.1,175.8c-0.2,1-0.6,2-1.2,2.8c-0.7,1.1-1.5,1.6-2.4,1.6   c-1.1,0-1.7-0.7-1.7-2.2c0-1.3,0.4-2.6,1.3-3.7c0.9-1.2,2-1.8,3.4-1.8c0.5,0,0.9,0,1.2,0.1L422.1,175.8z"></path>
	<path class="st0" d="M432.6,171.3c-1.4,0-2.6,0.7-3.5,2l0,0l1.3-6.4h-3.6l-0.2,1.1c0.6,0,1,0,1.2,0.1c0.4,0.1,0.5,0.3,0.4,0.6   l-1.8,8.9c-0.1,0.6-0.2,1.1-0.2,1.5c0,1.7,1,2.5,3.1,2.5c1.6,0,3-0.6,4.1-1.7c1-1,1.7-2.3,1.9-3.7c0.1-0.5,0.1-0.9,0.1-1.4   c0-1-0.2-1.8-0.7-2.5C434.4,171.7,433.6,171.3,432.6,171.3z M433.7,176.2c-0.2,1.1-0.7,2.1-1.3,2.8c-0.8,0.9-1.6,1.3-2.7,1.3   c-1.1,0-1.6-0.5-1.6-1.5c0-0.4,0-0.8,0.1-1.3l0.2-1.1c0.2-0.9,0.6-1.8,1.1-2.5c0.7-0.9,1.5-1.3,2.3-1.3c0.6,0,1.1,0.2,1.4,0.7   c0.3,0.4,0.4,1,0.4,1.6C433.8,175.4,433.8,175.8,433.7,176.2z"></path>
	<path class="st0" d="M443,171.3c-1.5,0-2.8,0.5-3.9,1.5c-1.1,1-1.7,2.2-2,3.7c-0.1,0.5-0.1,0.9-0.1,1.3c0,1,0.2,1.8,0.8,2.4   c0.7,0.9,1.8,1.4,3.1,1.4h0c1.3,0,2.5-0.4,3.6-1.3c1.2-1,2-2.3,2.4-4c0.1-0.5,0.1-0.9,0.1-1.3c0-0.9-0.2-1.7-0.7-2.4   C445.5,171.8,444.4,171.3,443,171.3z M444.9,176.5c-0.2,1-0.6,1.9-1.2,2.6c-0.7,0.8-1.6,1.2-2.5,1.2h0c-0.9,0-1.5-0.4-1.9-1.1   c-0.3-0.5-0.4-1-0.4-1.7c0-0.3,0-0.7,0.1-1.1c0.2-1,0.6-1.9,1.3-2.6c0.7-0.8,1.6-1.2,2.5-1.2c1,0,1.7,0.4,2.1,1.3   c0.2,0.4,0.3,0.9,0.3,1.5C445,175.7,445,176.1,444.9,176.5z"></path>
	<path class="st0" d="M455.4,172.7c0.7,0,1.1,0,1.3,0.1l-2.4,4.3c-0.6,1.1-1.1,2-1.3,2.6h-0.1c0-0.6-0.1-1.4-0.3-2.6l-0.6-4.3   c0.2-0.1,0.7-0.1,1.4-0.1l0.2-1.1h-4.8l-0.2,1.1c0.9,0,1.4,0.1,1.6,0.3l1.7,8.5h1.6l5-8.5c0.2-0.2,0.8-0.3,1.7-0.3l0.2-1.1h-4.8   L455.4,172.7z"></path>
	<path class="st0" d="M466.2,171.3c-1.5,0-2.7,0.5-3.8,1.6c-1,1-1.6,2.2-1.9,3.7c-0.1,0.5-0.1,0.9-0.1,1.3c0,0.9,0.2,1.7,0.7,2.4   c0.7,0.9,1.8,1.4,3.3,1.4c1.3,0,2.4-0.2,3.4-0.6l-0.1-1.3c-0.9,0.3-1.8,0.5-2.8,0.5c-1.9,0-2.8-0.9-2.8-2.6c0-0.3,0-0.6,0.1-0.9   h6.9c0.3-0.5,0.4-1.2,0.4-2.1c0-0.6-0.1-1.2-0.4-1.8C468.6,171.9,467.7,171.3,466.2,171.3z M467.7,175.5h-5.3   c0.2-0.7,0.6-1.4,1.1-1.9c0.6-0.7,1.4-1,2.2-1c0.9,0,1.5,0.4,1.8,1C467.8,174.2,467.9,174.8,467.7,175.5z"></path>
	<path class="st0" d="M478.7,169.2l-1.9,0.5l-0.4,1.8h-1.5l-0.3,1.4h1.5l-1.1,5.4c-0.1,0.5-0.1,0.9-0.1,1.3c0,1.4,0.7,2.1,2.1,2.1   c0.6,0,1.2-0.1,1.7-0.3l0.2-1.3c-0.3,0.1-0.7,0.1-1.1,0.1c-0.7,0-1.1-0.4-1.1-1.2c0-0.2,0-0.5,0.1-0.8l1.1-5.3h2.6l0.3-1.4h-2.6   L478.7,169.2z"></path>
	<path class="st0" d="M491.5,179.8c0,0,0-0.1,0-0.1l-0.4,1.8h1.8l0.2-1.1C492,180.3,491.5,180.2,491.5,179.8z"></path>
	<path class="st0" d="M492.4,174.3c0-1.1-0.3-1.8-0.9-2.3c-0.5-0.4-1.1-0.6-1.8-0.6c-0.6,0-1.3,0.2-1.9,0.5   c-0.6,0.3-1.1,0.7-1.5,1.3h0l1.2-6.2h-3.6l-0.2,1.1c1.1,0,1.7,0.2,1.7,0.6c0,0,0,0.1,0,0.1l-2.2,10.9c-0.1,0.3-0.3,0.5-0.7,0.6   c-0.2,0.1-0.7,0.1-1.3,0.1l-0.2,1.1h5.4l0.2-1.1c-1.1,0-1.7-0.2-1.7-0.5c0,0,0-0.1,0-0.1l0.8-4.2c0.1-0.3,0.2-0.6,0.3-0.8   c0.3-0.5,0.7-0.9,1.1-1.3c0.5-0.4,1.1-0.5,1.6-0.5c1.2,0,1.8,0.6,1.8,1.9c0,0.3,0,0.6-0.1,1l-1.1,5.7h1.8l1.2-5.9   C492.4,175.1,492.4,174.7,492.4,174.3z"></path>
	<path class="st0" d="M500.7,171.3c-1.5,0-2.7,0.5-3.8,1.6c-1,1-1.6,2.2-1.9,3.7c-0.1,0.5-0.1,0.9-0.1,1.3c0,0.9,0.2,1.7,0.7,2.4   c0.7,0.9,1.8,1.4,3.3,1.4c1.3,0,2.4-0.2,3.4-0.6l-0.1-1.3c-0.9,0.3-1.8,0.5-2.8,0.5c-1.9,0-2.8-0.9-2.8-2.6c0-0.3,0-0.6,0.1-0.9   h6.9c0.3-0.5,0.4-1.2,0.4-2.1c0-0.6-0.1-1.2-0.4-1.8C503.2,171.9,502.2,171.3,500.7,171.3z M502.2,175.5H497   c0.2-0.7,0.6-1.4,1.1-1.9c0.6-0.7,1.4-1,2.2-1c0.9,0,1.5,0.4,1.8,1C502.4,174.2,502.4,174.8,502.2,175.5z"></path>
	<path class="st0" d="M515.1,166.9h-3.6l-0.2,1.1c1.1,0,1.7,0.2,1.7,0.6c0,0,0,0.1,0,0.1l-2.2,10.9c-0.1,0.3-0.3,0.5-0.7,0.6   c-0.2,0.1-0.6,0.1-1.2,0.1l-0.2,1.1h5.4l0.2-1.1c-1.1,0-1.7-0.2-1.7-0.5c0,0,0-0.1,0-0.1L515.1,166.9z"></path>
	<path class="st0" d="M524.6,180.3h-0.1c-0.6,0-1-0.2-1-0.5l0-0.2c0.1-1,0.2-1.9,0.4-2.8l1-5.2c-0.8-0.3-1.7-0.4-2.7-0.4   c-2,0-3.7,0.7-5,2.2c-1.2,1.4-1.8,3-1.8,4.8c0,0.9,0.2,1.7,0.7,2.3c0.5,0.7,1.2,1,2.1,1c1.6,0,2.9-0.9,3.8-2.8h0   c-0.2,1.2-0.2,2.1-0.2,2.6h3.1l0.2-1.1L524.6,180.3L524.6,180.3z M522.4,175.8c-0.2,1-0.6,2-1.2,2.8c-0.7,1.1-1.5,1.6-2.4,1.6   c-1.1,0-1.7-0.7-1.7-2.2c0-1.3,0.4-2.6,1.3-3.7c0.9-1.2,2-1.8,3.4-1.8c0.5,0,0.9,0,1.2,0.1L522.4,175.8z"></path>
	<path class="st0" d="M539.2,171.6l-0.2,1.1c0.7,0,1.2,0.1,1.4,0.2l-1.8,3.7c-0.6,1.2-1,2.3-1.4,3.2h0c0-1-0.1-2.1-0.2-3.2l-0.6-4.9   h-1.5l-2.6,5c-0.7,1.3-1.2,2.3-1.5,3.1h0c0-1,0-2-0.1-3.2l-0.2-3.7c0.3-0.1,0.7-0.2,1.5-0.2l0.2-1.1h-4.9l-0.2,1.1   c1,0,1.5,0.1,1.6,0.3l0.9,8.4h1.6l2.5-4.7c0.6-1.2,1.1-2.2,1.6-3.3h0c0,1,0.1,2,0.2,3.3l0.6,4.7h1.6l4.4-8.4   c0.2-0.2,0.8-0.3,1.7-0.3l0.2-1.1H539.2z"></path>
	<path class="st0" d="M545.2,179.1c-0.4,0-0.7,0.1-0.9,0.4c-0.2,0.3-0.4,0.6-0.4,1c0,0.3,0.1,0.6,0.3,0.8c0.2,0.2,0.5,0.3,0.8,0.3h0   c0.4,0,0.7-0.1,0.9-0.4c0.2-0.3,0.4-0.6,0.4-1c0-0.3-0.1-0.6-0.3-0.9C545.8,179.2,545.5,179.1,545.2,179.1z"></path>
	<polygon class="st0" points="545,177.5 546.4,177.5 548.5,167.7 546.6,167.7  "></polygon>
	<path class="st0" d="M314.7,125.4c3.1,0,4.7-2.1,4.7-4.7c0-3-2.1-4.7-4.7-4.7c-2.6,0-4.7,2.1-4.7,4.7   C310,123.4,311.7,125.4,314.7,125.4z"></path>
	<path class="st0" d="M500.3,159.9c6,0,10.5-2.9,13.9-7.1l-2.4-2.4c-1.7,1.7-4.8,3.9-8,3.9c-6.5,0-10.3-5.5-10.3-13   c0-4.8,1.6-9.8,6.6-9.8c5,0,7.2,4.3,8.5,8.3l6.4-6.1c-3.3-3.4-7.3-5.9-12.8-5.9c-9.9,0-17.1,6.5-17.1,16   C485,153.1,490.8,159.9,500.3,159.9z"></path>
	<path class="st0" d="M322.7,156.4h-3.3v-23.5c0-1.5,0.1-3,0.2-4.5l-11.8,3.8v2.9l3.3-1.1v22.3h-3.3v2.9h14.9V156.4z"></path>
	<path class="st0" d="M269.9,125.4c3.1,0,4.7-2.1,4.7-4.7c0-3-2.1-4.7-4.7-4.7c-2.6,0-4.7,2.1-4.7,4.7   C265.2,123.4,266.8,125.4,269.9,125.4z"></path>
	<polygon class="st0" points="364.3,119.2 367.2,118.3 367.2,115.4 352.8,120.1 352.8,123 356,121.9 356,156.4 352.7,156.4    352.7,159.3 367.6,159.3 367.6,156.4 364.3,156.4  "></polygon>
	<path class="st0" d="M259.2,119.3l3.2-1.1v-2.9l-14.6,4.8v2.8l3.1-1v8c-1.9-0.9-4.1-1.6-7.2-1.6c-10.5,0-15.9,6.8-15.9,16.7   c0,8.5,4.8,15,13.6,15c3.9,0,7.2-1,9.7-3.3l1.1,2.4h10.4v-2.9h-3.3V119.3z M250.9,138.3v14.3c-1.1,1.4-3.3,2.4-6.2,2.4   c-4.6,0-8.7-3.5-8.7-11.8c0-7.5,3.6-11.2,8.3-11.2C247.8,132,250.9,134.3,250.9,138.3z"></path>
	<path class="st0" d="M277.8,156.4h-3.3v-23.5c0-1.5,0.1-3,0.2-4.5l-11.8,3.8v2.9l3.3-1.1v22.3H263v2.9h14.9V156.4z"></path>
	<path class="st0" d="M223.8,134c0-2.5,0.1-4,0.2-5.6l-11.5,3.7v2.9l3-0.9v17.3c-1.8,1.8-3.8,3.2-6,3.2c-2.8,0-4.3-1.6-4.3-4.8   v-15.8c0-2.1,0.1-3.6,0.2-5.5l-12.1,4v2.9l3.6-1.2v16.7c0,5.9,3.2,9.4,8.3,9.4c4.4,0,7.4-1.7,10.4-4.3l0.4,3.5h11v-2.9h-3.2V134z"></path>
	<path class="st0" d="M349.1,137.7c0-5.3-3-9.2-9.2-9.2c-3.7,0-6.6,1.3-8.7,2.5l0.2-1.8l-3.1-0.8l-2.3,8.4l3,0.8   c1.4-2.4,3.8-5,6.8-5c3.6,0,5,2.3,5,6.9h-1.4c-10,0-16.9,2.4-16.9,10.9c0,5.9,3.8,9.7,10,9.7c4.6,0,7.1-1.9,9.1-4.3l0.8,3.4h10.2   v-2.9h-3.5V137.7z M337.5,142.8c1.7,0,1.9,0.1,3.3,0.2v7.8c0,2.1-1.8,3.8-5.1,3.8c-3.1,0-4.9-2.3-4.9-6.1   C330.8,144.3,333.8,142.8,337.5,142.8z"></path>
	<path class="st0" d="M545.6,156.1v-19.6c0-5.5-3.7-8.7-8.9-8.7c-4.1,0-7.6,2.5-10,4.2v-17.7l2.9-1v-2.9l-14.7,5v2.9l3.4-1.2v39.1   h-3.4v2.9h15.2v-2.9h-3.4v-19.6c1-0.8,4-3.1,6.5-3.1c2.2,0,4,0.9,4,3.7v19h-3.3v2.9H549v-2.9H545.6z"></path>
	<path class="st0" d="M419.2,159.3h10.7c0.6-5.1,4.4-13.8,7.5-22.4l6.9-18.8c1.2-3.3,2.5-6.5,4.9-9.1l-2.4-2.4   c-0.9,0.6-2.7,1.7-5.5,1.7c-1.8,0-3.3-0.5-5-1c-1.6-0.5-3.3-0.9-5.7-0.9c-7.6,0-12.2,8.2-14.2,10.9l-2.2-6.2h3.6v-4.3h-19.6v4.3   h4.8l6.7,19l-7,18.4l-13.1-37.4h3v-4.3h-17.6v4.3h3.6l8.3,23.6c3.1,8.8,6.4,18.1,8.2,24.6h10.5c0.1-2.1,0.6-4.1,1.4-6.1l5.6-14.8   h0.2l5.1,14.8C418.4,155,419.1,157.3,419.2,159.3z M425.3,146.5h-0.1l-8.2-23.7c1.3-1.7,4.7-6,8-6c1.3,0,2.5,0.1,3.6,0.5   c1.3,0.4,2.7,0.7,4.4,0.7c0.8,0,2.3-0.3,2.7-0.8l0.1,0.1L425.3,146.5z"></path>
	<path class="st0" d="M194.8,111.2h-19.2v4h4.8v35.8c0,2.8-1.1,4.5-4.3,4.5c-1.5,0-2.9-0.4-4-0.6l0.7,5.5c1.6,0.8,4.1,1.3,6.3,1.3   c8.4,0,11.4-5,11.4-13.3v-33.1h4.2V111.2z"></path>
	<path class="st0" d="M485.9,155.5l-1.8-2.2c-1,0.7-2.1,1.4-3.5,1.4c-2,0-2.9-1.3-2.9-2.9v-19h5.4l1-4.1h-6.4c0-1.3,0.3-5.4,0.5-6.8   l-3.1-0.6c-2.1,4.4-4.9,7.6-10,8.5v3.1h4.2v19.5c0,4.8,2.9,7.6,7.3,7.6C480.5,159.9,483.3,158.2,485.9,155.5z"></path>
	<path class="st0" d="M456.6,155.6l0.8,3.4h10.4v-2.9h-3.6v-19c0-5.4-3.1-9.4-9.4-9.4c-3.8,0-6.7,1.3-8.8,2.5l0.2-1.8l-3.1-0.8   l-2.4,8.5l3.1,0.8c1.4-2.5,3.9-5,6.9-5c3.6,0,5.1,2.3,5.1,7h-1.5c-10.1,0-17.1,2.4-17.1,11c0,6,3.8,9.9,10.2,9.9   C452,159.9,454.6,158,456.6,155.6z M452.7,142.8c1.6,0,1.8,0.1,3.2,0.2v7.5c0,2.1-1.8,3.7-5,3.7c-3,0-4.7-2.2-4.7-5.9   C446.2,144.3,449,142.8,452.7,142.8z"></path>
	<path class="st0" d="M304.7,150.7c-1.6,1.7-4.8,3.8-7.8,3.8c-6.4,0-10.2-5.5-10.2-12.9c0-4.8,1.6-9.7,6.5-9.7   c4.9,0,7.1,4.3,8.3,8.2l6.3-6c-3.3-3.3-7.2-5.8-12.6-5.8c-9.7,0-16.8,6.4-16.8,15.8c0,9.2,5.6,15.9,15,15.9c5.9,0,10.3-2.8,13.7-7   L304.7,150.7z"></path>
	<path class="st0" d="M125.3,154.9c-0.2,0.1-0.2,0.2-0.2,0.4l0.2,0.8c-2-0.1-5.1-0.2-8.7-0.2c-3.9,0-7,0.1-8.6,0.2l0.4-1.1   c0.1-0.2,0-0.3-0.2-0.4c-0.2,0-0.3,0-0.4,0.2l-0.4,1.2c0,0,0,0.1,0,0.1c-0.6,0.1-0.9,0.1-0.9,0.2c0,0.3,0.9,5,10.5,5.1   c9.6,0.1,10.5-4.5,10.5-5c0-0.1-0.6-0.2-1.6-0.3l-0.3-1C125.6,154.9,125.4,154.8,125.3,154.9z M126.3,157.1c0,0.6-4.9,1.2-9.3,1.1   c-4.6-0.1-9.4-0.5-9.3-1.1c0-0.3,4.2-0.5,9.3-0.5C122.1,156.6,126.3,156.7,126.3,157.1z"></path>
	<path class="st0" d="M114.8,135.2l0.4-1.2c0.1-0.1,0-0.3-0.2-0.4c-0.2,0-0.3,0-0.4,0.2l-0.4,1.2c-0.1,0.1,0,0.3,0.2,0.4   C114.6,135.5,114.8,135.4,114.8,135.2z"></path>
	<path class="st0" d="M61.4,181.7c-0.4,0-0.7,0.2-0.9,0.5c-0.2,0.3-0.3,0.5-0.2,0.8c0,0.3,0.3,0.6,0.6,0.9c0.3,0.2,0.6,0.4,0.9,0.4   c0.7,0,1.3-0.7,1.7-1.2l0.1-0.2l-0.4-0.3C62.4,181.9,61.8,181.7,61.4,181.7z"></path>
	<path class="st0" d="M115.4,133.3l0.4-1.2c0.1-0.1,0-0.3-0.2-0.4c-0.2-0.1-0.3,0-0.4,0.2l-0.4,1.2c-0.1,0.2,0,0.3,0.2,0.4   C115.2,133.6,115.4,133.5,115.4,133.3z"></path>
	<path class="st0" d="M116.1,131.3l0.4-1.2c0.1-0.1,0-0.3-0.2-0.4c-0.2-0.1-0.3,0-0.4,0.2l-0.4,1.2c0,0.1,0,0.3,0.2,0.4   C115.9,131.6,116,131.5,116.1,131.3z"></path>
	<path class="st0" d="M122.4,146l0.4,1.2c0,0.1,0.1,0.2,0.3,0.2c-0.1,0.1-0.1,0.2-0.1,0.3l0.4,1.2c0,0.2,0.2,0.2,0.4,0.2   c0.2,0,0.2-0.2,0.2-0.4l-0.4-1.2c0-0.1-0.2-0.2-0.3-0.2c0.1-0.1,0.1-0.2,0.1-0.3l-0.4-1.2c0-0.2-0.2-0.2-0.4-0.2   C122.4,145.7,122.3,145.9,122.4,146z"></path>
	<path class="st0" d="M121.8,144.1l0.4,1.2c0,0.2,0.2,0.2,0.4,0.2c0.2,0,0.2-0.2,0.2-0.4l-0.4-1.2c0-0.2-0.2-0.2-0.4-0.2   C121.8,143.8,121.7,144,121.8,144.1z"></path>
	<path class="st0" d="M123.5,149.8l0.4,1.2c0,0.2,0.2,0.2,0.4,0.2c0.2,0,0.2-0.2,0.2-0.4l-0.4-1.2c0-0.2-0.2-0.2-0.4-0.2   C123.5,149.4,123.4,149.6,123.5,149.8z"></path>
	<path class="st0" d="M124.1,151.7l0.4,1.2c0,0.1,0.2,0.2,0.3,0.2c-0.1,0.1-0.1,0.2-0.1,0.3l0.4,1.2c0.1,0.1,0.2,0.2,0.4,0.2   c0.2,0,0.2-0.2,0.2-0.4l-0.4-1.2c0-0.1-0.2-0.2-0.3-0.2c0.1-0.1,0.1-0.2,0.1-0.3l-0.4-1.2c0-0.2-0.2-0.2-0.4-0.2   C124.1,151.4,124,151.6,124.1,151.7z"></path>
	<path class="st0" d="M64.5,109c0.4,0,0.7-0.1,1.1-0.4c0.6-0.4,0.9-0.9,1-1.4c0.2-0.9-0.3-1.8-0.8-2.5c-0.5-0.7-1.2-1.5-2.2-1.5   c-0.4,0-0.9,0.2-1.4,0.5c-0.5,0.3-0.7,0.7-0.8,1.2c-0.1,0.7,0.2,1.6,0.8,2.5C62.7,108.2,63.6,109,64.5,109z"></path>
	<path class="st0" d="M109.8,150.7l0.4-1.2c0-0.1,0-0.3-0.2-0.4c-0.2,0-0.3,0-0.4,0.2l-0.4,1.2c0,0.1,0,0.3,0.2,0.4   C109.5,151,109.7,150.9,109.8,150.7z"></path>
	<path class="st0" d="M89.6,189.1l0-0.2l0,0L89.6,189.1c-1,0-1.4,0.5-1.5,1.4c0,1.2,0.8,1.4,1.5,1.4c1,0,1.4-0.5,1.4-1.4   C91.1,189.6,90.6,189.1,89.6,189.1z"></path>
	<path class="st0" d="M111.6,145.1l0.4-1.2c0.1-0.1,0-0.3-0.2-0.4c-0.2-0.1-0.3,0-0.4,0.2l-0.4,1.2c-0.1,0.2,0,0.3,0.2,0.4   C111.4,145.4,111.5,145.3,111.6,145.1z"></path>
	<path class="st0" d="M100.1,188.2c-0.1,0-0.3,0-0.5,0c-0.5,0.1-0.9,0.3-1.1,0.7c-0.4,0.6-0.3,1.4-0.2,2c0.2,0.9,0.6,2,1.8,2   c0.1,0,0.3,0,0.5,0c0.5-0.1,0.9-0.3,1.1-0.7c0.4-0.6,0.3-1.4,0.2-2C101.7,189.3,101.2,188.2,100.1,188.2z"></path>
	<path class="st0" d="M112.3,143.1l0.4-1.2c0.1-0.2,0-0.3-0.2-0.4c-0.2-0.1-0.3,0-0.4,0.2l-0.4,1.2c-0.1,0.1,0,0.3,0.2,0.4   C112,143.3,112.2,143.3,112.3,143.1z"></path>
	<path class="st0" d="M112.9,141.2l0.4-1.2c0.1-0.1,0-0.3-0.2-0.4c-0.2,0-0.3,0-0.4,0.2l-0.4,1.2c0,0.1,0,0.3,0.2,0.4   C112.7,141.4,112.8,141.4,112.9,141.2z"></path>
	<path class="st0" d="M113.5,139.2l0.4-1.2c0.1-0.1,0-0.3-0.2-0.4c-0.2,0-0.3,0-0.4,0.2L113,139c-0.1,0.2,0,0.3,0.2,0.4   C113.3,139.4,113.5,139.4,113.5,139.2z"></path>
	<path class="st0" d="M114.1,137.3l0.4-1.2c0.1-0.2,0-0.3-0.2-0.4c-0.2-0.1-0.3,0-0.4,0.2l-0.4,1.2c-0.1,0.1,0,0.3,0.2,0.4   C113.9,137.5,114.1,137.4,114.1,137.3z"></path>
	<path class="st0" d="M87.5,194.7c0,0.7,1.2,1,1.8,1l0.1,0c1.3,0,2.1-0.4,2.1-0.9c0-0.5-0.9-0.9-2.4-0.9h-0.1   C87.7,193.9,87.6,194.4,87.5,194.7z"></path>
	<path class="st0" d="M66,135.8c-0.2,0-0.2,0.2-0.2,0.4l0.4,1.2c0,0.1,0.2,0.2,0.4,0.2c0.2,0,0.2-0.2,0.2-0.4l-0.4-1.2   C66.3,135.8,66.2,135.7,66,135.8z"></path>
	<path class="st0" d="M69.6,145.7c0-0.1-0.2-0.2-0.4-0.2c-0.2,0-0.2,0.2-0.2,0.4l0.4,1.2c0,0.1,0.1,0.1,0.2,0.2   c-0.1,0.1-0.2,0.2-0.1,0.3l0.4,1.2c0.1,0.1,0.2,0.2,0.4,0.2c0.2,0,0.2-0.2,0.2-0.4l-0.4-1.2c0-0.1-0.1-0.1-0.2-0.2   c0.1-0.1,0.2-0.2,0.1-0.3L69.6,145.7z"></path>
	<path class="st0" d="M109.1,152.7l0.4-1.2c0.1-0.1,0-0.3-0.2-0.4c-0.2,0-0.3,0-0.4,0.2l-0.4,1.2c0,0.1,0,0.2,0.1,0.3   c-0.1,0-0.2,0.1-0.2,0.2l-0.4,1.2c0,0.2,0,0.3,0.2,0.4c0.2,0,0.3,0,0.4-0.2l0.4-1.2c0-0.1,0-0.2-0.1-0.3   C109,152.8,109.1,152.8,109.1,152.7z"></path>
	<path class="st0" d="M66.6,137.7c-0.2,0-0.2,0.2-0.2,0.4l0.4,1.2c0,0.2,0.2,0.2,0.4,0.2c0.2-0.1,0.2-0.2,0.2-0.4l-0.4-1.2   C66.9,137.7,66.8,137.7,66.6,137.7z"></path>
	<path class="st0" d="M73,156l-0.4-1.2c-0.1-0.2-0.2-0.2-0.4-0.2c-0.2,0-0.2,0.2-0.2,0.4l0.4,1.1c-1.9-0.2-5.3-0.3-9.3-0.2   c-3.5,0-6.3,0.1-8,0.2l0.2-0.7c0-0.2,0-0.3-0.2-0.4c-0.2,0-0.3,0-0.4,0.2l-0.3,0.9c-0.9,0.1-1.5,0.1-1.5,0.3c0,0.3,0.9,5,10.5,5.1   c9.6,0.1,10.5-4.5,10.5-5C74.1,156.3,73.7,156.2,73,156C73,156.1,73,156.1,73,156z M63.5,158.2c-4.6-0.1-9.4-0.5-9.3-1.1   c0-0.3,4.2-0.5,9.3-0.5c5.1,0,9.3,0.2,9.3,0.5C72.8,157.7,67.9,158.2,63.5,158.2z"></path>
	<path class="st0" d="M71.4,151.4c-0.1-0.2-0.2-0.2-0.4-0.2c-0.2,0.1-0.2,0.2-0.2,0.4l0.4,1.2c0,0.1,0.1,0.1,0.2,0.2   c-0.1,0.1-0.2,0.2-0.1,0.3l0.4,1.2c0.1,0.1,0.2,0.2,0.4,0.2c0.2,0,0.2-0.2,0.2-0.4l-0.4-1.2c0-0.1-0.1-0.1-0.2-0.2   c0.1-0.1,0.2-0.2,0.1-0.3L71.4,151.4z"></path>
	<path class="st0" d="M56.2,151.2c0.2,0.1,0.3,0,0.4-0.2l0.4-1.2c0-0.1,0-0.3-0.2-0.4c-0.2,0-0.3,0-0.4,0.2l-0.4,1.2   C55.9,151,56,151.2,56.2,151.2z"></path>
	<path class="st0" d="M67.3,139.7c-0.2,0.1-0.2,0.2-0.2,0.4l0.4,1.2c0.1,0.2,0.2,0.2,0.4,0.2c0.2,0,0.2-0.2,0.2-0.4l-0.4-1.2   C67.6,139.7,67.4,139.7,67.3,139.7z"></path>
	<path class="st0" d="M70.4,149.2c-0.2,0-0.2,0.2-0.2,0.4l0.4,1.2c0.1,0.2,0.2,0.2,0.4,0.2c0.2,0,0.2-0.2,0.2-0.4l-0.4-1.2   C70.7,149.3,70.6,149.2,70.4,149.2z"></path>
	<path class="st0" d="M68.6,143.6c-0.2,0-0.2,0.2-0.2,0.4l0.4,1.2c0.1,0.2,0.2,0.2,0.4,0.2c0.2,0,0.2-0.2,0.2-0.4l-0.4-1.2   C68.9,143.7,68.7,143.6,68.6,143.6z"></path>
	<path class="st0" d="M55,154.9c0.2,0.1,0.3,0,0.4-0.2l0.4-1.2c0-0.1,0-0.2-0.1-0.3c0.1,0,0.2-0.1,0.3-0.2l0.4-1.2   c0-0.1,0-0.3-0.2-0.4c-0.2,0-0.3,0-0.4,0.2l-0.4,1.2c0,0.1,0,0.2,0.1,0.3c-0.1,0-0.2,0.1-0.3,0.2l-0.4,1.2   C54.8,154.6,54.9,154.8,55,154.9z"></path>
	<path class="st0" d="M83.3,99.8c0.1,0.8,0.7,1.3,1.5,1.3c0.1,0,0.2,0,0.3,0c0.8-0.1,1.3-0.4,1.5-1c0.2-0.6,0.2-1.4,0.1-2l0-0.3   L86,97.7C84,98,83.1,98.6,83.3,99.8z"></path>
	<path class="st0" d="M120,138.1l0.4,1.2c0,0.1,0.2,0.2,0.4,0.2c0.2,0,0.2-0.2,0.2-0.4l-0.4-1.2c0-0.2-0.2-0.2-0.4-0.2   C120,137.8,119.9,138,120,138.1z"></path>
	<path class="st0" d="M119.3,136.2l0.4,1.2c0,0.2,0.2,0.2,0.4,0.2c0.2-0.1,0.2-0.2,0.2-0.4l-0.4-1.2c0-0.2-0.2-0.2-0.4-0.2   C119.4,135.9,119.3,136,119.3,136.2z"></path>
	<path class="st0" d="M120.6,140.2l0.4,1.2c0,0.2,0.2,0.2,0.4,0.2c0.2,0,0.2-0.2,0.2-0.4l-0.4-1.2c0-0.1-0.2-0.2-0.4-0.2   C120.6,139.9,120.5,140,120.6,140.2z"></path>
	<path class="st0" d="M111.1,102.8c-0.6,0-1,0.3-1.3,0.8c-0.5,1,0.1,1.7,0.8,2.1c0.4,0.2,0.7,0.3,1,0.3c1,0,1.6-1,2.1-1.9l0.2-0.3   l-0.6-0.3C112.4,103,111.7,102.8,111.1,102.8z"></path>
	<path class="st0" d="M118.9,133.8c-0.1,0.1-0.2,0.2-0.2,0.4l0.4,1.2c0,0.1,0.2,0.2,0.4,0.2c0.1,0,0.2-0.2,0.2-0.4l-0.4-1.2   C119.2,133.9,119.1,133.8,118.9,133.8z"></path>
	<path class="st0" d="M121.2,142.1l0.4,1.2c0,0.1,0.2,0.2,0.4,0.2c0.2,0,0.2-0.2,0.2-0.4l-0.4-1.2c0-0.1-0.2-0.2-0.4-0.2   C121.2,141.8,121.1,141.9,121.2,142.1z"></path>
	<path class="st0" d="M90.3,80.7C55.3,80.7,27,109,27,144c0,35,28.4,63.3,63.3,63.3c35,0,63.3-28.3,63.3-63.3   C153.6,109,125.3,80.7,90.3,80.7z M139.6,107.4l-3.4,5.9l6.7-0.9l-3.9,5.5l6.8-0.2l-4.5,5.1l6.8,0.5l-4.9,4.6l6.7,1.1l-5.4,4.1   l6.5,1.8l-5.7,3.6l6.3,2.4l-6.1,3l6.1,3l-6.3,2.4l5.7,3.6l-6.5,1.8l5.4,4.1l-6.7,1.1l4.9,4.6l-6.8,0.5l4.5,5.1L139,170l3.9,5.5   l-6.7-0.9l3.4,5.9L133,179l2.8,6.2l-6.4-2.2l2.2,6.4l-6.2-2.8l1.5,6.6l-5.9-3.4l0.9,6.7l-5.5-3.9l0.2,6.8l-5.1-4.5l-0.5,6.8   l-4.6-4.9l-1.1,6.7l-4.1-5.4l-1.8,6.5l-3.6-5.7l-2.4,6.3l-3-6.1l-3,6.1l-2.4-6.3l-3.6,5.7l-1.8-6.5l-4.1,5.4l-1.1-6.7l-4.6,4.9   l-0.5-6.8l-5.1,4.5l0.2-6.8l-5.5,3.9l0.9-6.7l-5.9,3.4l1.5-6.6l-6.2,2.8l2.2-6.4l-6.4,2.2l2.8-6.2l-6.6,1.5l3.4-5.9l-6.7,0.9   l3.9-5.5l-6.8,0.2l4.5-5.1l-6.8-0.5l4.9-4.6l-6.7-1.1l5.4-4.1l-6.5-1.8l5.7-3.6L29,147l6.1-3l-6.1-3l6.3-2.4l-5.7-3.6l6.5-1.8   l-5.4-4.1l6.7-1.1l-4.9-4.6l6.8-0.5l-4.5-5.1l6.8,0.2l-3.9-5.5l6.7,0.9l-3.4-5.9l6.6,1.5l-2.8-6.2l6.4,2.2l-2.2-6.4l6.2,2.8   l-1.5-6.6l5.9,3.4l-0.9-6.7l5.5,3.9L64,88.5l5.1,4.5l0.5-6.8l4.6,4.9l1.1-6.7l4.1,5.4l1.8-6.5l3.6,5.7l2.4-6.3l3,6.1l3-6.1l2.4,6.3   l3.6-5.7l1.8,6.5l4.1-5.4l1.1,6.7l4.6-4.9l0.5,6.8l5.1-4.5l-0.2,6.8l5.5-3.9L121,98l5.9-3.4l-1.5,6.6l6.2-2.8l-2.2,6.4l6.4-2.2   l-2.8,6.2L139.6,107.4z"></path>
	<path class="st0" d="M90.3,90.1c-29.8,0-53.9,24.1-53.9,53.9c0,29.8,24.1,53.9,53.9,53.9c29.8,0,53.9-24.1,53.9-53.9   C144.2,114.2,120.1,90.1,90.3,90.1z M124.7,107.7c1,1,1.6,2.1,1.7,2.7l0,0.1l-1.1,0.6c-0.1,0-0.1,0.1-0.2,0.1H125l-0.1-0.1   c-0.2-0.1-0.1-0.4,0.1-0.8c0.3-0.7-0.3-1.6-0.8-2.1c-0.4-0.4-0.9-0.6-1.4-0.6c-0.9,0-1.8,0.7-2.3,1.3c-0.5,0.6-0.9,1.3-0.9,1.9   c-0.1,0.7,0.2,1.3,0.7,1.8c0.5,0.5,1.1,0.7,1.9,0.7c0.4,0,0.8-0.1,0.9-0.1c0,0,0.1,0,0.2,0c0.1,0,0.2,0,0.2,0.1   c0.2,0.1,0,0.4,0,0.5c-0.1,0.1-0.1,0.1-0.2,0.1c-0.4,0.1-0.8,0.1-1.1,0.1c-0.9,0-1.7-0.3-2.5-1c-1.6-1.5-1.7-3.8-0.3-5.3   c0.7-0.8,1.7-1.2,2.7-1.2C123,106.5,123.9,106.9,124.7,107.7z M117.4,103.1c0.1-0.1,0.2-0.1,0.3-0.1c0,0,0.1,0,0.2,0   c0.2,0,0.3,0,0.5,0c0.4,0,1.1-0.1,1.7-0.6c0.1-0.1,0.2-0.1,0.3-0.1h0.1l0.1,0.1c0.1,0,0.1,0.1,0.1,0.2c0,0.1,0,0.2-0.1,0.3   l-0.9,1.3l0.7,0.5c0.1,0.1,0.2,0.1,0.2,0.3l0,0.1l-0.1,0.1l-0.3,0.3l-1-0.7l-1.2,1.6c-0.9,1.3-1.8,2.6-1.3,3.2   c0.2,0.2,0.1,0.3,0,0.4l-0.1,0.1l-0.1,0c-0.1,0-0.2,0-0.3-0.1c-0.2-0.1-0.4-0.3-0.7-0.4c-0.3-0.2-0.5-0.4-0.5-0.8   c0-0.3,0.2-0.7,0.6-1.2l2.5-3.5l-0.4-0.3c-0.1-0.1-0.2-0.2-0.3-0.3l0-0.1L117.4,103.1z M115.7,101.8c0.2,0.6,0.1,1.3-0.3,2   l-1.1,2.1c-0.6,1-0.5,1.4-0.5,1.5c0.1,0.1,0.1,0.3,0.1,0.4c-0.1,0.1-0.2,0.2-0.3,0.2c-0.1,0-0.1,0-0.2,0c0,0-0.1,0-0.1-0.1   c-0.1-0.1-0.2-0.1-0.3-0.2c-0.1,0-0.1-0.1-0.2-0.1c-0.1,0-0.2-0.1-0.2-0.1c-0.1,0-0.2-0.1-0.2-0.2c0-0.1,0-0.2,0-0.2   c0.1-0.1,0.1-0.4,0.2-0.6c0,0,0,0,0,0c-0.9,0.4-1.8,0.3-2.8-0.2c-0.8-0.4-1.4-1.1-1.7-1.9c-0.2-0.5-0.1-1,0.1-1.5   c0.4-0.7,1-1,1.9-1c1.2,0,2.6,0.6,3.3,1l0.7,0.4c0.6-1.3,0.4-2-0.7-2.6c-0.3-0.2-0.9-0.4-1.5-0.4c-0.4,0-0.9,0.1-1.1,0.5l-0.1,0.1   l-0.2,0c0,0-0.1,0-0.1,0c-0.2-0.1-0.2-0.2-0.1-0.3l0.3-1.4l0.2,0c1,0.1,2.1,0.4,2.9,0.8C114.9,100.4,115.5,101.1,115.7,101.8z    M98.6,92.9c0.1,0,0.2,0,0.3,0.1l1.8,0.5c0.3,0.1,0.4,0.1,0.4,0.3l0,0.1l0,0.1c0,0.2-0.2,0.2-0.3,0.2c0,0-0.1,0-0.1,0   c-0.1,0-0.2,0.1-0.2,0.2c-0.1,0.3-0.1,0.8,0,1.5l0.5,4l3.6-5c0.2-0.3,0.3-0.4,0.4-0.4l0.1,0c0.2,0.1,0.2,0.2,0.2,0.5l0,0.1l0.5,6   l2.4-3.2c0.3-0.4,0.5-0.7,0.6-1.1c0-0.2,0-0.3-0.1-0.4c0,0-0.1-0.1-0.1-0.1c-0.1-0.1-0.2-0.2-0.2-0.4c0-0.1,0.2-0.3,0.5-0.2   c0.1,0,0.2,0.1,0.3,0.1c0.2,0.1,0.4,0.1,0.6,0.2c0.1,0,0.3,0.1,0.4,0.1c0.2,0,0.3,0.1,0.5,0.1c0.3,0.1,0.3,0.2,0.3,0.4   c-0.1,0.2-0.2,0.3-0.4,0.3c-0.2,0.1-0.9,0.5-1.8,1.6l-3.6,4.8c-0.2,0.3-0.3,0.4-0.5,0.4l-0.1,0c-0.2-0.1-0.2-0.3-0.3-0.7l-0.4-6.1   l-3.6,4.9c-0.3,0.4-0.4,0.5-0.5,0.5l-0.1,0c-0.2-0.1-0.2-0.3-0.3-0.7l-0.7-6.9c-0.1-0.7-0.2-1.1-0.3-1.3c0-0.1-0.1-0.1-0.1-0.1   c-0.1-0.1-0.2-0.2-0.1-0.3C98.4,93,98.4,92.9,98.6,92.9z M89.7,100.7l0.1,0c0.4-0.2,0.4-1.8,0.4-2.4l0-4.5c0-1-0.1-1.1-0.3-1.2   c-0.2-0.1-0.3-0.2-0.3-0.3c0-0.1,0.1-0.2,0.3-0.3l1.7-0.4l0,7.7c0,0.9,0.1,1.4,0.3,1.5c0.2,0.1,0.4,0.1,0.4,0.4l0,0.1l-0.1,0.1   c0,0-0.1,0.1-0.4,0.1h0c-0.1,0-0.2,0-0.4,0c-0.2,0-0.4,0-0.6,0c-0.2,0-0.4,0-0.6,0c-0.2,0-0.3,0-0.4,0c-0.3,0-0.5,0-0.5-0.3   C89.3,100.8,89.5,100.8,89.7,100.7z M81.6,95.4c1.2-0.7,2.3-0.9,2.9-1c2.2-0.3,3.4,0.5,3.6,2.3l0.3,2.4c0.1,1.2,0.4,1.5,0.5,1.5   c0.2,0.1,0.3,0.2,0.3,0.3c0,0.2-0.1,0.3-0.3,0.4l-0.1,0c-0.1,0-0.3,0-0.4,0c-0.1,0-0.2,0-0.2,0c-0.1,0-0.2,0-0.2,0c0,0,0,0,0,0   c-0.2,0-0.4-0.1-0.4-0.3c0-0.1-0.1-0.4-0.2-0.6c0,0,0,0,0,0c-0.5,0.8-1.3,1.3-2.4,1.4c-0.1,0-0.3,0-0.4,0c-1.2,0-2.6-0.6-2.7-1.9   c-0.3-2.3,3.2-2.8,4.2-3l0.7-0.1c-0.2-1.4-0.8-1.9-2-1.7c-0.8,0.1-2.1,0.7-2.1,1.5c0,0.1,0,0.2-0.2,0.3l-0.1,0   c-0.1,0-0.2,0-0.2-0.2l-0.6-1.3L81.6,95.4z M80.5,99.9c0.4,1.7,0.8,1.8,0.8,1.8h0.1c0.2,0,0.3,0.1,0.3,0.2l0,0.1l0,0.1   c-0.1,0.1-0.2,0.2-0.3,0.2c-0.1,0-0.2,0.1-0.4,0.1c-0.2,0-0.4,0.1-0.6,0.1c-0.5,0.1-0.7,0.2-0.9,0.2l-0.1,0c0,0-0.1,0-0.1,0   c-0.1,0-0.2-0.1-0.3-0.2c0-0.2,0.1-0.3,0.3-0.4c0.3-0.2,0.2-0.6,0-1.6l-0.9-3.6c0-0.1,0-0.1-0.2-0.1c0,0-0.1,0-0.2,0   c-0.1,0-0.2,0-0.3-0.2c0-0.1,0-0.2,0.2-0.3l1.5-0.8L80.5,99.9z M77.7,93.9c0.1-0.2,0.3-0.3,0.5-0.4c0.3-0.1,0.9,0.1,1,0.6   c0.1,0.5-0.2,0.9-0.6,1c-0.1,0-0.1,0-0.2,0c-0.3,0-0.7-0.2-0.8-0.6C77.6,94.3,77.6,94.1,77.7,93.9z M71,99.1   c0.4-0.9,1.2-1.7,2.3-2.1c0.8-0.3,1.6-0.4,2.3-0.4c0.3,0,0.6,0,0.8,0.1l0.1,0.1l0.1,1.3c0,0.2-0.1,0.3-0.2,0.4l-0.1,0   c-0.1,0-0.3-0.1-0.6-0.4c-0.3-0.4-0.8-0.4-1.1-0.4c-0.3,0-0.7,0.1-1.1,0.2c-0.7,0.3-1.2,0.8-1.4,1.4c-0.1,0.6,0,1.3,0.3,2.2   c0.5,1.3,1.4,2,2.4,2c0.3,0,0.6-0.1,0.8-0.2c1.2-0.5,1.6-1.6,1.8-2.3c0-0.2,0.1-0.3,0.2-0.3l0.1,0c0.2,0,0.3,0.2,0.3,0.3   c0,0.1,0,0.2,0,0.3c-0.3,1.5-1.1,2.4-2.4,2.8c-0.5,0.2-0.9,0.3-1.4,0.3c-1.6,0-2.9-0.9-3.4-2.4C70.6,101,70.6,100,71,99.1z    M70.3,103.5c0.8,1.5,1.2,1.5,1.2,1.5c0.2-0.1,0.4,0,0.5,0.1l0,0.1l0,0.1c0,0,0,0.1-0.2,0.2c-0.1,0.1-0.3,0.1-0.4,0.2   c-0.2,0.1-0.4,0.2-0.5,0.3c-0.5,0.2-0.7,0.4-0.8,0.5l-0.1,0.1c-0.1,0-0.1,0.1-0.2,0.1h-0.1l-0.1-0.1c-0.1-0.2,0-0.4,0.2-0.5   c0.2-0.3,0.1-0.6-0.4-1.6l-1.7-3.3c0,0,0-0.1-0.1-0.1l-0.2,0h-0.1c-0.2,0-0.3-0.1-0.3-0.1c-0.1-0.2,0-0.3,0.1-0.4l1.3-1.2   L70.3,103.5z M66.2,98.4c0.1-0.2,0.2-0.4,0.4-0.5c0.4-0.2,0.9,0,1.1,0.4c0.1,0.2,0.1,0.4,0.1,0.6c-0.1,0.2-0.2,0.4-0.4,0.5   c-0.1,0.1-0.2,0.1-0.4,0.1c-0.3,0-0.6-0.2-0.7-0.4C66.2,98.8,66.1,98.6,66.2,98.4z M61.9,103.1c0.7-0.5,1.6-0.6,2.1-0.6   c0.1,0,0.2,0,0.2,0l-0.7-1.1c-0.3-0.4-0.6-0.7-0.8-0.6c-0.1,0-0.2,0.1-0.3,0.1h-0.1l-0.1-0.1c-0.1-0.2,0-0.3,0.1-0.4l1.2-1.4   l3.8,5.5c0.3,0.4,1.2,1.7,1.7,1.7c0.2,0,0.3,0,0.4,0.1l0,0.1l0,0.1c0,0.1-0.1,0.2-0.2,0.2c-0.1,0.1-0.2,0.1-0.3,0.2   c-0.1,0-0.1,0.1-0.2,0.1c-0.1,0.1-0.1,0.1-0.2,0.2c-0.1,0.1-0.1,0.1-0.2,0.2l-0.1,0.1l-0.8-0.8c-0.1,1.1-0.5,1.9-1.4,2.5   c-0.7,0.5-1.5,0.7-2.2,0.7c-1.2,0-2.2-0.6-2.9-1.6C59.5,106.6,60,104.4,61.9,103.1z M52.8,112l0.9-1.6l3.2,3.2   c0.3,0.3,0.9,0.7,1.5,0.7c0.4,0,0.8-0.2,1.2-0.6c1.1-1.1,0.3-2.6-0.8-3.7l-0.9-0.9c-0.4-0.4-0.7-0.6-0.9-0.6c0,0-0.1,0-0.1,0   c-0.1,0.1-0.3,0.1-0.5,0c-0.1-0.2,0-0.3,0-0.4l0.9-1.5l3.2,3.2c1.3,1.3,1.7,1.1,1.8,1.1l0.1,0c0.1,0,0.1,0,0.2,0.1   c0.2,0.2,0,0.4-0.1,0.5l-0.8,0.8l-1-0.5c0.2,1.1-0.1,1.9-1,2.7c-0.6,0.6-1.3,1-2,1c-0.6,0-1.3-0.3-1.8-0.8l-2-2   c-0.3-0.3-0.5-0.4-0.6-0.4c0,0,0,0-0.1,0c-0.2,0.1-0.4,0.2-0.5,0C52.7,112.3,52.6,112.2,52.8,112z M49,113.9c0,0,0.1-0.1,0.2-0.2   c0.1-0.1,0.2-0.3,0.4-0.5c0.1-0.1,0.1-0.2,0.2-0.3c0.1-0.1,0.2-0.3,0.3-0.5c0,0,0.1-0.2,0.3-0.2h0.1l0.1,0.1   c0.1,0.1,0.1,0.3,0.1,0.3c0,0.3,0,0.5,0.3,0.7l3.5,2.6c1.5,1.1,1.8,3.1,0.7,4.6c-0.3,0.4-0.6,0.7-1,0.9l-0.2,0.1l-0.8-1   c-0.2-0.2-0.1-0.3-0.1-0.4c0.1-0.1,0.2-0.1,0.2-0.1l0.1,0c0.5,0.2,1,0.1,1.4-0.4c0.2-0.2,0.2-0.4,0.2-0.7c-0.1-0.8-1.2-1.5-1.5-1.7   l-3.5-2.5c-0.3-0.2-0.4-0.2-0.7-0.1c-0.1,0-0.1,0-0.2,0H49l-0.1,0c-0.1,0-0.1-0.1-0.1-0.2C48.8,114.1,48.9,114,49,113.9z    M55.8,180.5L55.8,180.5l-0.2-0.1c-0.1-0.2-0.1-0.3,0.1-0.6l2.1-4.3l-4.4,1.9c-0.3,0.1-0.4,0.2-0.4,0.2H53l-0.1-0.1   c-0.2-0.2-0.1-0.3,0.1-0.6l2.3-5.1c0.2-0.5,0.3-0.8,0.3-1c0-0.1,0-0.1,0-0.1c0-0.1,0-0.2,0.1-0.3l0.1-0.1l0.1,0   c0.1,0,0.2,0.1,0.3,0.2l1,1.1c0.1,0.1,0.3,0.4,0.1,0.6l-0.1,0.1l-0.1,0c-0.1,0-0.1,0-0.2-0.1c0,0-0.1,0-0.1,0c0,0,0-0.1-0.2,0.1   c-0.2,0.2-0.4,0.5-0.6,1l-1.2,2.9l4.4-1.9c0.2-0.1,0.3-0.1,0.4-0.1h0.1l0.1,0.1c0.1,0.2,0.1,0.3,0,0.5l-2.1,4.3l2.9-1.2   c0.4-0.1,0.6-0.3,0.8-0.5c0.1-0.1,0.1-0.2,0.1-0.3c0,0,0-0.1,0-0.1c0-0.1-0.1-0.2,0-0.4l0.1-0.1l0.1,0c0.1,0,0.2,0.1,0.3,0.1   c0,0,0.1,0.1,0.2,0.2c0.1,0.1,0.2,0.2,0.3,0.3c0.1,0.1,0.2,0.2,0.2,0.2c0.1,0.1,0.2,0.2,0.3,0.3c0.2,0.2,0.1,0.4,0.1,0.4   c-0.1,0.1-0.4,0.1-0.5,0.1c0,0-0.1,0-0.2,0c-0.2,0-0.7,0-1.6,0.4l-4.4,1.8C56,180.5,55.9,180.5,55.8,180.5z M63.2,185.6   c0.1,0.2,0.1,0.3,0,0.4c-0.1,0.1-0.1,0.1-0.2,0.1c-0.1,0-0.1,0-0.2-0.1c0,0-0.1-0.1-0.1-0.1c-0.1-0.1-0.2-0.1-0.2-0.2   c0,0-0.1-0.1-0.2-0.1c-0.1,0-0.1-0.1-0.2-0.1c-0.2-0.1-0.2-0.3-0.1-0.4c0.1-0.1,0.1-0.2,0.2-0.4c-0.7,0.2-1.4,0-2.2-0.6   c-0.9-0.7-1.5-2-0.8-2.9c0.3-0.4,0.8-0.6,1.3-0.6c1.1,0,2.2,0.8,2.9,1.2l0.4,0.3c0.3-0.5,0.5-0.8,0.4-1.2c0-0.3-0.2-0.6-0.6-0.9   c-0.3-0.2-0.9-0.5-1.4-0.5c-0.3,0-0.5,0.1-0.6,0.2l-0.1,0.1l-0.1,0c0,0-0.1,0-0.1,0l-0.2-0.1l0-0.2l0.4-1.1l0.2,0   c0.8,0.2,1.6,0.6,2.2,1c0.8,0.6,1.2,1.2,1.3,1.8c0.1,0.5-0.1,1-0.5,1.6l-1.2,1.5C63.2,185.3,63.2,185.6,63.2,185.6z M67.9,188.7   c-0.6,0-1.2-0.2-1.7-0.5c-0.7-0.4-1.6-0.9-2.1-1.8l-0.1-0.1l0.6-0.6c0.2-0.2,0.3-0.3,0.4-0.3h0.1l0.1,0c0.2,0.1,0.1,0.3,0.1,0.4   l0,0.1c-0.2,0.9,0.9,1.6,1.2,1.7c0.2,0.1,0.7,0.3,1.1,0.3c0.3,0,0.6-0.1,0.7-0.4c0.3-0.6-0.2-1-1-1.5l-0.1-0.1   c-0.9-0.6-1.6-1.6-1.1-2.5c0.3-0.5,0.8-0.8,1.5-0.8c0.5,0,1.2,0.2,1.7,0.5c0.6,0.4,1.2,0.9,1.6,1.4l0.1,0.2l-0.8,0.7   c-0.1,0.1-0.2,0.1-0.3,0.1H70l-0.1,0c-0.2-0.1-0.1-0.3-0.1-0.5c0.1-0.5-0.4-1.1-1-1.4c-0.3-0.2-0.6-0.2-0.8-0.2   c-0.3,0-0.5,0.1-0.7,0.4c-0.3,0.6,0.2,1,1,1.5l0.1,0.1c0.7,0.5,1.8,1.3,1.2,2.4C69.3,188.3,68.7,188.7,67.9,188.7z M75.5,191.6   L75.5,191.6c0.1,0.2,0.2,0.3,0.2,0.4l-0.1,0.1l-0.2,0c-0.1,0-0.1,0-0.2,0c0,0-0.1,0-0.2-0.1c-0.2-0.1-0.4-0.2-0.6-0.2   c-0.2-0.1-0.5-0.2-0.7-0.2l-0.1,0c0,0-0.1-0.1-0.2-0.2l0-0.1l0-0.1c0.1-0.2,0.2-0.2,0.3-0.2c0,0,0,0,0.1,0c0.2,0,0.3-0.2,0.5-0.6   l0.7-1.9c0.6-1.6,0-2.1-0.6-2.3c-0.9-0.3-1.8,0.2-2.2,1.3l-0.6,1.5c-0.3,0.7-0.3,0.9-0.2,1.1l0.1,0.1c0.1,0.1,0.1,0.2,0.1,0.3   l-0.1,0.1l-0.2,0c0,0-0.1,0-0.1,0l-0.1,0c-0.2-0.1-0.5-0.2-0.7-0.3c-0.1,0-0.3-0.1-0.4-0.1c-0.2-0.1-0.3-0.1-0.4-0.1   c-0.1,0-0.1-0.1-0.2-0.1l0-0.1l0-0.1c0.1-0.2,0.2-0.2,0.3-0.2c0,0,0.1,0,0.1,0c0.2,0,0.4-0.2,0.5-0.5l1.9-5c0.1-0.3,0-0.3-0.1-0.4   c-0.2-0.1-0.2-0.3-0.2-0.4c0.1-0.2,0.2-0.2,0.3-0.2l0.1,0l1.4,0.1l-1,2.6c0.6-0.3,1.3-0.4,2-0.1c0.7,0.3,1.2,0.7,1.5,1.3   c0.2,0.5,0.2,1,0,1.6l-0.7,1.9C75.6,190.7,75.3,191.4,75.5,191.6z M78.6,192.9l-0.2,0c-0.1,0-0.1,0-0.2,0c-0.1,0-0.2-0.1-0.4-0.1   c-0.1,0-0.3-0.1-0.4-0.1c-0.4-0.1-0.6-0.2-0.8-0.2l-0.1,0c-0.3-0.1-0.2-0.3-0.2-0.3c0.1-0.2,0.2-0.2,0.4-0.2c0.2,0,0.3-0.3,0.6-1.1   l0.8-2.9c0,0-0.1-0.1-0.1-0.1c0,0-0.1-0.1-0.1-0.1c-0.1-0.1-0.2-0.2-0.1-0.3c0-0.1,0.1-0.2,0.3-0.2l1.4,0l-1,3.6   c-0.4,1.3-0.1,1.5-0.1,1.5c0.1,0,0.3,0.1,0.2,0.4L78.6,192.9z M78.6,185.9c0.1-0.4,0.5-0.6,0.9-0.5c0.2,0,0.3,0.2,0.4,0.3   c0.1,0.2,0.1,0.4,0.1,0.5c-0.1,0.4-0.4,0.5-0.7,0.5c-0.1,0-0.1,0-0.2,0C78.7,186.7,78.5,186.3,78.6,185.9z M85.8,190.5l-0.3,2   c-0.2,1-0.1,1.1,0,1.2c0.2,0.1,0.3,0.2,0.3,0.4c0,0.1-0.1,0.2-0.3,0.2l-0.1,0c0,0-0.1,0-0.2,0c-0.2,0-0.4-0.1-0.6-0.1   c-0.2,0-0.4-0.1-0.6-0.1c-0.1,0-0.2,0-0.2,0c-0.1,0-0.2-0.1-0.3-0.1l-0.1-0.1l0-0.1c0-0.2,0.2-0.2,0.3-0.2c0.3-0.1,0.4-0.7,0.5-1.3   l0.2-1.4c0.1-0.7,0.1-1.3-0.2-1.6c-0.2-0.3-0.5-0.5-0.9-0.5c-0.9-0.2-1.8,0.6-1.9,1.7l-0.3,1.6c-0.1,0.7-0.1,1,0.1,1.1   c0.2,0.1,0.3,0.2,0.2,0.3l0,0.2l-0.2,0c0,0,0,0-0.1,0c-0.1,0-0.2,0-0.3-0.1c-0.2,0-0.4-0.1-0.5-0.1c-0.2,0-0.4-0.1-0.6-0.1l-0.2,0   c-0.3-0.1-0.3-0.3-0.3-0.3c0-0.2,0.2-0.2,0.3-0.2c0,0,0.1,0,0.1,0c0.1,0,0.3-0.2,0.5-1.2l0.4-2.3c0.1-0.7,0-0.8-0.1-0.8   c-0.1-0.1-0.2-0.2-0.2-0.3c0-0.1,0.1-0.2,0.3-0.2l1.3-0.1l-0.1,0.7c0.5-0.4,1.3-0.6,2-0.5C84.9,188.1,86,188.9,85.8,190.5z    M92.4,190.6c0,1.3-1.3,1.9-2.4,2c-0.4,0-0.8,0-1.2,0l0-0.1l0,0v0.1c-0.2,0-0.2,0-0.2,0c0.1,0.1,0.4,0.2,1.6,0.3c0.1,0,0.2,0,0.2,0   c1.5,0.1,2.4,0.7,2.3,1.5c0,0.9-0.6,1.9-3.4,1.9h-0.2c-1.4,0-2.9-0.6-2.9-1.8c0-0.6,0.7-1,1.2-1.1c-0.2-0.2-0.2-0.4-0.2-0.5   c0-0.4,0.3-0.6,0.6-0.7c-0.6-0.4-1.1-1-1.1-1.7c0-1.3,1.4-2,2.7-2c0.4,0,0.7,0.1,1,0.1c0.5-0.6,1.3-0.8,2.2-0.8l0.3,0l-0.5,1.4   l-0.2-0.2c-0.3-0.2-0.4-0.3-0.7-0.3c-0.1,0-0.3,0-0.4,0.1C92,189.3,92.4,189.8,92.4,190.6z M96.3,194c-0.1,0.1-0.2,0.1-0.3,0.1   l-0.1,0c-0.2,0-0.3,0-0.5,0.1c-0.1,0-0.1,0-0.2,0c-0.6,0-0.8-0.5-0.9-1.3l-0.3-3.4l-0.4,0c-0.1,0-0.1,0-0.1,0   c-0.2,0-0.3-0.2-0.3-0.2c0-0.2,0.1-0.3,0.2-0.4c0.3-0.2,0.9-0.7,1-1.4c0.1-0.3,0.2-0.3,0.3-0.3h0c0.2,0,0.3,0.1,0.3,0.3l0.1,1.2   l0.7-0.1c0,0,0.1,0,0.1,0c0.2,0,0.3,0.2,0.3,0.2l0,0l0,0h0l0,0.4l-1,0.1l0.1,1.6c0.1,0.8,0.2,2.5,0.8,2.6h0c0.2,0,0.2,0.2,0.2,0.2   L96.3,194L96.3,194z M100.7,193.5c-0.2,0-0.5,0.1-0.7,0.1c-1.5,0-2.8-1-3.1-2.4c-0.2-0.8,0-1.5,0.4-2.2c0.5-0.7,1.3-1.3,2.1-1.4   c0.2,0,0.5-0.1,0.7-0.1c1.5,0,2.8,1,3.1,2.4C103.6,191.7,102.2,193.2,100.7,193.5z M110.5,190.3l-0.2,0.1c-0.2,0-0.4,0.1-0.6,0.2   c-0.1,0.1-0.3,0.1-0.4,0.2c-0.2,0.1-0.3,0.1-0.4,0.1c-0.1,0-0.1,0-0.2,0h-0.2l-0.1-0.2c-0.1-0.1,0.1-0.3,0.2-0.4   c0.2-0.2,0-0.8-0.2-1.3l-0.5-1.3c-0.5-1.3-1.1-1.7-2-1.4c-0.9,0.3-1.2,1.4-0.8,2.4l0.5,1.5c0.3,0.7,0.4,0.9,0.6,1l0.1,0   c0.1,0,0.2,0,0.3,0.2l0,0.1l0,0.1c0,0.1-0.1,0.1-0.2,0.1c-0.1,0-0.2,0.1-0.4,0.1c-0.1,0.1-0.3,0.1-0.4,0.2c-0.1,0-0.3,0.1-0.4,0.2   c-0.2,0.1-0.3,0.1-0.4,0.1c0,0-0.1,0-0.1,0h-0.2l-0.1-0.2c0-0.1,0-0.2,0.1-0.3c0,0,0-0.1,0.1-0.1c0-0.1,0.2-0.3-0.2-1.3l-0.8-2.1   c-0.2-0.7-0.4-0.7-0.4-0.7c-0.2,0-0.3-0.1-0.4-0.2c0-0.1,0-0.2,0.2-0.4l1.1-0.8l0.2,0.7c0.2-0.6,0.8-1.2,1.5-1.4   c0.4-0.1,0.7-0.2,1.1-0.2c0.9,0,1.6,0.5,2,1.4l0.7,1.9c0.4,1,0.4,1,0.6,1c0.2,0,0.3,0.1,0.4,0.2   C110.8,190.1,110.7,190.3,110.5,190.3z M118.5,185.8c-0.2,0.2-0.5,0.4-0.7,0.5c-0.1,0.1-0.2,0.1-0.3,0.2c-0.2,0.1-0.4,0.3-0.7,0.4   l-1,0.7c-0.2,0.2-0.4,0.3-0.5,0.4c-0.1,0-0.1,0.1-0.1,0.1c0,0-0.1,0.1-0.2,0.1h-0.1l-0.1-0.1c-0.1-0.1,0-0.2,0-0.3   c0.2-0.5,0.2-0.6-0.4-1.5l-1.9-2.9c-0.5-0.8-0.6-0.7-0.8-0.7l-0.1,0c0,0,0,0,0,0c-0.2,0-0.3-0.1-0.3-0.1c-0.2-0.3,0.1-0.4,0.3-0.5   l2.6-1.8c0.8-0.6,1.7-0.9,2.5-0.9c1.1,0,2.1,0.5,2.7,1.4C120.6,182.5,120.2,184.5,118.5,185.8z M123.4,182.2   c-0.1,0.1-0.3,0.2-0.5,0.2c-0.2,0-0.4-0.1-0.5-0.2c-0.1-0.1-0.2-0.3-0.2-0.5c0-0.2,0.1-0.4,0.2-0.5c0.3-0.3,0.8-0.2,1,0.1   c0.1,0.1,0.2,0.3,0.2,0.5C123.6,181.9,123.5,182.1,123.4,182.2z M129.5,174.6c-0.1,1-0.6,2-1.3,2.9c-0.9,1-2.2,1.6-3.3,1.6   c-0.8,0-1.6-0.3-2.2-0.8c-0.9-0.8-1.3-1.8-1.2-2.8c0-1,0.5-2,1.2-2.8c0.8-0.9,1.7-1.4,2.7-1.6l0.2,0l0.4,0.7   c0.2,0.3,0.3,0.5,0.1,0.6l-0.1,0.1l-0.1,0c-0.1,0-0.1,0-0.2-0.1c-0.2-0.1-0.5-0.2-0.8-0.2c-0.6,0-1.2,0.3-1.7,0.9   c-1.1,1.2-1,2.8,0.4,4c0.7,0.6,1.5,0.9,2.2,0.9c0.7,0,1.4-0.3,1.9-0.9c0.7-0.8,1-1.8,0.7-2.6c-0.1-0.1-0.1-0.3,0-0.4l0.1-0.1l0.1,0   c0.1,0,0.2,0,0.3,0.1l0.7,0.4L129.5,174.6z M132,172.4c-0.2,0.3-0.5,0.4-0.8,0.4c-0.2,0-0.4-0.1-0.5-0.2c-0.4-0.3-0.5-0.9-0.3-1.3   c0.3-0.4,0.9-0.5,1.3-0.2C132.2,171.5,132.3,172,132,172.4z M90.3,185.5c-22.9,0-41.5-18.6-41.5-41.5c0-22.9,18.6-41.5,41.5-41.5   c22.9,0,41.5,18.6,41.5,41.5C131.8,166.9,113.2,185.5,90.3,185.5z M129.2,110.1c-0.1-0.2,0-0.4,0.1-0.4l0.1,0l0.1,0   c0.1,0,0.2,0,0.3,0.1l1.4,1l-2.9,2.2c0,0,0,0,0,0c0.9,0,1.7,0.4,2.3,1.2c0.9,1.2,1.2,2.8-0.3,4l-2,1.5c-0.5,0.4-1.1,0.9-1,1.1   l0,0.1c0,0.1,0,0.3-0.1,0.4l-0.1,0l-0.1,0c-0.1,0-0.2-0.1-0.3-0.2c0,0-0.1-0.1-0.1-0.2c-0.1-0.2-0.3-0.4-0.5-0.6   c-0.1-0.2-0.3-0.4-0.4-0.5c-0.1-0.1-0.2-0.2-0.2-0.3c0,0-0.1-0.1-0.1-0.2l0-0.1l0.1-0.1c0.1-0.1,0.3,0,0.4,0c0,0,0.1,0,0.1,0   c0.2,0.1,0.5,0,0.9-0.3l2-1.5c0.8-0.6,1.2-1.1,1.3-1.7c0.1-0.4,0-0.8-0.4-1.3c-0.4-0.5-0.9-0.8-1.6-0.8c-0.6,0-1.2,0.2-1.7,0.6   l-1.6,1.2c-0.8,0.6-0.9,0.8-0.9,1.1l0,0.1c0,0.1,0,0.3-0.1,0.3l-0.1,0.1l-0.1,0c-0.1,0-0.2-0.1-0.2-0.2c-0.1-0.1-0.1-0.2-0.2-0.3   c-0.1-0.2-0.3-0.4-0.4-0.5c-0.1-0.2-0.3-0.4-0.4-0.5c-0.1-0.1-0.2-0.2-0.2-0.3c-0.1-0.1-0.1-0.2-0.1-0.3l0-0.1l0.2-0.1l0.1,0   c0.1,0,0.1,0,0.2,0.1c0,0,0.1,0,0.1,0.1c0.3,0.1,0.5,0,0.9-0.3l5.3-4C129.3,110.4,129.3,110.2,129.2,110.1z"></path>
	<path class="st0" d="M67.9,141.6c-0.2,0-0.2,0.2-0.2,0.4l0.4,1.2c0,0.1,0.2,0.2,0.4,0.2c0.2-0.1,0.2-0.2,0.2-0.4l-0.4-1.2   C68.2,141.7,68.1,141.6,67.9,141.6z"></path>
	<path class="st0" d="M63.3,146.5c0-0.2-0.1-0.3-0.3-0.3c-0.2,0-0.3,0.1-0.3,0.3l0,1.3c0,0.1,0.1,0.2,0.1,0.2   c-0.1,0-0.2,0.1-0.2,0.2l0,1.3c0,0.2,0.1,0.3,0.3,0.3c0.2,0,0.3-0.1,0.3-0.3l0-1.3c0-0.1-0.1-0.2-0.1-0.2c0.1,0,0.2-0.1,0.2-0.2   L63.3,146.5z"></path>
	<path class="st0" d="M63.3,144.5c0-0.2-0.1-0.3-0.3-0.3c-0.2,0-0.3,0.1-0.3,0.3l0,1.3c0,0.2,0.1,0.3,0.3,0.3c0.2,0,0.3-0.1,0.3-0.3   L63.3,144.5z"></path>
	<path class="st0" d="M63.2,150.4c0-0.2-0.1-0.3-0.3-0.3c-0.2,0-0.3,0.1-0.3,0.3l0,1.3c0,0.2,0.1,0.3,0.3,0.3c0.2,0,0.3-0.1,0.3-0.3   L63.2,150.4z"></path>
	<path class="st0" d="M63.4,142.4c0-0.2-0.1-0.3-0.3-0.3c-0.2,0-0.3,0.1-0.3,0.3l0,1.3c0,0.2,0.1,0.3,0.3,0.3c0.2,0,0.3-0.1,0.3-0.3   L63.4,142.4z"></path>
	<path class="st0" d="M63.1,153.7l0-1.3c0-0.2-0.1-0.3-0.3-0.3c-0.2,0-0.3,0.1-0.3,0.3l0,1.3c0,0.1,0.1,0.2,0.1,0.2   c-0.1,0-0.2,0.1-0.2,0.2l0,1.3c0,0.2,0.1,0.3,0.3,0.3c0.2,0,0.3-0.1,0.3-0.3l0-1.3c0-0.1-0.1-0.2-0.1-0.2   C63,153.9,63.1,153.9,63.1,153.7z"></path>
	<path class="st0" d="M62.9,137.5c0,0.2,0.1,0.3,0.3,0.3c0.2,0,0.3-0.1,0.3-0.3l0-1.3c0-0.2-0.1-0.3-0.3-0.3c-0.2,0-0.3,0.1-0.3,0.3   L62.9,137.5z"></path>
	<path class="st0" d="M62.9,135.4c0,0.2,0.1,0.3,0.3,0.3c0.2,0,0.3-0.1,0.3-0.3l0-1.3c0-0.2-0.1-0.3-0.3-0.3c-0.2,0-0.3,0.1-0.3,0.3   L62.9,135.4z"></path>
	<path class="st0" d="M63.4,140.4c0-0.2-0.1-0.3-0.3-0.3c-0.2,0-0.3,0.1-0.3,0.3l0,1.3c0,0.2,0.1,0.3,0.3,0.3c0.2,0,0.3-0.1,0.3-0.3   L63.4,140.4z"></path>
	<path class="st0" d="M62.8,139.5c0,0.2,0.1,0.3,0.3,0.3c0.2,0,0.3-0.1,0.3-0.3l0-1.3c0-0.2-0.1-0.3-0.3-0.3c-0.2,0-0.3,0.1-0.3,0.3   L62.8,139.5z"></path>
	<path class="st0" d="M61.5,133.7c0.2,0.1,0.3,0,0.4-0.2l0.4-1.2c0-0.1,0-0.3-0.2-0.4c-0.2-0.1-0.3,0-0.4,0.2l-0.4,1.2   C61.3,133.5,61.4,133.7,61.5,133.7z"></path>
	<path class="st0" d="M59.1,141.7c0.2,0,0.3,0,0.4-0.2l0.4-1.2c0-0.2,0-0.3-0.2-0.4c-0.2,0-0.3,0-0.4,0.2l-0.4,1.2   C58.8,141.4,58.9,141.6,59.1,141.7z"></path>
	<path class="st0" d="M58.5,143.6c0.2,0,0.3,0,0.4-0.2l0.4-1.2c0-0.1,0-0.3-0.2-0.4c-0.2,0-0.3,0-0.4,0.2l-0.4,1.2   C58.3,143.4,58.4,143.5,58.5,143.6z"></path>
	<path class="st0" d="M57.9,145.6c0.2,0.1,0.3,0,0.4-0.2l0.4-1.2c0-0.1,0-0.3-0.2-0.4c-0.2,0-0.3,0-0.4,0.2l-0.4,1.2   C57.7,145.4,57.7,145.5,57.9,145.6z"></path>
	<path class="st0" d="M56.7,149.2c0.2,0.1,0.3,0,0.4-0.2l0.4-1.2c0-0.1,0-0.2-0.1-0.3c0.1,0,0.2-0.1,0.3-0.2l0.4-1.2   c0-0.2,0-0.3-0.2-0.4c-0.2-0.1-0.3,0-0.4,0.2l-0.4,1.2c0,0.1,0,0.2,0.1,0.3c-0.1,0-0.2,0.1-0.3,0.2l-0.4,1.2   C56.5,149,56.6,149.1,56.7,149.2z"></path>
	<path class="st0" d="M63.3,131.6c0.2,0,0.3-0.1,0.3-0.3l0-1.3c0-0.2-0.1-0.3-0.3-0.3c-0.2,0-0.3,0.1-0.3,0.3l0,1.3   C63,131.4,63.1,131.6,63.3,131.6z"></path>
	<path class="st0" d="M60.9,135.7c0.2,0.1,0.3,0,0.4-0.2l0.4-1.2c0-0.1,0-0.3-0.2-0.4c-0.2,0-0.3,0-0.4,0.2l-0.4,1.2   C60.7,135.5,60.8,135.6,60.9,135.7z"></path>
	<path class="st0" d="M62.6,130c-0.2,0-0.3,0-0.4,0.2l-0.4,1.2c0,0.2,0,0.3,0.2,0.4c0.2,0,0.3,0,0.4-0.2l0.4-1.2   C62.9,130.2,62.8,130,62.6,130z"></path>
	<path class="st0" d="M59.7,139.6c0.2,0,0.3,0,0.4-0.2l0.4-1.2c0-0.2,0-0.3-0.2-0.4c-0.2-0.1-0.3,0-0.4,0.2l-0.4,1.2   C59.4,139.4,59.5,139.6,59.7,139.6z"></path>
	<path class="st0" d="M60.3,137.7c0.2,0,0.3,0,0.4-0.2l0.4-1.2c0-0.1,0-0.3-0.2-0.4c-0.2,0-0.3,0-0.4,0.2l-0.4,1.2   C60.1,137.5,60.2,137.6,60.3,137.7z"></path>
	<path class="st0" d="M118.2,132.3l0.4,1.2c0,0.2,0.2,0.2,0.4,0.2c0.2,0,0.2-0.2,0.2-0.4l-0.4-1.2c0-0.2-0.2-0.2-0.4-0.2   C118.2,131.9,118.1,132.1,118.2,132.3z"></path>
	<path class="st0" d="M65.4,133.7c-0.2,0.1-0.2,0.2-0.2,0.4l0.4,1.2c0,0.2,0.2,0.2,0.4,0.2c0.2,0,0.2-0.2,0.2-0.4l-0.4-1.2   C65.7,133.8,65.5,133.7,65.4,133.7z"></path>
	<path class="st0" d="M111,147l0.4-1.2c0.1-0.2,0-0.3-0.2-0.4c-0.2,0-0.3,0-0.4,0.2l-0.4,1.2c0,0.1,0,0.2,0.1,0.3   c-0.1,0-0.2,0.1-0.2,0.2l-0.4,1.2c0,0.2,0,0.3,0.2,0.4c0.2,0,0.3,0,0.4-0.2l0.4-1.2c0-0.1,0-0.2-0.1-0.3   C110.9,147.2,110.9,147.1,111,147z"></path>
	<path class="st0" d="M117.7,129.9c-0.2,0-0.2,0.2-0.2,0.4l0.4,1.2c0,0.2,0.2,0.2,0.4,0.2c0.2,0,0.2-0.2,0.2-0.4l-0.4-1.2   C118.1,129.9,117.9,129.8,117.7,129.9z"></path>
	<path class="st0" d="M117.3,155.4c0,0.2,0.1,0.3,0.3,0.3c0.2,0,0.3-0.1,0.3-0.3l0-1.3c0-0.1-0.1-0.2-0.2-0.2   c0.1-0.1,0.1-0.1,0.1-0.2l0-1.3c0-0.2-0.1-0.3-0.3-0.3c-0.2,0-0.3,0.1-0.3,0.3l0,1.3c0,0.1,0.1,0.2,0.2,0.2   c-0.1,0.1-0.1,0.1-0.1,0.2L117.3,155.4z"></path>
	<path class="st0" d="M114.3,181l-1.2,0.8l2.4,3.5c0.4,0.7,0.7,1,1,1c0.1,0,0.1,0,0.2-0.1c0.4-0.2,0.6-0.4,0.8-0.5   c0.2-0.1,0.4-0.3,0.6-0.4c1.2-1,1.3-2.1,0.2-3.7C117.1,180,116,179.8,114.3,181z"></path>
	<path class="st0" d="M117.8,125.2c-0.8-0.7-2.7-0.8-4.1-0.3c-1.2,0.4-3.5,1.5-5.7,1.4c-2.2-0.1-3.6-1.5-4.3-2.2   c-0.7-0.7-2.2-2-3.5-2.7c-1.2-0.7-3.1-1.3-4.4-1.4c-1.7-0.1-3.5,0.4-3.5,0.4l-0.1-1.8l-0.6,0l0.6-1.1c0,0-0.2-0.1-0.6-0.3   c-0.4-0.2-0.7-0.6-0.7-0.6v-0.7c1.1-0.3,1.8-1.3,1.8-2.4c0-1.4-1.1-2.5-2.5-2.5c-1.4,0-2.5,1.1-2.5,2.5c0,1.2,0.8,2.2,1.9,2.5v0.7   c0,0-0.4,0.4-0.7,0.6c-0.4,0.2-0.6,0.3-0.6,0.3l0.6,1.1l-0.6,0l-0.1,1.8c0,0-1.8-0.5-3.5-0.4c-1.2,0.1-3.1,0.6-4.4,1.4   c-1.2,0.7-2.8,2.1-3.5,2.7c-0.7,0.7-2.1,2.1-4.3,2.2c-2.2,0.1-4.5-1-5.7-1.4c-1.5-0.5-3.3-0.5-4.1,0.3c-0.6,0.5-0.6,1.3-0.4,1.8   c0.2,0.5,0.6,0.8,1.1,0.7c0.5,0,1-0.3,1-0.3l-0.5-0.5c0,0-0.2,0.2-0.6,0.1c-0.4-0.1-0.5-0.6-0.4-1c0.2-0.5,1.2-0.7,2.6-0.4   c1.7,0.4,4,2.5,6.4,2.6c2.3,0.1,4.1-0.9,5.5-1.7c1-0.6,2.4-1.8,3.2-2.2c1-0.5,2.6-1.3,4.5-1.3c2.2,0,3.1,0.4,3.1,0.4l0,2.1l0.6,0.1   l0,0.5l-0.8,0.5l0,0.3l0.5,0.2l0,32.3c0,0-1.1,1.5-1.5,2.1c-0.3,0.5-1,1.4-1.1,2.4c-0.1,1,0,2.3,0,2.3l-0.8,0.1l-0.4,0.7   c0,0-1.2,0.3-1.8,0.6c-0.6,0.2-1.2,0.5-1.4,0.6c-0.2,0.1-0.2,0.5-0.2,0.5s0.1,0.1,0.4,0.1c0.3,0.1,0.5,0.1,0.5,0.1v0.3   c0,0-0.6,0.4-0.9,0.5c-0.3,0.1-0.7,0.3-1.1,0.3c-0.4,0-1.4,0.2-1.6,0.3c-0.2,0.1-0.8,0.5-1.1,1c-0.4,0.5-0.5,0.6-0.5,1.1   c0,0.5,0.1,0.6,0.1,0.6s1.3,0.5,3.9,0.6c2.6,0.1,9.2,0.2,9.2,0.2h0.1c0,0,6.6-0.2,9.2-0.2c2.6-0.1,3.9-0.6,3.9-0.6s0.1-0.1,0.1-0.6   c0-0.5-0.2-0.6-0.5-1.1c-0.4-0.5-0.9-0.9-1.1-1c-0.2-0.1-1.2-0.3-1.6-0.3c-0.4,0-0.7-0.2-1.1-0.3c-0.3-0.1-0.9-0.5-0.9-0.5v-0.3   c0,0,0.3,0,0.5-0.1c0.3-0.1,0.4-0.1,0.4-0.1s0-0.4-0.2-0.5c-0.2-0.1-0.8-0.3-1.4-0.6c-0.6-0.2-1.7-0.6-1.7-0.6l-0.4-0.7l-0.8-0.1   c0,0,0.1-1.3,0-2.3c-0.1-1-0.7-1.8-1.1-2.4c-0.3-0.5-1.5-2.1-1.5-2.1l0-32.3l0.4-0.2l0-0.3l-0.8-0.5l0-0.5l0.6-0.1l0-2.1   c0,0,0.9-0.4,3.1-0.4c2,0,3.5,0.7,4.5,1.3c0.7,0.4,2.1,1.6,3.2,2.2c1.4,0.8,3.1,1.8,5.5,1.7c2.5-0.1,4.7-2.3,6.4-2.6   c1.4-0.3,2.4-0.1,2.6,0.4c0.2,0.4,0,0.9-0.4,1c-0.4,0.1-0.6-0.1-0.6-0.1l-0.5,0.5c0,0,0.4,0.3,1,0.3c0.5,0,0.9-0.2,1.1-0.7   C118.4,126.5,118.4,125.7,117.8,125.2z"></path>
	<path class="st0" d="M63,133.4c0,0.2,0.1,0.3,0.3,0.3c0.2,0,0.3-0.1,0.3-0.3l0-1.3c0-0.2-0.1-0.3-0.3-0.3c-0.2,0-0.3,0.1-0.3,0.3   L63,133.4z"></path>
	<path class="st0" d="M64.7,131.8c-0.2,0-0.2,0.2-0.2,0.4l0.4,1.2c0,0.1,0.2,0.2,0.4,0.2c0.2,0,0.2-0.2,0.2-0.4l-0.4-1.2   C65.1,131.9,64.9,131.8,64.7,131.8z"></path>
	<path class="st0" d="M64.1,129.8c-0.2,0-0.2,0.2-0.2,0.4l0.4,1.2c0,0.1,0.2,0.2,0.4,0.2c0.2,0,0.2-0.2,0.2-0.4l-0.4-1.2   C64.4,129.9,64.2,129.8,64.1,129.8z"></path>
	<path class="st0" d="M117.1,133.6c0.2,0,0.3-0.1,0.3-0.3l0-1.3c0-0.2-0.1-0.3-0.3-0.3c-0.2,0-0.3,0.1-0.3,0.3l0,1.3   C116.8,133.5,117,133.6,117.1,133.6z"></path>
	<path class="st0" d="M117.3,147.9c-0.1,0.1-0.1,0.1-0.1,0.2l0,1.3c0,0.2,0.1,0.3,0.3,0.3c0.2,0,0.3-0.1,0.3-0.3l0-1.3   c0-0.1-0.1-0.2-0.2-0.2c0.1-0.1,0.1-0.1,0.1-0.2l0-1.3c0-0.2-0.1-0.3-0.3-0.3c-0.2,0-0.3,0.1-0.3,0.3l0,1.3   C117.1,147.8,117.2,147.9,117.3,147.9z"></path>
	<path class="st0" d="M117.4,146c0.2,0,0.3-0.1,0.3-0.3l0-1.3c0-0.2-0.1-0.3-0.3-0.3c-0.2,0-0.3,0.1-0.3,0.3l0,1.3   C117.1,145.9,117.2,146,117.4,146z"></path>
	<path class="st0" d="M117.5,151.9c0.2,0,0.3-0.1,0.3-0.3l0-1.3c0-0.2-0.1-0.3-0.3-0.3c-0.2,0-0.3,0.1-0.3,0.3l0,1.3   C117.2,151.8,117.3,151.9,117.5,151.9z"></path>
	<path class="st0" d="M117.3,143.9c0.2,0,0.3-0.1,0.3-0.3l0-1.3c0-0.2-0.1-0.3-0.3-0.3c-0.2,0-0.3,0.1-0.3,0.3l0,1.3   C117,143.8,117.2,143.9,117.3,143.9z"></path>
	<path class="st0" d="M117.3,141.9c0.2,0,0.3-0.1,0.3-0.3l0-1.3c0-0.2-0.1-0.3-0.3-0.3c-0.2,0-0.3,0.1-0.3,0.3l0,1.3   C117,141.8,117.2,141.9,117.3,141.9z"></path>
	<path class="st0" d="M117.2,137.7c0.2,0,0.3-0.1,0.3-0.3l0-1.3c0-0.2-0.1-0.3-0.3-0.3c-0.2,0-0.3,0.1-0.3,0.3l0,1.3   C116.9,137.6,117,137.7,117.2,137.7z"></path>
	<path class="st0" d="M117.2,135.6c0.2,0,0.3-0.1,0.3-0.3l0-1.3c0-0.2-0.1-0.3-0.3-0.3c-0.2,0-0.3,0.1-0.3,0.3l0,1.3   C116.9,135.5,117,135.6,117.2,135.6z"></path>
	<path class="st0" d="M117.4,131.2l0-1.3c0-0.2-0.1-0.3-0.3-0.3c-0.2,0-0.3,0.1-0.3,0.3l0,1.3c0,0.2,0.1,0.3,0.3,0.3   C117.2,131.5,117.4,131.4,117.4,131.2z"></path>
	<path class="st0" d="M117.3,139.8c0.2,0,0.3-0.1,0.3-0.3l0-1.3c0-0.2-0.1-0.3-0.3-0.3c-0.2,0-0.3,0.1-0.3,0.3l0,1.3   C117,139.6,117.1,139.8,117.3,139.8z"></path>
</g>
</svg>
