<?xml version="1.0" encoding="UTF-8"?>
<!-- Generator: Adobe Illustrator 24.1.0, SVG Export Plug-In . SVG Version: 6.00 Build 0)  -->
<svg xmlns="http://www.w3.org/2000/svg" xmlns:xlink="http://www.w3.org/1999/xlink" version="1.1" id="Layer_1" x="0px" y="0px" viewBox="0 0 1024 1024" style="enable-background:new 0 0 1024 1024;" xml:space="preserve">
<style type="text/css">
	.st0{fill:#FFFFFF;}
</style>
<path class="st0" d="M512.4,34C248.2,34,34,248.2,34,512.4c0,264.2,214.2,478.4,478.4,478.4c264.2,0,478.4-214.2,478.4-478.4  C990.8,248.2,776.6,34,512.4,34z M885.1,236l-25.5,44.4l50.8-6.5l-29.7,41.7l51.2-1.5l-33.7,38.6l51.1,3.5L912,391.2l50.5,8.4  l-40.5,31.3l49.4,13.4L928,471.5l47.9,18.1L930,512.4l45.8,22.8L928,553.4l43.4,27.1l-49.4,13.4l40.5,31.3l-50.5,8.5l37.2,35.1  l-51.1,3.5l33.7,38.5l-51.2-1.5l29.7,41.6l-50.8-6.5l25.5,44.4l-49.9-11.5l21,46.7l-48.5-16.3l16.3,48.5l-46.7-21l11.5,49.9  l-44.4-25.5l6.6,50.8l-41.7-29.7l1.5,51.1l-38.6-33.6l-3.5,51.1L633.6,912l-8.5,50.4l-31.3-40.5l-13.4,49.4L553.3,928l-18.2,47.8  L512.4,930l-22.8,45.8L471.5,928l-27.2,43.4l-13.4-49.4l-31.3,40.5l-8.5-50.4l-35.1,37.2l-3.5-51.1L314,931.8l1.5-51.1l-41.7,29.7  l6.6-50.8L236,885.1l11.5-49.9l-46.7,21l16.3-48.5L168.6,824l21-46.7l-49.9,11.5l25.5-44.4l-50.8,6.5l29.7-41.6L93,710.8l33.6-38.5  l-51.1-3.5l37.3-35.1l-50.5-8.5l40.5-31.3l-49.4-13.4l43.4-27.1L49,535.2l45.9-22.8L49,489.7l47.8-18.1l-43.4-27.2l49.4-13.4  l-40.5-31.3l50.5-8.4l-37.3-35.1l51.1-3.5L93,314l51.2,1.5l-29.7-41.7l50.8,6.5L139.7,236l49.9,11.5l-21-46.7l48.5,16.3l-16.3-48.5  l46.7,21L236,139.8l44.4,25.5l-6.6-50.8l41.7,29.7L314,93l38.6,33.6l3.5-51.1l35.1,37.3l8.5-50.5l31.3,40.5l13.4-49.4l27.2,43.4  L489.6,49l22.8,45.9L535.2,49l18.2,47.9l27.2-43.4l13.4,49.4l31.3-40.5l8.5,50.5l35.1-37.3l3.5,51.1L710.8,93l-1.5,51.1l41.7-29.7  l-6.6,50.8l44.4-25.5l-11.5,49.9l46.7-21l-16.3,48.5l48.5-16.3l-21,46.7L885.1,236z"></path>
<path class="st0" d="M586.2,846.6c-1.1,0-2.2,0.1-3.4,0.3c-3.9,0.8-6.7,2.6-8.5,5.3c-2.9,4.4-2.4,10.5-1.5,14.8  c1.4,6.8,4.8,14.9,13.6,14.9c1.1,0,2.3-0.1,3.5-0.4c3.9-0.8,6.7-2.5,8.5-5.2c2.9-4.4,2.4-10.5,1.5-14.8  C598.5,854.7,595,846.6,586.2,846.6z"></path>
<path class="st0" d="M491.6,895.8c-0.1,5.4,9,7.4,13.4,7.4l0.9,0c9.7,0,16.1-2.8,16.1-7c0-4-6.6-6.6-17.9-6.7h-1.1  C492.9,889.5,491.7,893.1,491.6,895.8z"></path>
<path class="st0" d="M507.1,853.4l-0.2-1.5l0,0v1.5c-6.9,0-10.7,3.8-10.8,10.9c-0.1,8.8,6,10.8,11.2,10.9c7.4,0,10.8-3.5,10.9-10.9  C518.2,857.1,514.6,853.6,507.1,853.4z"></path>
<path class="st0" d="M293.8,797.3c-2.7,0-5,1.2-6.8,3.6c-1.5,1.9-2.1,4-1.8,6c0.4,2.5,1.9,4.9,4.5,6.8c2.4,1.8,4.6,2.7,6.8,2.7  c5.1,0,9.4-4.9,12.7-9.3l1.1-1.4l-3.3-2.4C301.8,799.2,297.4,797.3,293.8,797.3z"></path>
<path class="st0" d="M694,792.1l-9.4,6.3l17.8,26.5c3.4,5,5.6,7.3,7.2,7.3c0.4,0,0.9-0.1,1.4-0.4c3-1.6,4.8-2.7,6.1-3.6  c1.5-1,3.1-2.2,4.6-3.3c9.2-7.4,9.6-15.7,1.5-27.8C714.8,784.7,707,783.4,694,792.1z"></path>
<path class="st0" d="M459.4,178.6c0.7,6.1,5.1,9.7,11.7,9.7c0.7,0,1.5,0,2.2-0.1c5.9-0.7,9.6-3.2,11.4-7.7  c1.8-4.6,1.4-10.7,0.9-15.5l-0.3-2.6l-5.4,0.6C465.1,164.8,458.4,169.9,459.4,178.6z"></path>
<path class="st0" d="M512.4,105.3c-224.9,0-407.1,182.2-407.1,407.1c0,224.9,182.3,407.1,407.1,407.1  c224.9,0,407.1-182.3,407.1-407.1C919.5,287.6,737.3,105.3,512.4,105.3z M772.7,238.1c7.5,7.5,12.3,16.2,12.5,20.1l0.1,1l-8.1,4.9  c-0.5,0.2-1,0.5-1.6,0.5h-0.6l-0.7-0.5c-1.2-1.1-0.6-2.7,0.5-6.1c2.5-5.4-2.5-12.4-5.8-15.7c-3.4-3.1-7-4.7-10.8-4.7  c-6.9,0-13.3,5.3-17.4,9.7c-4.1,4.4-6.7,9.5-7.2,14.3c-0.6,5.3,1.3,10.1,5.5,14c3.7,3.5,8.5,5.3,14.2,5.3c3.4,0,6.1-0.6,7-0.8  c0.3-0.1,0.9-0.3,1.3-0.3c0.9,0,1.4,0.4,1.7,0.7c1.2,1,0.3,2.9-0.3,3.6c-0.5,0.6-1.1,0.9-1.9,1.1c-3,0.7-5.9,1.1-8.5,1.1  c-7,0-13.2-2.5-18.7-7.6c-11.8-11-12.8-28.5-2.3-39.9c5.6-6,12.8-9.3,20.4-9.3C759.3,229.4,766.6,232.5,772.7,238.1z M717.1,203.6  c0.6-0.9,1.8-0.9,2.1-0.9c0.3,0,0.8,0.1,1.4,0.1c1.2,0.2,2.3,0.3,3.5,0.3c3.4,0,8.3-0.8,12.5-4.3c0.7-0.6,1.5-1,2.3-1h0.5l0.8,0.5  c0.5,0.3,0.7,0.9,0.8,1.2c0.2,0.9-0.4,1.7-0.8,2.3l-6.8,9.4l5.5,4c0.7,0.5,1.5,1.1,1.6,2l0.1,0.7l-0.8,1.1l-2.2,2.2l-7.4-5.3  l-8.9,12.4c-6.8,9.6-13.4,19.9-10.1,23.8c1.3,1.3,0.6,2.4,0.3,2.8l-0.5,0.6l-1,0.1c-0.7,0-1.3-0.4-2.3-1.1c-1.7-1-3.3-2.2-5-3.3  c-2-1.4-3.9-3-4-5.7c-0.1-2.3,1.2-5,4.3-9.4l18.7-26.2l-3.2-2.3c-1.1-0.8-1.8-1.3-2-2.3l-0.1-0.7L717.1,203.6z M704.7,193.8  c1.4,4.5,0.6,9.5-2.2,14.9l-8.6,16.1c-4.2,7.8-4,10.8-3.5,11.3c0.8,1,1,2,0.6,2.9c-0.5,0.8-1.2,1.2-2.1,1.2c-0.4,0-0.8-0.1-1.2-0.3  c-0.2-0.1-0.6-0.3-1-0.6c-0.7-0.5-1.7-1-2.2-1.3c-0.5-0.3-1-0.5-1.4-0.7c-0.7-0.3-1.3-0.6-1.8-0.9c-0.7-0.4-1.2-1-1.5-1.7  c-0.2-0.6-0.1-1.2,0.2-1.7c0.5-1,1-2.7,1.4-4.4c0-0.1,0-0.2,0.1-0.2c-6.5,3.1-13.4,2.5-21.3-1.8c-6.1-3.3-10.9-8.6-12.6-14.1  c-1.2-3.8-0.8-7.8,1.1-11.3c2.8-5.1,7.6-7.7,14.3-7.7c9.1,0,19.4,4.8,24.7,7.6l5,2.7c4.8-9.7,3.3-15.1-5.1-19.6  c-2.5-1.3-6.7-2.7-11.1-2.7c-2.7,0-6.4,0.6-8.4,3.4l-0.5,0.7l-1.1,0.2c-0.4,0-0.7-0.1-1-0.3c-1.1-0.6-1.1-1.6-1-2.2l2.3-10.7  l1.4,0.1c7.6,0.6,15.5,2.9,21.9,6.3C698.2,183.3,703,188.1,704.7,193.8z M573.1,128.4c0.2-0.8,0.9-1.6,2.2-1.6  c0.7,0,1.4,0.2,2.1,0.4l13.3,3.9c2,0.6,2.9,1.1,3.3,1.9l0.3,0.6l-0.2,1c-0.3,1.2-1.7,1.4-2.5,1.4c-0.3,0-0.7,0.1-0.8,0.1  c-0.7,0.2-1.2,0.5-1.6,1.8c-0.6,2-0.6,6,0.1,11l4.1,30.5l27.4-37.5c1.4-2,2-2.8,3.2-2.8l0.5,0.1c1.6,0.4,1.7,1.8,1.8,4.1l0.1,1.1  l3.6,45.3l18.3-24.3c2.3-3,3.4-5.3,4.2-8.5c0.3-1.2-0.3-2.6-1.1-3.2c-0.3-0.2-0.5-0.4-0.7-0.5c-0.6-0.5-1.8-1.3-1.4-2.7  c0.3-0.9,1.3-2,3.6-1.3c0.5,0.1,1.4,0.5,2.4,0.8c1.4,0.5,3,1.1,4.2,1.5c1.1,0.3,2.2,0.5,3.3,0.7c1.2,0.2,2.4,0.4,3.5,0.8  c2.3,0.7,2.6,1.9,2.4,2.7c-0.4,1.2-1.5,1.9-3.3,2.5c-1.8,0.5-6.8,3.6-13.2,12.2L625,206.5c-1.5,2.1-2.3,3.1-3.4,3.1l-0.5-0.1  c-1.6-0.5-1.8-2.1-1.9-5.2l-3.1-45.9l-27,37.2c-2,3-2.7,3.5-3.7,3.5l-0.5-0.1c-1.6-0.6-1.8-2-1.9-5.2l-5.5-52  c-0.5-5.2-1.3-8.2-2.6-10c-0.3-0.5-0.6-0.8-0.8-1C573.4,130.2,572.8,129.5,573.1,128.4z M507.7,185.4l0.8-0.3c3-1.3,3-13.7,3-18.3  l0.2-34.1c0-7.4-0.8-8.2-2.2-8.7c-1.8-0.6-2.1-1.6-2-2.3c0.1-0.6,0.4-1.5,2-2l12.7-3l-0.3,57.8c0,6.6,0.8,10.3,2.5,11  c1.2,0.5,3.1,1.1,3,2.8l0,0.6l-0.5,0.5c-0.2,0.2-0.7,0.8-2.8,0.8h-0.1c-0.7,0-1.8-0.1-3.2-0.1c-1.3-0.1-2.9-0.1-4.2-0.1  c-1.4,0-3,0-4.4,0.1c-1.3,0-2.4,0.1-3.2,0.1c-1.9,0-4.1,0-4.1-2C504.9,186.5,506.3,185.9,507.7,185.4z M446.7,145.3  c8.8-5.2,17.3-6.8,21.5-7.3c16.5-1.9,25.6,3.9,27.2,17.3l2.1,18.1c1,8.8,2.9,11.1,3.6,11.3c1.7,0.4,2.1,1.5,2.1,2  c0.1,1.4-0.8,2.5-2.2,2.7l-0.9,0c-0.8,0.1-2.1,0.1-2.9,0.2c-0.6,0.1-1.2,0.2-1.8,0.3c-0.6,0.1-1.2,0.2-1.7,0.3h-0.1  c-1.8,0-2.9-0.9-3-2.2c-0.1-1.1-0.7-2.8-1.4-4.6c0,0,0,0,0-0.1c-3.5,6.1-9.6,9.7-18.5,10.7c-1.1,0.1-2.2,0.2-3.3,0.2  c-9.4,0-19.4-4.5-20.6-14.6c-2-17,24-21.5,32-22.4l5.6-0.6c-1.6-10.8-5.9-14.3-15.3-13.2c-6.4,0.7-15.6,5.3-15.6,11.7  c0.1,0.7-0.3,1.7-1.7,2.1l-0.4,0c-0.6,0-1.4-0.2-1.9-1.3l-4.2-10.1L446.7,145.3z M438.2,179.5c3.2,13.2,6.2,13.5,6.2,13.5h0.6  c1.9,0,2.5,0.9,2.6,1.7l0.1,0.6l-0.3,0.7c-0.4,0.8-1.4,1.1-2.1,1.3c-0.6,0.2-1.8,0.4-3,0.7c-1.5,0.3-3.2,0.7-4.7,1.1  c-3.6,0.8-5.5,1.4-6.7,1.8l-1,0.3c-0.3,0.1-0.6,0.1-0.9,0.1c-1,0-1.7-0.6-2-1.6c-0.4-1.5,0.8-2.4,1.9-3.1c1.9-1.6,1.6-4.3-0.3-12.4  l-6.6-27.2c-0.1-0.4-0.1-0.5-1.5-0.8c-0.4-0.1-0.8-0.1-1.1-0.3c-0.5-0.1-1.8-0.2-2.1-1.6c-0.2-1,0.2-1.8,1.3-2.4l11.4-6.2  L438.2,179.5z M417.4,134.2c0.9-1.4,2.2-2.4,3.8-2.8c2.4-0.6,6.5,0.7,7.4,4.6c0.9,3.8-1.7,6.8-4.5,7.5c-0.4,0.1-0.9,0.2-1.4,0.2  c-2.4,0-5.2-1.5-6-4.8C416.2,137.3,416.5,135.6,417.4,134.2z M366.7,173.7c3.2-7,9.4-12.6,17.5-15.6c5.8-1.9,12.1-3,17.3-3  c1.9,0,4.6,0.2,6.2,0.9l0.9,0.4l0.7,9.5c0.2,1.8-0.8,2.5-1.4,2.7l-0.7,0.1c-1.1,0-2-0.7-4.5-3.3c-2.2-2.7-5.8-3.3-8.4-3.3  c-2.6,0-5.6,0.5-8.3,1.4c-5.6,2.1-9.1,5.8-10.2,10.9c-1,4.5-0.3,10.1,2.1,16.5c3.6,9.5,10.5,15.4,18.2,15.4c2.1,0,4.2-0.4,6.4-1.2  c9-3.4,12.3-12.1,13.4-17c0.2-1.4,0.8-2.3,1.8-2.5l0.5-0.1c1.5,0,2.4,1.7,2.6,2.1c0.2,0.6,0.3,1.2,0.1,2c-2.6,11-8.3,17.8-18.1,21.5  c-3.5,1.3-7.2,2-10.8,2c-11.8,0-21.8-6.8-25.9-17.8C363.6,187.8,363.7,180.4,366.7,173.7z M361.4,207c5.9,11.3,8.9,11.6,9.2,11.6  c1.6-0.5,2.9-0.4,3.6,0.8l0.3,0.6l-0.1,0.7c-0.1,0.3-0.2,1-1.7,1.8c-0.7,0.4-1.9,1-3.2,1.6c-1.3,0.6-2.7,1.3-4,1.9  c-3.5,1.8-5.2,2.8-6.2,3.4l-0.7,0.4c-0.5,0.2-0.9,0.4-1.4,0.4h-1l-0.7-1c-0.7-1.5,0.3-2.7,1.1-3.6c1.4-1.9,0.5-4.4-3.4-11.9  l-13-24.9c-0.1-0.3-0.2-0.4-1-0.4l-1.4,0h-0.4c-1.3,0.2-2.2-0.5-2.4-0.9c-0.5-1.5,0.3-2.4,0.6-2.7l9.7-8.8L361.4,207z M330.3,168  c0.5-1.6,1.6-2.9,3-3.7c2.9-1.5,6.8-0.3,8.4,2.7c0.8,1.5,0.9,3.2,0.4,4.8c-0.5,1.6-1.6,2.9-3,3.6c-0.8,0.4-1.8,0.7-2.8,0.7  c-2.4,0-4.5-1.3-5.6-3.4C330,171.2,329.8,169.5,330.3,168z M297.6,203.4c5.5-3.8,11.8-4.6,16.1-4.6c0.6,0,1.3,0,1.9,0.1l-5.6-8  c-2.3-3.3-4.4-5.1-5.9-4.6c-1,0.4-1.6,0.5-2,0.5h-1l-0.7-0.9c-0.8-1.2,0.1-2.4,0.4-2.8l8.8-10.9l29,41.5c2.3,3.3,9.3,13.2,12.5,13.2  c1.6,0,2.6,0.2,3.2,1.1l0.3,0.5l0,1c-0.1,0.7-0.5,1.2-1.2,1.7c-0.7,0.5-1.5,0.9-2.3,1.3c-0.5,0.3-1,0.5-1.5,0.9  c-0.6,0.4-1.1,0.9-1.6,1.4c-0.5,0.5-1.1,1-1.7,1.4l-1.1,0.8l-6.1-5.7c-0.4,8-3.9,14.4-10.4,19c-5.2,3.6-11.1,5.5-16.9,5.5  c-8.8,0-16.8-4.3-22-11.8C280.1,229.9,283.4,213.3,297.6,203.4z M229,270.5l6.6-11.7l24.5,24c2.5,2.5,6.5,5.5,11.1,5.5  c3.2,0,6.3-1.5,9.1-4.4c8-8.2,2.3-19.6-5.9-27.6l-6.7-6.6c-3.4-3.3-5.2-4.6-6.5-4.6c-0.3,0-0.7,0.1-1.1,0.2c-1,0.6-2.6,0.9-3.5,0  c-1-1.2-0.3-2.4,0.1-2.9l6.5-11.7l24.5,24c9.7,9.5,12.8,8.5,13.5,8.5l0.5,0c0.6,0,1.1,0.2,1.5,0.6c1.4,1.4-0.2,3.1-0.8,3.7l-5.8,5.9  l-7.2-3.9c1.3,8.3-0.9,14.2-7.3,20.7c-4.6,4.7-9.9,7.2-15.3,7.2c-4.9,0-9.5-2-13.4-5.9l-15.5-15.2c-2.6-2.6-3.7-3.1-4.3-3.1  c-0.1,0-0.3,0-0.7,0.3c-1.6,1-3,1.3-4,0.3C228.4,273.3,227.8,272.3,229,270.5z M200.1,284.8c0.3-0.4,0.6-0.8,1.1-1.4  c0.8-0.9,1.9-2.1,3.2-3.9c0.6-0.8,1.1-1.7,1.6-2.6c0.7-1.1,1.4-2.3,2.3-3.5c0.3-0.4,1-1.4,2.2-1.4h0.5l0.6,0.4c1,0.8,0.9,2,0.8,2.5  c-0.3,2.3,0.3,3.5,2.4,5.1l26.7,19.3c11.7,8.5,14,23.2,5.4,35c-2.3,3.1-4.8,5.3-7.4,6.6l-1.2,0.6l-6-7.8c-1.3-1.4-0.8-2.5-0.5-2.9  c0.5-0.8,1.2-0.9,1.7-0.9l0.9,0.2c4.1,1.5,7.5,0.5,10.3-3.3c1.1-1.6,1.6-3.3,1.3-5.1c-1-5.7-8.8-11.3-11.4-13.1l-26.6-19.3  c-2.1-1.5-3.2-1.6-5.6-0.6c-0.7,0.2-1,0.3-1.4,0.3h-0.5l-0.6-0.3c-0.5-0.3-0.8-0.8-0.9-1.3C199,286.5,199.4,285.7,200.1,284.8z   M252.1,788.5h-0.7l-0.6-0.6c-1-1.3-0.4-2.5,0.8-4.7l16.2-32.2l-33.1,14.4c-2.1,1-2.8,1.2-3.3,1.2h-0.6l-0.6-0.4  c-1.2-1.3-0.6-2.6,0.6-4.9l17.4-38.2c1.8-3.8,2.4-6.1,2.2-7.9c0-0.4-0.1-0.8-0.2-1.1c-0.1-0.7-0.3-1.7,0.6-2.4l0.5-0.4l0.8-0.1  c1,0,1.8,0.7,2.5,1.6l7.6,8.1c0.8,0.8,2.6,2.7,1,4.2l-0.5,0.5l-0.8,0.1c-0.6,0-1-0.2-1.5-0.5c-0.2-0.1-0.5-0.2-0.6-0.3  c-0.2,0-0.3-0.6-1.5,0.5c-1.2,1.2-2.8,3.8-4.4,7.6l-9.3,22l33.5-14.4c1.3-0.6,2-0.9,2.7-0.9h0.7l0.7,0.5c1.1,1.2,0.5,2.3-0.3,3.9  L266,777l21.8-9c2.7-1.1,4.4-2.3,6.3-4.1c0.6-0.6,0.7-1.7,0.5-2.3c-0.1-0.2-0.2-0.4-0.2-0.6c-0.3-0.6-0.8-1.8,0.2-2.8l0.5-0.4  l0.9-0.1c1,0,1.7,0.6,2.1,1.1c0.3,0.3,0.8,0.9,1.4,1.6c0.7,0.9,1.5,1.9,2.2,2.6c0.6,0.6,1.2,1.2,1.8,1.7c0.8,0.7,1.5,1.4,2.2,2.2  c1.7,1.7,0.8,3,0.5,3.3c-1,0.9-2.8,0.6-3.5,0.5c-0.3-0.1-0.8-0.2-1.7-0.2c-1.4,0-5.5,0.3-12.3,3.2l-33.3,13.8  C253.1,788.5,252.4,788.5,252.1,788.5z M308,827.2c0.9,1.4,0.4,2.3,0.2,2.7c-0.5,0.6-1.1,0.9-1.8,0.9c-0.5,0-1-0.2-1.4-0.5  c-0.2-0.1-0.5-0.4-0.8-0.7c-0.5-0.4-1.1-1-1.6-1.3c-0.4-0.3-0.8-0.5-1.2-0.8c-0.4-0.3-0.8-0.5-1.2-0.8c-1.3-0.9-1.4-2.5-0.8-3.3  c0.5-0.7,1-1.8,1.5-2.9c-5.4,1.3-10.7-0.1-16.3-4.3c-7.2-5.4-11.5-14.8-6-22c2.4-3.2,5.7-4.7,9.8-4.7c8,0,17,5.9,21.6,9.4l3.3,2.5  c2.4-3.5,3.4-6.3,3.1-8.8c-0.3-2.3-1.9-4.5-4.8-6.7c-2.3-1.8-6.5-3.6-10.3-3.6c-2.1,0-3.7,0.6-4.9,1.8l-0.5,0.5l-0.9,0.1  c-0.4,0-0.7-0.1-1-0.3l-1.2-0.5l0.3-1.8l3.3-8.6l1.4,0.3c6,1.4,12.1,4.3,16.7,7.8c6,4.5,9.3,9,9.9,13.8c0.5,3.9-0.7,7.9-3.7,11.8  l-8.8,11.7C308,824.6,307.8,826.9,308,827.2z M343.1,849.9c-4.2,0-9-1.3-13-3.5c-5.3-3-11.8-7.2-15.9-13.8l-0.7-1.1l4.8-4.5  c1.5-1.5,2.4-2.2,3.4-2.2h0.4l0.6,0.2c1.3,0.9,1.1,2.2,1,3.1l-0.1,0.5c-1.3,6.9,6.5,11.8,8.9,13.1c1.7,1,5,2.6,8.2,2.6  c2.5,0,4.4-1,5.5-3.2c2.5-4.5-1.5-7.6-7.5-11.4l-1-0.6c-6.6-4.5-12.1-11.9-8.1-19.2c2.3-4.1,6.2-6.2,11.3-6.2c4,0,8.8,1.4,13.1,3.8  c4.7,2.7,9.1,6.5,12.4,10.8l0.9,1.2l-5.9,5.4c-0.4,0.4-1.1,1-2.1,1h-0.5l-0.5-0.3c-1.3-0.6-1-2.2-0.7-3.6c0.9-3.8-3.1-8.3-7.3-10.6  c-2.1-1.1-4.3-1.8-6.3-1.8c-2.3,0-4.1,1-5.1,2.8c-2.6,4.6,1.5,7.8,7.2,11.6l0.8,0.6c5.2,3.5,13.8,9.5,8.9,18.3  C353.5,847.5,349,849.9,343.1,849.9z M400.6,872.1l0.6,0.7c0.5,0.5,1.3,1.3,0.7,2.4l-0.4,0.9l-1.3,0.2c-0.5,0-1-0.2-1.2-0.3  c-0.2-0.1-0.7-0.3-1.4-0.6c-1.1-0.5-2.8-1.1-4.2-1.7c-1.8-0.7-3.9-1.4-5.2-1.9l-0.8-0.3c-0.3-0.1-1-0.4-1.3-1.2l-0.3-0.6l0.3-0.8  c0.4-1.2,1.8-1.3,2.3-1.3c0.2,0,0.3,0,0.5,0c1.4-0.4,2.5-1.7,3.6-4.3l5.5-14.1c4.8-12.3,0.1-15.9-4.5-17.7  c-6.5-2.5-13.9,1.8-16.9,9.6l-4.3,11.1c-2.1,5.3-2.3,7-1.2,8.6l0.4,0.5c0.6,0.8,1.1,1.4,0.8,2.4l-0.4,1.1l-1.3,0.1  c-0.3,0-0.6-0.1-0.9-0.2l-0.8-0.3c-1.3-0.6-3.5-1.5-5.3-2.3c-0.9-0.3-1.9-0.7-2.9-1c-1.3-0.5-2.4-0.8-3.1-1.1  c-0.6-0.2-1.1-0.6-1.3-1.1l-0.3-0.6l0.2-1c0.6-1.2,1.5-1.3,2.2-1.4c0.2,0,0.5,0,0.8-0.1c1.6-0.2,2.7-1.4,3.7-4.1l14.7-37.9  c0.8-2.2,0.1-2.6-0.4-2.9c-1.5-1-1.4-2.1-1.2-2.7c0.6-1.2,1.8-1.3,2.2-1.3l0.7,0.1l10.6,0.8l-7.7,19.9c4.4-2.4,9.9-2.7,15.2-0.6  c5.4,2.1,9.4,5.6,11.3,9.8c1.7,3.7,1.6,7.8-0.1,12.2l-5.5,14.1C401.6,865.4,399.5,870.9,400.6,872.1z M424.3,882l-1.7,0.2  c-0.4,0-0.8-0.1-1.2-0.3c-0.5-0.1-1.6-0.5-2.9-0.8c-1-0.4-2.1-0.7-3.1-1c-3.3-0.9-4.9-1.2-5.8-1.4l-0.4-0.1  c-2.1-0.6-1.7-2.1-1.7-2.4c0.5-1.4,1.8-1.6,2.9-1.8c1.7-0.3,2.5-1.9,4.3-8.6l5.9-21.7c0-0.3-0.4-0.6-0.7-0.8  c-0.2-0.2-0.5-0.4-0.7-0.7c-0.9-0.6-1.2-1.4-1-2.2c0.1-0.5,0.5-1.4,2.2-1.4l10.9,0.1l-7.5,27.5c-2.7,9.9-1,11.5-1,11.5  c0.7,0.4,2.1,1.1,1.8,2.7L424.3,882z M423.9,829.3c0.9-3.3,4.1-4.5,6.5-3.7c1.3,0.3,2.5,1.2,3.2,2.5c0.7,1.2,0.9,2.7,0.5,4  c-0.7,2.7-3.1,3.9-5.1,3.9c-0.5,0-0.9,0-1.3-0.2C425,835.2,423,832.5,423.9,829.3z M478.1,864l-2.5,14.9c-1.3,7.9-0.8,8.2,0.1,8.8  c1.2,0.8,2.2,1.7,1.9,2.9c0,0.6-0.7,1.5-2.1,1.5l-0.6,0c-0.3-0.1-0.9-0.2-1.6-0.3c-1.2-0.2-2.9-0.6-4.5-0.9  c-1.5-0.2-3.3-0.5-4.6-0.7c-0.7-0.1-1.3-0.2-1.7-0.2c-0.9-0.1-1.7-0.4-2.1-1l-0.4-0.6l0.1-0.8c0.2-1.4,1.6-1.7,2.4-1.9  c2.2-0.8,3.2-5.2,3.9-9.5l1.7-10.4c0.9-5.5,0.5-9.7-1.2-12.4c-1.4-2.1-3.6-3.4-6.8-3.9c-7.2-1.2-13.2,4.4-14.6,12.8l-1.9,11.7  c-0.9,5.5-0.8,7.4,0.6,8.6c1.2,1,1.9,1.5,1.8,2.6l-0.2,1.4l-1.7,0.1c-0.2,0-0.3,0-0.6,0c-0.6-0.1-1.5-0.3-2.4-0.4  c-1.2-0.3-2.7-0.5-4-0.8c-1.5-0.2-3.2-0.5-4.6-0.6l-1.8-0.2c-2.2-0.5-2-2.2-2-2.3c0.2-1.2,1.2-1.5,2-1.7c0.2-0.1,0.5-0.1,0.7-0.2  c0.6-0.3,2.2-1.7,3.5-9.2l2.8-17.1c0.9-5.2-0.1-5.8-0.6-6c-0.9-0.4-1.9-1.4-1.7-2.5c0.1-0.8,0.7-1.7,2.6-1.7l10-0.9l-0.9,5.3  c3.8-3.1,9.6-4.5,15.3-3.6C471.4,846.1,480,852,478.1,864z M527.9,864.8c-0.2,9.6-9.5,14.6-18.1,15.1c-2.9,0.2-5.8,0.1-8.7,0  l-0.3-1.1l-0.2,0v1.1c-1.2,0-1.4,0.3-1.4,0.3c0.4,0.5,2.9,1.4,12.2,2.2c0.8,0.1,1.4,0.1,1.8,0.2c11.3,0.8,17.8,5,17.7,11.5  c-0.1,6.5-4.6,14.3-25.4,14.3h-1.3c-10.6-0.2-22-4.6-21.9-13.6c0.1-4.8,5-7.3,9.1-8.5c-1.5-1.2-1.9-2.7-1.8-3.9  c0.1-2.7,2.1-4.5,4.6-5.6c-4.5-2.7-8.2-7.5-8.1-12.8c0.2-10,10.6-15.4,20.3-15.4c2.9,0.1,5.4,0.5,7.5,1c4.1-4.3,10.2-6.3,16.9-6  l2.2,0.2l-3.8,10.7l-1.8-1.3c-2.1-1.6-3.1-2.3-5.4-2.3c-1,0-2,0.3-2.9,0.7C525.1,854.6,528,859,527.9,864.8z M558,890.1  c-0.6,0.7-1.5,0.8-2.3,0.9l-1.1,0.1c-1.3,0.2-2.5,0.4-3.7,0.5c-0.6,0.1-1.1,0.1-1.6,0.1c-4.7,0-5.9-3.4-6.5-9.7l-2.4-25.4l-2.8,0.3  c-0.5,0-0.8,0-1,0c-1.9,0-2.2-1.4-2.3-1.8c-0.1-1.5,1.1-2.2,1.8-2.8c2.4-1.5,6.6-4.9,7.4-10.6c0.4-2.3,1.8-2.5,2.3-2.5h0  c1.4,0,2,0.8,2.2,2.4l0.8,9l5.1-0.5c0.3,0,0.5-0.1,0.7-0.1c1.9,0,2.2,1.3,2.2,1.7l0,0.3l-0.1,0.3h0l-0.3,2.8l-7.2,0.7l1.1,11.8  c0.6,6.1,1.7,18.9,6.1,19.6h0c1.6,0,1.9,1.3,1.9,1.7l0.1,0.6L558,890.1z M591,886.7c-1.7,0.3-3.5,0.6-5.3,0.6  c-11.6,0-21.1-7.4-23.3-18c-1.2-5.8-0.1-11.5,3.2-16.5c3.6-5.5,9.5-9.5,16.2-10.8c1.7-0.4,3.5-0.5,5.3-0.5c11.5,0,21.2,7.4,23.3,18  C613.2,873.1,602.5,884.3,591,886.7z M665.4,862.6l-1.6,0.6c-1.2,0.4-2.8,0.9-4.2,1.4c-1,0.4-2.2,0.8-3.2,1.3  c-1.2,0.5-2.2,0.9-2.8,1.1c-0.5,0.2-1,0.3-1.4,0.3H651l-0.6-1.2c-0.5-1.1,0.6-2.2,1.1-2.7c1.6-1.8,0.3-6-1.3-10.2l-3.6-9.9  c-3.6-9.5-8.2-12.8-15.1-10.3c-6.6,2.4-9.4,10.3-6.4,18.4l4.1,11.1c1.9,5.2,3,6.8,4.8,7.2l0.8,0.2c0.7,0.1,1.8,0.3,2,1.4l0.2,0.5  l-0.2,0.7c-0.3,0.7-1,1-1.4,1.1c-0.7,0.3-1.7,0.6-2.8,1c-1.1,0.4-2.3,0.8-3.3,1.1c-1,0.4-2.1,0.8-3.1,1.3c-1.2,0.5-2.2,0.9-2.9,1.1  c-0.3,0.1-0.7,0.2-1,0.2h-1.2l-0.7-1.4c-0.4-1,0.3-1.8,0.8-2.3c0.2-0.2,0.3-0.4,0.5-0.6c0.3-0.5,1.3-2.4-1.5-9.7l-6-16.2  c-1.8-5-2.9-5-3.3-5c-1.5,0.1-2.6-0.5-2.9-1.4c-0.2-0.6-0.3-1.7,1.3-2.7l8.3-5.7l1.9,5c1.8-4.7,6-8.7,11.5-10.7  c2.8-1,5.6-1.6,8.2-1.6c7.1,0,12.3,3.8,14.9,10.7l5.2,14.2c2.8,7.5,3.3,7.6,4.4,7.6c1.9,0.2,2.6,0.5,3,1.2  C667.4,861.1,666.7,862.2,665.4,862.6z M725.6,828.4c-1.7,1.4-3.5,2.7-4.9,3.6c-0.7,0.5-1.6,1-2.6,1.6c-1.5,0.9-3.3,2-5.1,3.2  l-7.3,4.9c-1.8,1.2-3.1,2.2-4,2.9c-0.5,0.4-0.9,0.7-1.1,0.8c-0.4,0.3-0.8,0.5-1.4,0.5h-1l-0.6-1c-0.6-0.8-0.1-1.7,0.2-2.4  c1.7-3.4,1.5-4.3-3-11l-14.6-21.8c-4-6-4.8-5.4-6-5.3l-0.5,0h-0.1c-1.3,0-1.9-0.5-2.2-0.9c-1.3-1.9,0.9-3.4,2-4.1l19.6-13.2  c6.4-4.3,12.8-6.5,19.1-6.5c8.3,0,15.7,3.9,20.4,10.8C741.2,803.1,738.3,818.3,725.6,828.4z M762.4,801.1c-1,0.9-2.3,1.3-3.6,1.3  c-1.5,0-3-0.6-4-1.8c-0.9-1-1.4-2.4-1.3-3.8c0.1-1.4,0.7-2.8,1.8-3.8c2.2-1.9,5.7-1.6,7.6,0.5c1,1.1,1.4,2.5,1.3,3.9  C764.2,798.9,763.5,800.2,762.4,801.1z M809,743.8c-0.8,7.7-4.4,15.4-10.1,21.7c-6.9,7.7-16.3,12.3-25.2,12.3  c-6.1,0-11.9-2.2-16.6-6.4c-6.5-5.8-9.7-13.2-9.3-21.5c0.3-7.5,3.6-15.1,9.3-21.4c5.9-6.6,12.8-10.7,20.6-12.2l1.1-0.2l2.9,5.1  c1.3,2.4,2.1,3.7,1,4.8l-0.5,0.5l-1.1,0.1c-0.5,0-1-0.2-1.4-0.4c-1.9-0.8-3.9-1.2-5.8-1.2c-4.5,0-8.9,2.3-13.1,7  c-8.3,9.4-7.2,20.9,3,30c5.1,4.6,11,7.1,16.5,7.1c5.3,0,10.2-2.4,14.2-6.8c5.6-6.3,7.6-13.6,5.2-19.6c-0.4-0.9-1-2-0.1-3.1l0.5-0.6  l0.9,0c0.6,0,1.2,0.3,2.5,0.9l5.4,2.7L809,743.8z M827.8,727.4c-1.3,2-3.5,3.2-5.9,3.2c-1.3,0-2.7-0.4-3.8-1.2  c-3.2-2.2-4.1-6.6-1.9-9.8c2.1-3.1,6.6-3.9,9.7-1.9C829.2,720,829.9,724.2,827.8,727.4z M512.4,826.1  c-173,0-313.8-140.7-313.8-313.7c0-173,140.8-313.7,313.8-313.7c173,0,313.8,140.7,313.8,313.7C826.2,685.4,685.4,826.1,512.4,826.1  z M806.4,256.3c-0.8-1.8-0.2-2.7,0.4-3.1l0.4-0.3l0.7,0c0.6,0,1.6,0.3,2.1,0.9l10.3,7.6l-21.6,16.4h0.2c6.6,0,12.7,3.2,17.1,9  c6.6,8.7,9.4,21.2-2.4,30.2l-15,11.3c-3.8,2.9-8.1,6.5-7.7,8.5l0.2,1.1c0.2,1,0.3,2-0.6,2.6l-0.4,0.3l-0.6,0.1  c-0.9,0-1.6-0.7-2.1-1.2c-0.2-0.3-0.6-0.8-1-1.5c-0.9-1.3-2.2-3.1-3.4-4.7c-1.1-1.4-2.3-2.9-3.3-4.1c-0.7-0.9-1.3-1.7-1.7-2.1  c-0.3-0.3-0.7-0.9-0.6-1.8l0.1-0.7l0.8-0.6c0.6-0.5,1.9-0.3,2.7,0.2c0.2,0.1,0.4,0.2,0.6,0.3c1.7,0.6,4.1-0.1,7-2.3l15-11.4  c5.7-4.3,8.9-8.5,9.7-12.5c0.6-3.2-0.3-6.4-2.8-9.7c-2.8-3.6-6.9-5.7-11.8-5.7c-4.4,0-9,1.7-13,4.7l-11.8,8.9  c-5.7,4.3-7.2,6.1-7,8.7l0.1,0.9c0.2,1.1,0.3,1.9-0.5,2.6l-0.5,0.4l-0.8,0.1c-1,0-1.5-0.7-1.8-1.2c-0.4-0.5-1-1.4-1.7-2.3  c-0.9-1.3-2-2.8-3-4.1c-1-1.3-2.2-2.8-3.2-4c-0.7-0.9-1.4-1.7-1.8-2.2c-0.5-0.6-0.7-1.3-0.6-2l0.1-0.7l1.1-1l0.6,0  c0.6,0,1,0.2,1.6,0.5c0.3,0.1,0.5,0.2,0.9,0.4c2.2,0.9,4.1,0.3,7-2l40.3-30.6C807.1,258.4,807,257.3,806.4,256.3z"></path>
<path class="st0" d="M669.6,201.1c-4.6,0-7.8,2-10,6.1c-3.9,7.3,0.5,13,5.9,15.8c2.7,1.4,5.2,2.2,7.5,2.2c7.2,0,12.1-7.2,15.8-14.2  l1.2-2.3l-4.8-2.6C679,202.7,673.8,201.1,669.6,201.1z"></path>
<path class="st0" d="M317.7,247.9c2.8,0,5.5-0.9,8-2.7c4.2-2.9,6.7-6.5,7.5-10.7c1.2-6.8-2.5-13.9-5.8-18.6  c-3.6-5.1-9.4-11.2-16.8-11.2c-3.3,0-6.8,1.2-10.3,3.7c-3.4,2.4-5.5,5.5-6.2,9.2c-1,5.4,1.2,12.3,5.9,19  C303.8,242.1,310.4,247.9,317.7,247.9z"></path>
<path class="st0" d="M299.6,419.9c1.2,0.4,2.4-0.3,2.7-1.4l2.8-9.3c0.3-1.1-0.3-2.4-1.5-2.7c-1.2-0.4-2.4,0.2-2.7,1.4l-2.8,9.3  C297.7,418.3,298.4,419.5,299.6,419.9z"></path>
<path class="st0" d="M294.9,435.1c1.1,0.4,2.4-0.2,2.7-1.4l2.8-9.3c0.4-1.1-0.3-2.3-1.5-2.7c-1.1-0.4-2.4,0.3-2.7,1.4l-2.8,9.3  C293.1,433.6,293.8,434.8,294.9,435.1z"></path>
<path class="st0" d="M290.6,449.7c1.1,0.4,2.4-0.2,2.7-1.4l2.8-9.3c0.3-1.1-0.3-2.4-1.5-2.7c-1.2-0.4-2.4,0.2-2.7,1.4l-2.8,9.3  C288.7,448.1,289.4,449.3,290.6,449.7z"></path>
<path class="st0" d="M286,464.9c1.2,0.3,2.4-0.3,2.7-1.4l2.8-9.3c0.3-1.1-0.3-2.4-1.5-2.8c-1.2-0.4-2.4,0.3-2.7,1.4l-2.8,9.3  C284.1,463.3,284.8,464.6,286,464.9z"></path>
<path class="st0" d="M281.2,479.6c1.2,0.4,2.4-0.2,2.7-1.4l2.7-9.3c0.3-1.2-0.3-2.4-1.5-2.7c-1.2-0.4-2.4,0.2-2.7,1.4l-2.8,9.3  C279.4,478,280,479.3,281.2,479.6z"></path>
<path class="st0" d="M276.6,494.9c1.2,0.4,2.4-0.2,2.7-1.4l2.7-9.3c0.3-1.2-0.3-2.4-1.5-2.8c-1.2-0.3-2.4,0.3-2.7,1.4l-2.8,9.3  C274.8,493.3,275.4,494.5,276.6,494.9z"></path>
<path class="st0" d="M272.2,509.4c1.2,0.3,2.4-0.3,2.7-1.4l2.8-9.3c0.3-1.1-0.3-2.4-1.5-2.7c-1.2-0.4-2.4,0.3-2.7,1.4l-2.8,9.3  C270.4,507.8,271.1,509,272.2,509.4z"></path>
<path class="st0" d="M267.6,524.6c1.2,0.4,2.4-0.2,2.7-1.4l2.8-9.3c0.3-1.1-0.3-2.3-1.5-2.7c-1.1-0.4-2.4,0.3-2.7,1.4l-2.8,9.3  C265.8,523.1,266.4,524.3,267.6,524.6z"></path>
<path class="st0" d="M258.9,551.6c1.1,0.4,2.3-0.2,2.7-1.4l2.8-9.2c0.2-0.7-0.1-1.4-0.5-2c0.9,0,1.8-0.4,2.1-1.3l2.7-9.3  c0.4-1.2-0.3-2.4-1.5-2.8c-1.1-0.4-2.4,0.2-2.7,1.4l-2.8,9.3c-0.2,0.7,0.1,1.3,0.5,1.9c-0.9,0-1.8,0.4-2.1,1.4l-2.8,9.3  C257.1,550,257.8,551.3,258.9,551.6z"></path>
<path class="st0" d="M245.9,594.6c1.2,0.4,2.3-0.2,2.7-1.4l2.8-9.2c0.2-0.7-0.1-1.4-0.5-2c0.9,0,1.8-0.4,2.1-1.3l2.8-9.3  c0.3-1.1-0.3-2.4-1.5-2.7c-1.2-0.4-2.4,0.3-2.7,1.4l-2.7,9.3c-0.2,0.7,0.1,1.4,0.5,1.9c-0.9,0-1.8,0.4-2.1,1.4l-2.8,9.3  C244,593.1,244.7,594.3,245.9,594.6z"></path>
<path class="st0" d="M254.7,567.3c1.2,0.4,2.4-0.3,2.7-1.4l2.8-9.3c0.3-1.1-0.3-2.4-1.5-2.7c-1.2-0.3-2.4,0.3-2.7,1.4l-2.8,9.3  C252.9,565.7,253.5,566.9,254.7,567.3z"></path>
<path class="st0" d="M317.2,407c-0.4-1.1-1.6-1.8-2.8-1.4c-1.2,0.3-1.8,1.6-1.4,2.7l3.1,9.2c0.4,1.1,1.6,1.7,2.8,1.4  c1.2-0.4,1.8-1.6,1.5-2.7L317.2,407z"></path>
<path class="st0" d="M322.1,422.2c-0.4-1.1-1.6-1.8-2.8-1.4c-1.1,0.4-1.8,1.6-1.4,2.7l3.1,9.2c0.4,1.1,1.6,1.7,2.8,1.4  c1.2-0.3,1.8-1.6,1.4-2.7L322.1,422.2z"></path>
<path class="st0" d="M326.9,436.6c-0.4-1.2-1.7-1.8-2.8-1.4c-1.2,0.4-1.8,1.6-1.4,2.7l3.1,9.2c0.4,1.2,1.6,1.8,2.8,1.4  c1.2-0.3,1.8-1.5,1.4-2.7L326.9,436.6z"></path>
<path class="st0" d="M331.8,451.7c-0.4-1.1-1.6-1.7-2.8-1.3c-1.2,0.3-1.8,1.5-1.4,2.7l3.1,9.2c0.4,1.1,1.6,1.8,2.8,1.4  c1.1-0.4,1.8-1.6,1.4-2.7L331.8,451.7z"></path>
<path class="st0" d="M336.4,466.5c-0.4-1.1-1.6-1.7-2.8-1.4c-1.2,0.3-1.8,1.6-1.4,2.7l3.1,9.2c0.3,1.1,1.6,1.8,2.8,1.4  c1.2-0.4,1.8-1.6,1.4-2.7L336.4,466.5z"></path>
<path class="st0" d="M341.4,481.6c-0.4-1.2-1.6-1.8-2.8-1.4c-1.2,0.4-1.8,1.6-1.4,2.7l3.1,9.2c0.4,1.1,1.6,1.7,2.8,1.4  c1.2-0.4,1.8-1.6,1.4-2.7L341.4,481.6z"></path>
<path class="st0" d="M346.1,496c-0.4-1.1-1.6-1.8-2.8-1.4c-1.2,0.4-1.8,1.6-1.4,2.7l3.1,9.2c0.4,1.1,1.6,1.8,2.8,1.4  c1.2-0.4,1.8-1.6,1.4-2.7L346.1,496z"></path>
<path class="st0" d="M351.1,511.2c-0.4-1.1-1.6-1.7-2.8-1.4c-1.2,0.4-1.8,1.6-1.4,2.7l3.1,9.2c0.4,1.1,1.6,1.8,2.8,1.4  c1.2-0.4,1.8-1.6,1.4-2.7L351.1,511.2z"></path>
<path class="st0" d="M355.7,525.5c-0.4-1.1-1.6-1.8-2.8-1.4c-1.2,0.3-1.8,1.6-1.4,2.7l3.1,9.2c0.3,0.7,0.9,1.1,1.5,1.3  c-0.8,0.5-1.2,1.4-0.9,2.3l3.1,9.2c0.4,1.1,1.7,1.7,2.8,1.4c1.2-0.4,1.8-1.6,1.4-2.7l-3-9.1c-0.2-0.7-0.8-1.1-1.5-1.3  c0.8-0.5,1.2-1.4,0.9-2.3L355.7,525.5z"></path>
<path class="st0" d="M372.8,577.3l-3-9.2c-0.4-1.1-1.6-1.8-2.8-1.4c-1.2,0.4-1.8,1.6-1.4,2.7l3.1,9.2c0.2,0.7,0.9,1.1,1.5,1.3  c-0.7,0.5-1.2,1.4-0.9,2.3l3.1,9.2c0.4,1.1,1.6,1.7,2.8,1.4c1.2-0.3,1.8-1.5,1.4-2.7l-3.1-9.2c-0.2-0.7-0.8-1.1-1.5-1.3  C372.6,579.1,373.1,578.3,372.8,577.3z"></path>
<path class="st0" d="M365,553.5c-0.4-1.1-1.6-1.7-2.8-1.4c-1.1,0.3-1.8,1.5-1.4,2.7l3.1,9.2c0.4,1.1,1.6,1.7,2.8,1.4  c1.2-0.4,1.8-1.6,1.4-2.7L365,553.5z"></path>
<path class="st0" d="M381.8,603.5l-3-9.2c-0.4-1.2-1.7-1.8-2.8-1.4c-1.2,0.3-1.8,1.6-1.4,2.7l2.7,8.2c-14.5-1.2-40.3-2-70.2-1.8  c-26.5,0.1-47.3,0.5-60.6,1.2l1.6-5.2c0.3-1.1-0.3-2.4-1.5-2.8c-1.1-0.4-2.4,0.3-2.7,1.4l-2,6.9c-7,0.5-11,1.1-11,1.9  c0,2.2,6.8,37.8,79.7,38.3c72.9,0.5,79.6-33.6,79.4-37.8c0-0.6-3-1.2-8.1-1.7C381.8,604,381.9,603.8,381.8,603.5z M310,619.6  c-34.4-0.5-70.9-3.5-70.4-8.2c0.2-2.6,32.1-3.9,70.5-3.9c38.5,0,70.2,1.3,70.1,3.9C380,615.8,343.3,620.1,310,619.6z"></path>
<path class="st0" d="M308.5,418.7c1.2,0.1,2.2-0.9,2.2-2.1l0.1-9.7c0-1.2-1-2.2-2.2-2.3c-1.2,0-2.2,0.9-2.2,2.1l-0.1,9.7  C306.3,417.6,307.3,418.7,308.5,418.7z"></path>
<path class="st0" d="M306,432.4c0,1.2,1,2.1,2.2,2.2c1.2,0.1,2.2-0.9,2.2-2l0.1-9.7c0-1.2-1-2.2-2.2-2.2c-1.2,0-2.2,0.9-2.2,2.1  L306,432.4z"></path>
<path class="st0" d="M305.8,447.6c0,1.2,1,2.2,2.2,2.2c1.2,0,2.2-0.9,2.2-2.1l0.1-9.7c0-1.2-1-2.2-2.2-2.2c-1.2,0-2.2,0.9-2.2,2.1  L305.8,447.6z"></path>
<path class="st0" d="M305.5,463.5c0,1.2,1,2.2,2.2,2.2c1.2,0.1,2.2-0.9,2.2-2.1l0.1-9.7c0-1.2-0.9-2.2-2.2-2.2  c-1.2-0.1-2.2,0.9-2.2,2.1L305.5,463.5z"></path>
<path class="st0" d="M304.9,479c0,1.2,1,2.2,2.1,2.2c1.2,0,2.2-0.9,2.2-2.1l0.1-9.7c0-1.2-1-2.2-2.2-2.2c-1.2-0.1-2.2,0.9-2.2,2.1  L304.9,479z"></path>
<path class="st0" d="M309.1,485.3c0-1.2-0.9-2.2-2.2-2.2c-1.2-0.1-2.2,0.9-2.3,2.1l-0.1,9.7c0,1.2,1,2.1,2.2,2.2  c1.2,0.1,2.2-0.9,2.2-2L309.1,485.3z"></path>
<path class="st0" d="M308.9,500.5c0-1.2-1-2.2-2.2-2.2c-1.2,0-2.2,0.9-2.2,2.1l-0.1,9.7c0,1.1,0.9,2.2,2.1,2.2  c1.2,0,2.2-0.9,2.2-2.1L308.9,500.5z"></path>
<path class="st0" d="M308.6,516.4c0-1.2-1-2.2-2.2-2.3c-1.2,0-2.2,0.9-2.2,2.1l-0.1,9.7c0,1.2,1,2.2,2.2,2.2  c1.2,0.1,2.2-0.9,2.2-2.1L308.6,516.4z"></path>
<path class="st0" d="M308.3,531.5c0-1.2-0.9-2.2-2.2-2.3c-1.2-0.1-2.2,0.9-2.2,2.1l-0.1,9.7c0,0.8,0.4,1.3,1,1.7  c-0.9,0.2-1.6,0.9-1.6,1.8l-0.2,9.7c0,1.2,1,2.2,2.2,2.2c1.2,0,2.2-0.9,2.2-2.1l0.1-9.7c0-0.7-0.4-1.3-1-1.7  c0.9-0.3,1.6-0.9,1.6-1.8L308.3,531.5z"></path>
<path class="st0" d="M307.3,586.1l0.1-9.7c0-1.2-1-2.2-2.2-2.3c-1.2,0-2.2,0.9-2.2,2.1l-0.1,9.7c0,0.7,0.4,1.3,1,1.7  c-0.9,0.2-1.6,0.9-1.6,1.9l-0.1,9.7c0,1.2,1,2.2,2.2,2.2c1.2,0.1,2.2-0.9,2.2-2.1l0.1-9.7c0-0.8-0.4-1.3-1-1.7  C306.6,587.7,307.3,587,307.3,586.1z"></path>
<path class="st0" d="M307.8,561c0-1.2-1-2.2-2.2-2.2c-1.2-0.1-2.2,0.8-2.2,2.1l-0.1,9.7c0,1.2,1,2.2,2.2,2.2c1.2,0,2.2-0.9,2.2-2.1  L307.8,561z"></path>
<path class="st0" d="M599.3,710.8c-1.6-0.6-9.4-2.1-12-2.3c-2.7-0.2-5.6-1.3-8-2.3c-2.5-1-7.1-3.8-7.1-3.8v-2.6c0,0,2-0.4,4-0.8  c2-0.4,2.8-0.9,2.8-0.9s-0.2-2.7-1.4-3.6c-1.2-1-6-2.6-10.2-4.4c-4.2-1.8-13.2-4.2-13.2-4.2l-2.8-5.2l-6-1c0,0,0.4-10-0.2-17.5  c-0.6-7.4-5.4-13.8-8-17.8c-2.6-4-11.2-15.6-11.2-15.6l-0.2-244.2l3.4-1.6l-0.2-2.6l-6-3.4l-0.2-3.6l4.2-0.4l0.3-15.7  c0,0,6.8-3.3,23.6-3.3c14.8-0.1,26.4,5.6,34.2,9.6c5.4,2.8,16.2,12,23.9,16.6c10.5,6.2,23.8,13.7,41.2,13  c18.7-0.7,35.9-17,48.5-19.9c10.3-2.3,18-0.8,19.6,3c1.4,3.3,0,7-2.7,7.7c-2.7,0.7-4.3-0.7-4.3-0.7l-4,3.7c0,0,3.4,2.1,7.3,2.3  c3.9,0.2,7-1.6,8.5-5.5c1.3-3.5,1.7-9.4-2.9-13.4c-6.4-5.5-20.2-6-31.2-2c-9.3,3.3-26.6,11.3-43.2,10.6  c-16.6-0.7-27.3-11.5-32.6-16.5c-5.3-5-16.9-15.1-26.2-20.7c-9.3-5.6-23.5-9.7-32.9-10.3c-12.6-0.8-26.6,3-26.6,3l-0.7-13.9  l-4.7-0.4l4.3-8.6c0,0-1.7-1-4.3-2.3c-2.6-1.3-5.6-4.3-5.6-4.3v-5.1c8.1-2.3,14-9.6,14-18.4c0-10.6-8.6-19.2-19.2-19.2  c-10.6,0-19.2,8.6-19.2,19.2c0,9,6.2,16.5,14.6,18.6v4.9c0,0-3,3-5.7,4.3c-2.7,1.3-4.3,2.3-4.3,2.3l4.3,8.6l-4.6,0.4l-0.7,13.9  c0,0-14-3.8-26.6-3c-9.4,0.6-23.6,4.7-32.9,10.3c-9.3,5.7-20.9,15.7-26.2,20.7c-5.3,5-16,15.9-32.6,16.5  c-16.6,0.7-33.9-7.3-43.2-10.6c-11-4-24.9-3.5-31.3,2c-4.6,4-4.2,9.9-2.9,13.4c1.5,3.9,4.7,5.7,8.6,5.5c3.9-0.2,7.3-2.3,7.3-2.3  l-4-3.7c0,0-1.7,1.3-4.3,0.7c-2.6-0.7-4.1-4.3-2.6-7.7c1.6-3.7,9.3-5.3,19.6-3c12.7,2.9,29.9,19.2,48.5,19.9  c17.4,0.7,30.7-6.7,41.2-13c7.7-4.6,18.5-13.8,23.9-16.6c7.9-4,19.5-9.7,34.2-9.6c16.8,0,23.6,3.3,23.6,3.3l0.2,15.7l4.2,0.4  l-0.2,3.6l-6,3.4l-0.2,2.6l3.4,1.6l-0.2,244.2c0,0-8.6,11.6-11.2,15.6c-2.6,4-7.4,10.4-8,17.8c-0.6,7.4-0.2,17.5-0.2,17.5l-6,1  l-2.8,5.2c0,0-9,2.4-13.2,4.2c-4.2,1.8-9,3.4-10.2,4.4c-1.2,1-1.4,3.6-1.4,3.6s0.8,0.5,2.8,0.9c2,0.4,4,0.8,4,0.8v2.6  c0,0-4.6,2.8-7.1,3.8c-2.5,0.9-5.3,2.1-8,2.3c-2.7,0.2-10.5,1.7-12,2.3c-1.5,0.6-5.9,3.6-8.6,7.2c-2.7,3.6-4,4.4-4,8  c0,3.6,1,4.2,1,4.2s9.9,4,29.6,4.4c19.7,0.4,69.7,1.9,69.7,1.9s50.1-1.5,69.7-1.9c19.7-0.4,29.6-4.4,29.6-4.4s1-0.5,1-4.2  c0-3.6-1.4-4.4-4-8C605.2,714.4,600.8,711.4,599.3,710.8z"></path>
<path class="st0" d="M719.7,405.9c-1.1,0.3-1.8,1.6-1.5,2.7l2.8,9.3c0.3,1.1,1.6,1.7,2.7,1.3c1.2-0.3,1.8-1.6,1.5-2.7l-2.8-9.3  C722.1,406.2,720.9,405.6,719.7,405.9z"></path>
<path class="st0" d="M724.4,421.2c-1.2,0.4-1.9,1.6-1.5,2.7l2.8,9.3c0.3,1.2,1.5,1.8,2.7,1.4c1.2-0.4,1.8-1.6,1.5-2.7l-2.8-9.3  C726.8,421.4,725.5,420.8,724.4,421.2z"></path>
<path class="st0" d="M728.7,435.7c-1.1,0.4-1.8,1.6-1.5,2.7l2.8,9.3c0.3,1.1,1.5,1.8,2.7,1.4c1.1-0.4,1.8-1.6,1.5-2.7l-2.7-9.3  C731.1,435.9,729.9,435.3,728.7,435.7z"></path>
<path class="st0" d="M733.4,450.9c-1.2,0.4-1.8,1.6-1.5,2.7l2.7,9.3c0.3,1.2,1.6,1.8,2.7,1.4c1.2-0.4,1.9-1.6,1.5-2.8l-2.7-9.3  C735.8,451.2,734.6,450.6,733.4,450.9z"></path>
<path class="st0" d="M736.6,468.4l2.8,9.3c0.3,1.1,1.5,1.8,2.7,1.4c1.1-0.4,1.8-1.6,1.5-2.7l-2.8-9.3c-0.3-1.2-1.5-1.8-2.7-1.4  C737,466,736.3,467.2,736.6,468.4z"></path>
<path class="st0" d="M742.7,480.9c-1.1,0.4-1.8,1.6-1.5,2.8l2.7,9.3c0.4,1.2,1.6,1.8,2.7,1.4c1.2-0.4,1.8-1.6,1.5-2.7l-2.8-9.3  C745.1,481.1,743.9,480.5,742.7,480.9z"></path>
<path class="st0" d="M747.1,495.4c-1.2,0.4-1.8,1.6-1.5,2.8l2.7,9.3c0.3,1.1,1.6,1.8,2.7,1.4c1.1-0.4,1.8-1.6,1.5-2.7l-2.8-9.3  C749.5,495.7,748.3,495,747.1,495.4z"></path>
<path class="st0" d="M751.7,510.7c-1.2,0.4-1.8,1.6-1.5,2.7l2.7,9.3c0.4,1.1,1.6,1.8,2.7,1.4c1.1-0.4,1.8-1.6,1.5-2.8l-2.8-9.2  C754.1,510.9,752.9,510.3,751.7,510.7z"></path>
<path class="st0" d="M756.1,525.1c-1.2,0.4-1.8,1.6-1.5,2.8l2.8,9.3c0.3,0.9,1.1,1.4,2,1.4c-0.4,0.5-0.7,1.2-0.5,1.9l2.8,9.3  c0.3,1.1,1.5,1.8,2.7,1.4c1.1-0.4,1.8-1.6,1.5-2.7l-2.8-9.3c-0.3-0.9-1.2-1.3-2.1-1.3c0.4-0.6,0.7-1.2,0.5-1.9l-2.8-9.3  C758.5,525.3,757.3,524.7,756.1,525.1z"></path>
<path class="st0" d="M769.1,568.1c-1.2,0.4-1.8,1.6-1.5,2.7l2.8,9.3c0.3,0.9,1.1,1.3,2.1,1.3c-0.5,0.6-0.7,1.2-0.5,1.9l2.7,9.3  c0.4,1.1,1.6,1.7,2.7,1.4c1.1-0.4,1.9-1.6,1.5-2.7l-2.8-9.3c-0.3-0.9-1.1-1.4-2.1-1.4c0.4-0.6,0.7-1.2,0.5-1.9l-2.8-9.3  C771.5,568.3,770.3,567.7,769.1,568.1z"></path>
<path class="st0" d="M764.6,553.3c-1.2,0.4-1.8,1.6-1.5,2.8l2.8,9.3c0.4,1.2,1.6,1.8,2.7,1.4c1.2-0.4,1.8-1.6,1.5-2.7l-2.7-9.3  C767,553.5,765.8,552.9,764.6,553.3z"></path>
<path class="st0" d="M707.3,416.9l3.1-9.2c0.4-1.1-0.3-2.3-1.4-2.7c-1.1-0.4-2.4,0.3-2.8,1.4l-3.1,9.2c-0.4,1.1,0.3,2.3,1.4,2.7  C705.7,418.7,706.9,418.1,707.3,416.9z"></path>
<path class="st0" d="M702.3,432.1l3.1-9.2c0.4-1.1-0.3-2.4-1.4-2.7c-1.2-0.4-2.4,0.3-2.8,1.4l-3.1,9.2c-0.4,1.1,0.3,2.3,1.4,2.7  C700.7,433.8,702,433.2,702.3,432.1z"></path>
<path class="st0" d="M697.6,446.5l3-9.2c0.4-1.1-0.2-2.3-1.4-2.7c-1.2-0.3-2.4,0.3-2.8,1.4l-3,9.2c-0.4,1.1,0.3,2.3,1.4,2.7  C695.9,448.2,697.2,447.6,697.6,446.5z"></path>
<path class="st0" d="M692.6,461.6l3.1-9.2c0.4-1.1-0.3-2.4-1.4-2.7c-1.2-0.4-2.4,0.3-2.8,1.4l-3.1,9.1c-0.4,1.1,0.3,2.3,1.4,2.7  C691,463.4,692.2,462.7,692.6,461.6z"></path>
<path class="st0" d="M688.1,476.4l3.1-9.2c0.4-1.1-0.3-2.4-1.4-2.7c-1.2-0.4-2.4,0.3-2.8,1.4l-3.1,9.2c-0.4,1.2,0.3,2.3,1.4,2.7  C686.4,478.2,687.7,477.5,688.1,476.4z"></path>
<path class="st0" d="M683.1,491.5l3-9.1c0.4-1.1-0.2-2.4-1.4-2.7c-1.2-0.4-2.4,0.3-2.8,1.4l-3.1,9.2c-0.3,1.1,0.3,2.3,1.5,2.7  C681.5,493.3,682.7,492.7,683.1,491.5z"></path>
<path class="st0" d="M678.3,505.9l3.1-9.2c0.4-1.1-0.3-2.3-1.4-2.7c-1.2-0.4-2.4,0.2-2.8,1.3l-3.1,9.2c-0.4,1.1,0.3,2.3,1.5,2.7  C676.7,507.7,678,507,678.3,505.9z"></path>
<path class="st0" d="M673.4,521l3-9.2c0.4-1.1-0.3-2.3-1.4-2.7c-1.2-0.4-2.4,0.2-2.8,1.4l-3,9.2c-0.4,1.2,0.3,2.3,1.4,2.7  C671.7,522.8,673,522.2,673.4,521z"></path>
<path class="st0" d="M668.7,535.4l3-9.2c0.4-1.1-0.2-2.3-1.4-2.7c-1.2-0.4-2.4,0.2-2.8,1.4l-3.1,9.2c-0.3,0.9,0.2,1.8,0.9,2.3  c-0.7,0.2-1.3,0.6-1.6,1.3l-3.1,9.2c-0.3,1.1,0.3,2.3,1.4,2.7c1.2,0.4,2.5-0.2,2.8-1.4l3-9.2c0.3-0.9-0.2-1.8-0.9-2.3  C667.8,536.5,668.4,536.1,668.7,535.4z"></path>
<path class="st0" d="M654.7,578.1l3.1-9.2c0.4-1.1-0.3-2.3-1.4-2.7c-1.2-0.4-2.4,0.3-2.8,1.4l-3.1,9.2c-0.3,1,0.1,1.8,0.9,2.3  c-0.7,0.2-1.3,0.6-1.5,1.3l-3.1,9.2c-0.4,1.2,0.2,2.4,1.4,2.7c1.1,0.3,2.4-0.2,2.8-1.4l3.1-9.2c0.3-0.9-0.2-1.8-0.9-2.3  C653.8,579.2,654.5,578.8,654.7,578.1z"></path>
<path class="st0" d="M659.5,563.3l3-9.1c0.4-1.1-0.3-2.3-1.4-2.7c-1.2-0.4-2.4,0.3-2.8,1.4l-3.1,9.2c-0.4,1.1,0.3,2.4,1.4,2.7  C657.9,565.2,659.1,564.5,659.5,563.3z"></path>
<path class="st0" d="M717,415.9l-0.2-9.7c0-1.2-1-2.1-2.2-2.1c-1.2,0-2.2,1.1-2.2,2.2l0.1,9.7c0,1.2,1,2.1,2.2,2  C716,418.1,717,417.1,717,415.9z"></path>
<path class="st0" d="M715.1,434c1.2,0,2.2-1,2.2-2.2l-0.1-9.7c0-1.2-1-2.1-2.2-2.1c-1.2,0-2.2,1-2.2,2.2l0.1,9.7  C712.9,433.2,713.9,434.1,715.1,434z"></path>
<path class="st0" d="M715.3,449.2c1.2,0,2.2-1,2.2-2.2l-0.1-9.7c0-1.2-1-2.1-2.3-2.1c-1.2,0-2.2,1-2.2,2.2l0.1,9.7  C713.1,448.3,714.2,449.3,715.3,449.2z"></path>
<path class="st0" d="M715.6,465.1c1.2,0,2.2-1,2.2-2.2l-0.1-9.7c0-1.2-1-2.1-2.2-2.1c-1.2,0-2.2,1-2.2,2.2l0.2,9.7  C713.4,464.2,714.4,465.2,715.6,465.1z"></path>
<path class="st0" d="M716.2,480.6c1.2,0,2.2-1,2.2-2.2l-0.1-9.7c0-1.2-1-2.1-2.2-2.1c-1.2,0-2.2,1-2.2,2.2l0.1,9.7  C714,479.7,715,480.6,716.2,480.6z"></path>
<path class="st0" d="M716.5,496.5c1.2,0,2.2-1,2.2-2.2l-0.1-9.7c0-1.2-1-2.1-2.3-2.1c-1.2,0.1-2.2,1-2.2,2.2l0.1,9.7  C714.3,495.6,715.3,496.6,716.5,496.5z"></path>
<path class="st0" d="M716.8,511.7c1.2,0,2.2-1,2.2-2.2l-0.1-9.7c0-1.2-1-2.1-2.2-2.1c-1.2,0-2.2,1.1-2.2,2.2l0.1,9.7  C714.5,510.8,715.6,511.7,716.8,511.7z"></path>
<path class="st0" d="M717.1,527.6c1.2,0,2.2-1,2.2-2.2l-0.1-9.6c0-1.2-1-2.1-2.2-2.1c-1.3,0.1-2.2,1.1-2.2,2.2l0.2,9.7  C714.9,526.7,715.9,527.7,717.1,527.6z"></path>
<path class="st0" d="M716.8,542.4c-0.6,0.4-1,1-1,1.7l0.1,9.7c0,1.2,1,2.1,2.2,2.1c1.2-0.1,2.2-1,2.2-2.2l-0.2-9.7  c0-1-0.7-1.6-1.6-1.9c0.6-0.4,1-1,1-1.7l-0.1-9.7c0-1.2-1-2.1-2.2-2.1c-1.3,0.1-2.2,1-2.2,2.2l0.1,9.7  C715.1,541.6,715.9,542.2,716.8,542.4z"></path>
<path class="st0" d="M716.7,598.8c0.1,1.2,1,2.1,2.2,2.1c1.2,0,2.2-1,2.2-2.2L721,589c0-1-0.7-1.6-1.6-1.9c0.6-0.4,1-1,1-1.7  l-0.1-9.7c0-1.2-1-2.1-2.2-2.1c-1.2,0-2.2,1-2.2,2.2l0.1,9.7c0,1,0.7,1.6,1.6,1.9c-0.6,0.4-1,1-1,1.7L716.7,598.8z"></path>
<path class="st0" d="M717.9,572.1c1.2,0,2.1-1,2.1-2.2l-0.1-9.7c0-1.2-1-2.1-2.3-2.1c-1.2,0.1-2.2,1.1-2.2,2.2l0.1,9.7  C715.7,571.2,716.7,572.2,717.9,572.1z"></path>
<path class="st0" d="M776.8,594.7c-1.2,0.4-1.9,1.6-1.5,2.8l1.8,6.1c-15-1-38.8-1.7-65.9-1.5c-29.8,0.1-52.6,0.6-65.3,1.5l2.8-8.5  c0.4-1.2-0.3-2.4-1.4-2.7c-1.1-0.4-2.4,0.3-2.8,1.4l-3.1,9.2c-0.1,0.3,0,0.7,0.1,1c-4.2,0.4-6.6,0.9-6.6,1.5  c0,2.2,6.8,37.8,79.7,38.3c72.9,0.5,79.6-33.6,79.4-37.8c0-0.7-4.5-1.5-12.2-2.1l-2.3-7.7C779.1,594.9,777.9,594.3,776.8,594.7z   M784.4,611.3c-0.2,4.5-36.9,8.7-70.2,8.2c-34.4-0.5-70.9-3.5-70.4-8.2c0.2-2.6,32.1-3.9,70.5-3.9  C752.8,607.5,784.5,608.7,784.4,611.3z"></path>
</svg>
