<?xml version="1.0" standalone="no"?>
<!DOCTYPE svg PUBLIC "-//W3C//DTD SVG 1.1//EN" "http://www.w3.org/Graphics/SVG/1.1/DTD/svg11.dtd" >
<svg xmlns="http://www.w3.org/2000/svg" xmlns:xlink="http://www.w3.org/1999/xlink" version="1.1">
<metadata></metadata>
<defs>
<font id="uniform_condensedmedium" horiz-adv-x="1044" >
<font-face units-per-em="2048" ascent="1536" descent="-512" />
<missing-glyph horiz-adv-x="481" />
<glyph unicode="&#x2e;&#x2e;&#x2e;" horiz-adv-x="1484" d="M82 117q0 60 39 99.5t98 39.5q60 0 99.5 -39.5t39.5 -99.5q0 -59 -39.5 -98t-99.5 -39q-59 0 -98 39t-39 98zM604 117q0 60 39 99.5t98 39.5q60 0 100 -39.5t40 -99.5q0 -59 -40 -98t-100 -39q-59 0 -98 39t-39 98zM1126 117q0 60 39.5 99.5t98.5 39.5q60 0 99.5 -39.5 t39.5 -99.5q0 -59 -39.5 -98t-99.5 -39q-59 0 -98.5 39.5t-39.5 97.5z" />
<glyph horiz-adv-x="0" />
<glyph horiz-adv-x="682" />
<glyph unicode=" "  horiz-adv-x="481" />
<glyph unicode="&#x09;" horiz-adv-x="481" />
<glyph unicode="&#xa0;" horiz-adv-x="481" />
<glyph unicode="!" horiz-adv-x="542" d="M133 117q0 60 39 99.5t98 39.5q60 0 100 -39.5t40 -99.5q0 -59 -40 -98t-100 -39q-58 0 -97.5 39t-39.5 98zM147 1434h246l-47 -983h-149z" />
<glyph unicode="&#x22;" horiz-adv-x="716" d="M102 891v543h174v-543h-174zM440 891v543h174v-543h-174z" />
<glyph unicode="#" d="M51 330v129h189l41 311h-168v129h184l45 330h141l-45 -330h240l45 330h141l-45 -330h174v-129h-190l-41 -311h170v-129h-189l-43 -330h-141l43 330h-240l-43 -330h-141l43 330h-170zM381 459h240l41 311h-240z" />
<glyph unicode="$" horiz-adv-x="1015" d="M102 391v60h203v-68q0 -99 55 -158t150 -59q90 0 142.5 53t52.5 139q0 87 -63 154t-198 135q-73 39 -129 80t-103 93.5t-72 117.5t-25 139q0 148 90 247t239 118v176h131v-174q154 -17 243 -121.5t89 -271.5v-37h-202v45q0 96 -52.5 152.5t-142.5 56.5q-84 0 -134 -51.5 t-50 -131.5q0 -85 63.5 -150.5t198.5 -133.5q153 -77 239 -182t86 -254q0 -153 -92.5 -253.5t-245.5 -121.5v-174h-131v172q-158 19 -250 125.5t-92 277.5z" />
<glyph unicode="%" horiz-adv-x="1351" d="M72 967q0 121 82 201.5t204 80.5q121 0 202 -78.5t81 -199.5t-83 -201t-204 -80q-122 0 -202 78t-80 199zM203 0l801 1229h143l-801 -1229h-143zM217 969q0 -61 39.5 -101.5t99.5 -40.5t100 40.5t40 101.5q0 63 -40 103t-100 40t-99.5 -40t-39.5 -103zM711 256 q0 121 82 202t204 81q121 0 202 -79t81 -200q0 -120 -83 -200t-204 -80q-122 0 -202 77.5t-80 198.5zM856 258q0 -62 39.5 -102.5t99.5 -40.5q59 0 98.5 41t39.5 102t-39.5 102t-98.5 41q-60 0 -99.5 -40.5t-39.5 -102.5z" />
<glyph unicode="&#x26;" horiz-adv-x="1243" d="M72 352q0 127 66 233t206 212q-77 99 -113 181.5t-36 168.5q0 131 95 219t242 88q146 0 236 -87.5t90 -217.5q0 -106 -64 -197.5t-190 -189.5l215 -266l203 323h201l-287 -465l287 -354h-226l-163 199q-83 -115 -172.5 -167t-210.5 -52q-163 0 -271 105t-108 267z M272 375q0 -95 55.5 -155t145.5 -60q72 0 131.5 42.5t116.5 133.5l-270 330q-179 -140 -179 -291zM387 1145q0 -61 25.5 -119.5t87.5 -136.5q96 68 137 125.5t41 126.5q0 63 -39.5 106t-103.5 43q-68 0 -108 -41t-40 -104z" />
<glyph unicode="'" horiz-adv-x="378" d="M102 891v543h174v-543h-174z" />
<glyph unicode="(" horiz-adv-x="743" d="M102 711q0 134 26 257t67 213.5t90.5 168.5t99.5 129.5t91 88.5t67 54l26 16l113 -133q-8 -5 -21.5 -15.5t-53 -47t-75.5 -78.5t-79.5 -111.5t-75 -144.5t-53 -178t-21.5 -213t21 -213.5t54.5 -180.5t73.5 -144t80.5 -112.5t74 -78t54.5 -47.5l21 -15l-113 -131 q-10 5 -26.5 16t-65 51t-93 87t-98 126.5t-92.5 167.5t-65.5 211t-26.5 257z" />
<glyph unicode=")" horiz-adv-x="743" d="M61 -72q8 5 21.5 15.5t53 47t75.5 79t79.5 111.5t75 144.5t53 178.5t21.5 213q0 87 -13 169.5t-35 148.5t-50.5 127t-60 107.5t-62.5 86t-59.5 67t-50.5 47t-35 28.5l-13 9l113 131q10 -5 26.5 -16t65 -51t93 -87t98 -126t92.5 -167t65.5 -211t26.5 -257q0 -105 -16 -204 t-43 -177.5t-62 -150t-73.5 -125.5t-77.5 -99.5t-74 -76.5t-62 -53t-43 -32l-16 -10z" />
<glyph unicode="*" horiz-adv-x="890" d="M72 1102l47 151l264 -104l-18 285h161l-18 -285l264 104l47 -151l-272 -70l180 -219l-129 -94l-152 237l-151 -237l-129 94l178 217z" />
<glyph unicode="+" d="M82 643v168h354v381h172v-381h355v-168h-355v-379h-172v379h-354z" />
<glyph unicode="," horiz-adv-x="430" d="M82 -266l35 542h231l-98 -542h-168z" />
<glyph unicode="-" horiz-adv-x="737" d="M82 629v194h573v-194h-573z" />
<glyph unicode="." horiz-adv-x="440" d="M82 117q0 60 39 99.5t98 39.5q60 0 99.5 -39.5t39.5 -99.5q0 -59 -39.5 -98t-99.5 -39q-59 0 -98 39t-39 98z" />
<glyph unicode="/" horiz-adv-x="884" d="M0 -164l707 1761h178l-707 -1761h-178z" />
<glyph unicode="0" d="M113 397v635q0 193 114.5 307.5t296.5 114.5q181 0 294.5 -113t113.5 -305v-635q0 -192 -115.5 -306.5t-296.5 -114.5q-182 0 -294.5 112t-112.5 305zM322 393q0 -103 54 -163t146 -60t145.5 60t53.5 163v645q0 104 -53.5 164t-145.5 60t-146 -60t-54 -164v-645z" />
<glyph unicode="1" horiz-adv-x="833" d="M41 1085l444 349h174v-1434h-208v1180l-310 -236z" />
<glyph unicode="2" horiz-adv-x="1003" d="M102 0v145l486 637q102 134 102 262q0 101 -52 159.5t-140 58.5t-140.5 -58.5t-52.5 -159.5v-71h-203v63q0 191 112.5 304.5t289.5 113.5q171 0 284 -106.5t113 -276.5q0 -106 -42.5 -206t-137.5 -220l-356 -459h536v-186h-799z" />
<glyph unicode="3" horiz-adv-x="991" d="M92 371v59h197v-41q0 -104 53.5 -163.5t146.5 -59.5q92 0 145.5 59.5t53.5 163.5v47q0 103 -53.5 163t-151.5 60h-106v164h106q86 0 135.5 55t49.5 146v43q0 90 -49.5 145.5t-129.5 55.5q-82 0 -131 -55.5t-49 -147.5v-31h-196v39q0 167 108.5 274t274.5 107 q167 0 275 -101t108 -263v-31q0 -103 -47 -185.5t-130 -128.5q92 -45 144.5 -130t52.5 -199v-51q0 -170 -115.5 -277.5t-291.5 -107.5q-175 0 -287.5 107.5t-112.5 283.5z" />
<glyph unicode="4" d="M72 352v170l532 912h205v-918h164v-164h-164v-352h-201v352h-536zM242 516h366v627z" />
<glyph unicode="5" horiz-adv-x="1017" d="M113 387v33h204v-37q0 -98 50.5 -155.5t138.5 -57.5t139 57.5t51 155.5v190q0 96 -51.5 151.5t-138.5 55.5q-46 0 -82.5 -15t-54.5 -36t-29.5 -42.5t-14.5 -36.5l-3 -15h-189v799h731v-187h-540v-381q86 97 231 97q156 0 253 -101.5t97 -271.5v-199q0 -188 -111 -299.5 t-290 -111.5q-176 0 -283.5 109.5t-107.5 297.5z" />
<glyph unicode="6" d="M102 408v71q0 170 76 316l338 639h232l-308 -549q68 37 140 37q161 0 261.5 -107.5t100.5 -290.5v-112q0 -197 -118 -314.5t-304 -117.5q-187 0 -302.5 115.5t-115.5 312.5zM311 403q0 -107 57 -170t154 -63t153 63t56 170v113q0 109 -56 171.5t-153 62.5t-154 -63 t-57 -171v-113z" />
<glyph unicode="7" horiz-adv-x="921" d="M72 1243v191h778v-150l-451 -1284h-221l449 1243h-555z" />
<glyph unicode="8" d="M92 391v21q0 118 52 207.5t145 140.5q-78 48 -122 127t-44 176v20q0 160 114.5 265.5t286.5 105.5t285 -104t113 -263v-20q0 -95 -45 -175t-123 -128q93 -51 145.5 -140t52.5 -208v-21q0 -185 -123 -300t-309 -115q-187 0 -307.5 113t-120.5 298zM301 399 q0 -110 60.5 -174.5t160.5 -64.5q99 0 159 64.5t60 174.5v43q0 109 -60 173.5t-159 64.5q-100 0 -160.5 -64t-60.5 -174v-43zM332 1036q0 -86 52.5 -141t137.5 -55q84 0 136.5 55.5t52.5 140.5v39q0 86 -52.5 141.5t-136.5 55.5q-85 0 -137.5 -55.5t-52.5 -141.5v-39z" />
<glyph unicode="9" d="M102 909v113q0 197 118 314.5t304 117.5q187 0 302.5 -115.5t115.5 -312.5v-72q0 -169 -76 -315l-338 -639h-231l307 549q-68 -37 -139 -37q-161 0 -262 107t-101 290zM313 918q0 -109 56 -171.5t153 -62.5t154 63t57 171v112q0 107 -57 170.5t-154 63.5t-153 -63 t-56 -171v-112z" />
<glyph unicode=":" horiz-adv-x="440" d="M82 117q0 60 39 99.5t98 39.5q60 0 99.5 -39.5t39.5 -99.5q0 -59 -39.5 -98t-99.5 -39q-59 0 -98 39t-39 98zM82 932q0 60 39 99.5t98 39.5q60 0 99.5 -39.5t39.5 -99.5q0 -59 -39.5 -98t-99.5 -39q-59 0 -98 39.5t-39 97.5z" />
<glyph unicode=";" horiz-adv-x="440" d="M82 -266l35 542h231l-98 -542h-168zM82 932q0 60 39 99.5t98 39.5q60 0 99.5 -39.5t39.5 -99.5q0 -59 -39.5 -98t-99.5 -39q-59 0 -98 39.5t-39 97.5z" />
<glyph unicode="&#x3c;" d="M82 639v174l881 430v-199l-680 -315l680 -315v-205z" />
<glyph unicode="=" d="M82 418v170h881v-170h-881zM82 823v168h881v-168h-881z" />
<glyph unicode="&#x3e;" d="M82 211v199l680 315l-680 315v205l881 -430v-174z" />
<glyph unicode="?" horiz-adv-x="983" d="M102 993v39q0 190 112.5 306t289.5 116q171 0 284 -106.5t113 -276.5q0 -61 -16.5 -116.5t-43.5 -97t-59 -80t-64.5 -73.5t-59.5 -69.5t-43.5 -75.5t-16.5 -84v-24h-195v41q0 71 29.5 134.5t71.5 112t84.5 96t72 105t29.5 119.5q0 95 -52 149t-140 54q-89 0 -141 -58.5 t-52 -159.5v-51h-203zM362 117q0 60 40 99.5t100 39.5q59 0 98 -39.5t39 -99.5q0 -59 -39.5 -98t-97.5 -39q-60 0 -100 39t-40 98z" />
<glyph unicode="@" horiz-adv-x="1937" d="M82 561q0 183 70 348.5t188.5 284.5t283 189.5t345.5 70.5q182 0 346.5 -69.5t282.5 -188.5t187.5 -283.5t69.5 -347.5q0 -170 -64.5 -311.5t-175 -222t-241.5 -80.5q-142 0 -215 87t-59 226q-82 -110 -236 -110q-142 0 -215 90t-53 233l33 234q20 144 105.5 221.5 t221.5 77.5q72 0 129.5 -33t88.5 -90l30 106h131l21 -22l-99 -697q-10 -81 25 -128.5t104 -47.5q122 0 217 130.5t95 324.5q0 216 -96.5 388.5t-263.5 268t-371 95.5q-149 0 -283.5 -58t-232.5 -157t-155.5 -237t-57.5 -290q0 -196 96.5 -360.5t264 -260.5t368.5 -96 q69 0 157 17l27 -135q-6 -1 -28.5 -6t-41 -9t-51 -7t-65.5 -3q-183 0 -347 67t-281 181.5t-186 273.5t-69 336zM778 496q-12 -84 27 -135.5t117 -51.5q74 0 122 42.5t60 123.5l26 191q12 83 -29.5 134.5t-117.5 51.5q-154 0 -178 -166z" />
<glyph unicode="A" horiz-adv-x="1105" d="M0 0l446 1434h211l449 -1434h-232l-104 352h-448l-103 -352h-219zM365 520h360l-180 610z" />
<glyph unicode="B" horiz-adv-x="1157" d="M143 0v1434h475q183 0 294.5 -101.5t111.5 -259.5q0 -109 -56.5 -194.5t-154.5 -128.5q113 -43 177.5 -137t64.5 -218q0 -170 -123 -282.5t-318 -112.5h-471zM362 174h218q113 0 183.5 69t70.5 175q0 107 -69.5 175.5t-182.5 68.5h-220v-488zM362 823h211 q103 0 166.5 60.5t63.5 156.5q0 97 -62.5 158.5t-165.5 61.5h-213v-437z" />
<glyph unicode="C" horiz-adv-x="1138" d="M123 436v553q0 213 124.5 339t327.5 126q201 0 321 -123t120 -336v-53h-213v51q0 124 -61 194t-169 70q-109 0 -170 -70t-61 -194v-553q0 -124 61 -194t170 -70q108 0 169 70t61 194v72h213v-70q0 -213 -122.5 -337.5t-324.5 -124.5q-203 0 -324.5 121.5t-121.5 334.5z " />
<glyph unicode="D" horiz-adv-x="1167" d="M143 0v1434h428q223 0 348 -127.5t125 -362.5v-450q0 -233 -128 -363.5t-351 -130.5h-422zM362 195h201q126 0 193 77t67 220v450q0 143 -67 220t-193 77h-201v-1044z" />
<glyph unicode="E" horiz-adv-x="962" d="M143 0v1434h748v-195h-529v-405h447v-183h-447v-456h539v-195h-758z" />
<glyph unicode="F" horiz-adv-x="931" d="M143 0v1434h738v-195h-519v-471h437v-190h-437v-578h-219z" />
<glyph unicode="G" horiz-adv-x="1167" d="M123 446v533q0 218 127.5 346.5t335.5 128.5t333 -125.5t125 -343.5v-29h-221v27q0 129 -63 201.5t-176 72.5q-114 0 -178 -72.5t-64 -201.5v-528q0 -135 65 -210t181 -75t181 75t65 210v133h-240v164h450v-299q0 -217 -128 -345t-336 -128t-332.5 124.5t-124.5 341.5z " />
<glyph unicode="H" horiz-adv-x="1187" d="M143 0v1434h219v-584h461v584h221v-1434h-221v649h-461v-649h-219z" />
<glyph unicode="I" horiz-adv-x="534" d="M154 0v1434h227v-1434h-227z" />
<glyph unicode="J" horiz-adv-x="737" d="M31 0l37 195q40 -15 106 -15q97 0 150 63t53 177v1014h227v-1022q0 -203 -115 -317.5t-309 -114.5q-49 0 -86.5 5t-49.5 10z" />
<glyph unicode="K" horiz-adv-x="1058" d="M143 0v1434h219v-666l422 666h254l-467 -684l488 -750h-254l-443 707v-707h-219z" />
<glyph unicode="L" horiz-adv-x="901" d="M143 0v1434h219v-1235h498v-199h-717z" />
<glyph unicode="M" horiz-adv-x="1433" d="M143 0v1434h222l358 -887l356 887h211v-1434h-207v997l-315 -772h-104l-314 772v-997h-207z" />
<glyph unicode="N" horiz-adv-x="1208" d="M143 0v1434h215l504 -1010v1010h203v-1434h-203l-516 1034v-1034h-203z" />
<glyph unicode="O" horiz-adv-x="1167" d="M123 446v533q0 218 127.5 346.5t335.5 128.5t333 -125.5t125 -343.5v-532q0 -217 -128 -345t-336 -128t-332.5 124.5t-124.5 341.5zM342 451q0 -129 64 -202t178 -73q112 0 175.5 73t63.5 202v532q0 129 -63 201.5t-176 72.5q-114 0 -178 -72.5t-64 -201.5v-532z" />
<glyph unicode="P" horiz-adv-x="1095" d="M143 0v1434h402q217 0 353 -130t136 -327q0 -200 -137.5 -330.5t-357.5 -130.5h-177v-516h-219zM362 700h168q126 0 204.5 77.5t78.5 195.5t-77.5 194t-203.5 76h-170v-543z" />
<glyph unicode="Q" horiz-adv-x="1167" d="M123 446v533q0 218 127.5 346.5t335.5 128.5t333 -125.5t125 -343.5v-532q0 -135 -51.5 -237.5t-144.5 -160.5l162 -301h-222l-120 234q-58 -8 -88 -8q-208 0 -332.5 124.5t-124.5 341.5zM342 451q0 -129 64 -202t178 -73q112 0 175.5 73t63.5 202v532q0 129 -63 201.5 t-176 72.5q-114 0 -178 -72.5t-64 -201.5v-532z" />
<glyph unicode="R" horiz-adv-x="1126" d="M143 0v1434h418q211 0 342 -125.5t131 -317.5q0 -127 -66 -228.5t-182 -152.5l279 -610h-248l-235 551q-14 -2 -60 -2h-160v-549h-219zM362 721h179q122 0 198 75t76 187q0 111 -75 185.5t-197 74.5h-181v-522z" />
<glyph unicode="S" horiz-adv-x="1026" d="M61 328l181 69q3 -9 9.5 -25t30.5 -55.5t51.5 -70t74 -55.5t98.5 -25q92 0 147.5 50.5t55.5 135.5q0 91 -63 159t-200 148q-319 189 -319 431q0 162 113.5 263t283.5 101q69 0 130 -16.5t102.5 -43.5t75.5 -59.5t54 -64.5t34 -59t19 -43l5 -17l-180 -70q-2 8 -7 20.5 t-24.5 44.5t-44 57t-67 45t-91.5 20q-80 0 -131 -45t-51 -115q0 -59 31 -109t80.5 -89t136.5 -91q155 -92 243.5 -200t88.5 -248q0 -182 -117.5 -286.5t-300.5 -104.5q-73 0 -137 19t-108 50t-81 68t-59 74t-37 68t-21 50z" />
<glyph unicode="T" horiz-adv-x="952" d="M41 1233v201h870v-201h-325v-1233h-221v1233h-324z" />
<glyph unicode="U" horiz-adv-x="1167" d="M133 436v998h221v-994q0 -124 61.5 -194t170.5 -70q107 0 168 70t61 194v994h219v-992q0 -213 -125 -337.5t-329 -124.5q-203 0 -325 121.5t-122 334.5z" />
<glyph unicode="V" horiz-adv-x="1095" d="M0 1434h240l313 -1088l315 1088h228l-443 -1434h-211z" />
<glyph unicode="W" horiz-adv-x="1576" d="M0 1434h240l245 -1041l232 1041h153l232 -1041l248 1041h227l-381 -1434h-188l-220 961l-219 -961h-188z" />
<glyph unicode="X" d="M0 0l401 729l-381 705h246l260 -504l265 504h233l-383 -693l403 -741h-245l-283 541l-283 -541h-233z" />
<glyph unicode="Y" horiz-adv-x="1075" d="M0 1434h248l295 -660l297 660h235l-428 -881v-553h-219v553z" />
<glyph unicode="Z" horiz-adv-x="1003" d="M82 0v158l584 1085h-543v191h799v-160l-584 -1086h584v-188h-840z" />
<glyph unicode="[" horiz-adv-x="788" d="M164 -164v1761h543v-178h-342v-1407h342v-176h-543z" />
<glyph unicode="\" horiz-adv-x="884" d="M0 1597h178l707 -1761h-178z" />
<glyph unicode="]" horiz-adv-x="788" d="M82 12h342v1407h-342v178h543v-1761h-543v176z" />
<glyph unicode="^" horiz-adv-x="1005" d="M82 694l338 738h166l338 -738h-205l-215 529l-217 -529h-205z" />
<glyph unicode="_" horiz-adv-x="1024" d="M0 -102h1024v-144h-1024v144z" />
<glyph unicode="`" horiz-adv-x="757" d="M215 1516h217l127 -338h-160z" />
<glyph unicode="a" horiz-adv-x="1024" d="M82 301q0 143 100.5 235.5t268.5 92.5q159 0 249 -90v88q0 127 -63 192.5t-178 65.5q-71 0 -136 -16.5t-95 -32.5l-29 -17l-56 166q5 3 14.5 9t43 21t71 26t98 20.5t124.5 9.5q196 0 306.5 -111t110.5 -319v-641h-170l-14 98q-97 -118 -283 -118q-167 0 -264.5 89.5 t-97.5 231.5zM291 309q0 -76 57 -125t150 -49q97 0 155 49t58 125t-58.5 125t-154.5 49q-93 0 -150 -49t-57 -125z" />
<glyph unicode="b" horiz-adv-x="1064" d="M123 0v1434h209v-490q91 127 266 127q170 0 267.5 -101.5t97.5 -285.5v-313q0 -183 -100.5 -287t-270.5 -104q-189 0 -279 137l-6 -117h-184zM332 397q0 -108 57.5 -169.5t153.5 -61.5q95 0 152 61.5t57 169.5v256q0 106 -57.5 169t-151.5 63q-96 0 -153.5 -62.5 t-57.5 -169.5v-256z" />
<glyph unicode="c" horiz-adv-x="1015" d="M102 381v283q0 186 114.5 296.5t295.5 110.5t291 -106.5t110 -290.5v-19h-202v13q0 99 -54.5 158t-144.5 59q-91 0 -146 -59.5t-55 -161.5v-277q0 -103 54.5 -162t146.5 -59q90 0 144.5 58.5t54.5 156.5v22h202v-22q0 -182 -113 -291.5t-294 -109.5q-182 0 -293 107 t-111 294z" />
<glyph unicode="d" horiz-adv-x="1064" d="M102 365v313q0 184 99.5 288.5t269.5 104.5q171 0 260 -119v482h211v-1434h-184l-10 123q-44 -69 -117.5 -106t-165.5 -37q-170 0 -266.5 101t-96.5 284zM311 397q0 -108 57.5 -169.5t153.5 -61.5q95 0 152 61.5t57 169.5v256q0 106 -57.5 169t-151.5 63 q-96 0 -153.5 -62.5t-57.5 -169.5v-256z" />
<glyph unicode="e" horiz-adv-x="1036" d="M102 391v262q0 191 117.5 304.5t304.5 113.5q185 0 297.5 -110.5t112.5 -301.5v-151h-623v-111q0 -108 57.5 -169.5t153.5 -61.5q55 0 97 21.5t62 52t32.5 60.5t14.5 52l3 21l199 -41q-1 -7 -2.5 -20t-12 -49.5t-26 -69.5t-47.5 -74t-73.5 -70t-106.5 -49t-144 -20 q-188 0 -302 109.5t-114 301.5zM311 647h420v27q0 106 -57 168.5t-152 62.5q-96 0 -153.5 -62t-57.5 -169v-27z" />
<glyph unicode="f" horiz-adv-x="727" d="M31 846v164h164v137q0 149 79.5 228t221.5 79q61 0 113.5 -8t74.5 -16l23 -9l-27 -161q-55 18 -123 18q-76 0 -115 -37t-39 -121v-110h283v-164h-283v-846h-208v846h-164z" />
<glyph unicode="g" horiz-adv-x="1064" d="M102 457v221q0 184 99.5 288.5t269.5 104.5q189 0 277 -139l10 119h184v-932q0 -224 -122.5 -345.5t-338.5 -121.5q-64 0 -124.5 8.5t-101 20.5t-72 24t-45.5 21l-15 8l65 168q14 -7 38 -17.5t97.5 -28.5t143.5 -18q264 0 264 264v93q-91 -123 -266 -123 q-170 0 -266.5 101t-96.5 284zM311 479q0 -108 57.5 -169.5t153.5 -61.5q95 0 152 61.5t57 169.5v174q0 106 -57.5 169t-151.5 63q-96 0 -153.5 -62.5t-57.5 -169.5v-174z" />
<glyph unicode="h" horiz-adv-x="1054" d="M123 0v1434h209v-508q44 70 115.5 107.5t160.5 37.5q154 0 244 -101.5t90 -289.5v-680h-211v633q0 252 -192 252q-95 0 -151 -61.5t-56 -184.5v-639h-209z" />
<glyph unicode="i" horiz-adv-x="481" d="M102 1343q0 59 40 98.5t98 39.5q60 0 99.5 -39.5t39.5 -98.5t-39.5 -98t-99.5 -39q-59 0 -98.5 39.5t-39.5 97.5zM133 0v1051h215v-1051h-215z" />
<glyph unicode="j" horiz-adv-x="481" d="M-82 -334l23 176q40 -10 75 -10q54 0 85.5 34t31.5 101v1084h215v-1057q0 -168 -84.5 -255t-230.5 -87q-31 0 -60 3.5t-42 6.5zM102 1343q0 59 40 98.5t98 39.5q60 0 99.5 -39.5t39.5 -98.5t-39.5 -98t-99.5 -39q-59 0 -98.5 39.5t-39.5 97.5z" />
<glyph unicode="k" horiz-adv-x="962" d="M123 0v1434h209v-848l366 465h254l-409 -476l430 -575h-258l-383 535v-535h-209z" />
<glyph unicode="l" horiz-adv-x="481" d="M133 0v1434h215v-1434h-215z" />
<glyph unicode="m" horiz-adv-x="1622" d="M123 0v1051h184l8 -133q44 74 117.5 113.5t165.5 39.5q102 0 176.5 -48t110.5 -142q41 92 119.5 141t181.5 49q149 0 236 -100t87 -285v-686h-209v637q0 248 -182 248q-91 0 -143.5 -61.5t-52.5 -186.5v-637h-211v637q0 248 -183 248q-89 0 -142.5 -60t-53.5 -178v-647 h-209z" />
<glyph unicode="n" horiz-adv-x="1054" d="M123 0v1051h184l8 -136q45 76 121 116t172 40q154 0 244 -101.5t90 -289.5v-680h-211v633q0 252 -192 252q-93 0 -148.5 -61t-58.5 -183v-641h-209z" />
<glyph unicode="o" d="M102 391v262q0 191 117.5 304.5t304.5 113.5q189 0 303.5 -110.5t114.5 -301.5v-262q0 -192 -117.5 -304.5t-306.5 -112.5q-188 0 -302 109.5t-114 301.5zM311 397q0 -108 57.5 -169.5t153.5 -61.5q95 0 152 61.5t57 169.5v256q0 106 -57.5 169t-151.5 63 q-96 0 -153.5 -62.5t-57.5 -169.5v-256z" />
<glyph unicode="p" horiz-adv-x="1064" d="M123 -328v1379h184l8 -125q44 69 117.5 107t165.5 38q170 0 267.5 -101.5t97.5 -285.5v-313q0 -183 -100.5 -287t-270.5 -104q-173 0 -260 116v-424h-209zM332 397q0 -108 57.5 -169.5t153.5 -61.5q95 0 152 61.5t57 169.5v256q0 106 -57.5 169t-151.5 63 q-96 0 -153.5 -62.5t-57.5 -169.5v-256z" />
<glyph unicode="q" horiz-adv-x="1064" d="M102 365v313q0 184 99.5 288.5t269.5 104.5q189 0 277 -139l10 119h184v-1379h-211v430q-90 -122 -266 -122q-170 0 -266.5 101t-96.5 284zM311 397q0 -108 57.5 -169.5t153.5 -61.5q95 0 152 61.5t57 169.5v256q0 106 -57.5 169t-151.5 63q-96 0 -153.5 -62.5 t-57.5 -169.5v-256z" />
<glyph unicode="r" horiz-adv-x="698" d="M123 0v1051h184l12 -177q49 97 138.5 147t210.5 50v-213h-82q-119 0 -186.5 -74.5t-67.5 -224.5v-559h-209z" />
<glyph unicode="s" horiz-adv-x="839" d="M41 125l111 139q5 -5 14.5 -12.5t38.5 -27t58.5 -34.5t71.5 -27.5t81 -12.5q70 0 110.5 35t40.5 89q0 56 -45 101.5t-164 89.5q-266 103 -266 317q0 126 93.5 207.5t244.5 81.5q62 0 119 -12.5t94 -31t65 -36.5t41 -31l13 -12l-111 -141q-10 10 -27.5 25.5t-72.5 41 t-111 25.5q-64 0 -101.5 -31.5t-37.5 -74.5q0 -100 184 -172q146 -55 219.5 -135.5t73.5 -196.5q0 -138 -100 -223.5t-260 -85.5q-68 0 -131.5 15t-106 36t-75.5 42.5t-49 36.5z" />
<glyph unicode="t" horiz-adv-x="747" d="M31 887v164h164v260h208v-260h293v-164h-293v-580q0 -141 140 -141q28 0 59.5 4t49.5 8l18 4l26 -172q-80 -30 -221 -30q-130 0 -205 74.5t-75 211.5v621h-164z" />
<glyph unicode="u" horiz-adv-x="1054" d="M113 371v680h211v-633q0 -252 192 -252q93 0 148.5 61t58.5 183v641h209v-1051h-184l-9 135q-45 -76 -121 -115.5t-172 -39.5q-154 0 -243.5 101.5t-89.5 289.5z" />
<glyph unicode="v" horiz-adv-x="921" d="M10 1051h226l231 -750l231 750h213l-354 -1051h-195z" />
<glyph unicode="w" horiz-adv-x="1341" d="M10 1051h226l188 -727l182 727h142l180 -727l190 727h213l-307 -1051h-182l-172 668l-170 -668h-183z" />
<glyph unicode="x" horiz-adv-x="942" d="M0 0l354 535l-334 516h238l217 -355l219 355h228l-336 -506l356 -545h-240l-237 383l-240 -383h-225z" />
<glyph unicode="y" horiz-adv-x="921" d="M10 1051h226l231 -781l231 781h213l-366 -1088q-55 -167 -139 -239t-207 -72q-46 0 -88 9t-61 17l-19 9l41 166q41 -21 104 -21q70 0 114 40.5t72 127.5z" />
<glyph unicode="z" horiz-adv-x="870" d="M82 0v145l463 729h-432v177h675v-146l-464 -729h464v-176h-706z" />
<glyph unicode="{" horiz-adv-x="870" d="M82 633v166h92q59 0 86 25.5t27 86.5v373q0 159 77 236t234 77h190v-172h-157q-74 0 -109 -34.5t-35 -108.5v-354q0 -100 -42.5 -154t-116.5 -57q74 -5 116.5 -58.5t42.5 -154.5v-354q0 -75 35 -109.5t109 -34.5h157v-170h-190q-158 0 -234.5 76t-76.5 235v373 q0 61 -27 87t-86 26h-92z" />
<glyph unicode="|" horiz-adv-x="583" d="M205 -205v1843h174v-1843h-174z" />
<glyph unicode="}" horiz-adv-x="870" d="M82 8h158q74 0 108.5 34.5t34.5 109.5v354q0 100 43 154t117 57q-75 5 -117.5 58.5t-42.5 154.5v354q0 75 -34.5 109t-108.5 34h-158v170h190q158 0 235 -76t77 -235v-373q0 -61 26.5 -86.5t85.5 -25.5h92v-166h-92q-59 0 -85.5 -26t-26.5 -87v-372q0 -159 -77.5 -236.5 t-234.5 -77.5h-190v172z" />
<glyph unicode="~" d="M61 530q0 7 0.5 18.5t6 46t14.5 65.5t28.5 68.5t46.5 65t70.5 46t96.5 18.5t100 -19.5t82 -47.5t67.5 -56t69.5 -47.5t74 -19.5q31 0 54 16.5t33 39.5t16 46.5t6 39.5l1 17l156 -10q0 -7 -0.5 -18.5t-6 -46t-14.5 -65.5t-29 -68.5t-47 -65t-70.5 -46t-96.5 -18.5 t-100 19.5t-82 47.5t-67.5 56.5t-69.5 48t-74 19.5q-31 0 -54 -16.5t-33.5 -40t-16.5 -47t-6 -40.5l-1 -16z" />
<glyph unicode="&#xa1;" horiz-adv-x="542" d="M133 1317q0 59 39.5 98t99.5 39q59 0 98.5 -39.5t39.5 -97.5q0 -60 -39.5 -99.5t-98.5 -39.5q-60 0 -99.5 39.5t-39.5 99.5zM150 0l47 983h149l49 -983h-245z" />
<glyph unicode="&#xa2;" horiz-adv-x="1036" d="M113 764v283q0 166 94 272t250 125v174h131v-174q154 -19 245 -122t91 -269v-15h-203v9q0 102 -54.5 161.5t-144.5 59.5q-91 0 -145.5 -59.5t-54.5 -161.5v-277q0 -103 54 -162t146 -59q90 0 144.5 59t54.5 162v16h203v-16q0 -166 -92 -271.5t-244 -127.5v-172h-131v170 q-158 18 -251 122t-93 273z" />
<glyph unicode="&#xa3;" horiz-adv-x="1077" d="M31 635v127h164v280q0 188 112 300t289 112q174 0 281.5 -108.5t107.5 -294.5v-37h-203v35q0 100 -50 156.5t-138 56.5t-139.5 -57t-51.5 -156v-287h365v-127h-365v-451h549v-184h-757v635h-164z" />
<glyph unicode="&#xa4;" horiz-adv-x="1212" d="M82 279l164 155q-96 120 -96 279q0 162 98 280l-166 162l92 92l168 -164q125 84 266 84q145 0 264 -82l166 162l92 -92l-163 -158q98 -122 98 -278q0 -159 -100 -283l165 -157l-92 -93l-168 162q-119 -82 -266 -82q-148 0 -264 80l-166 -160zM332 717q0 -118 79 -198.5 t195 -80.5q117 0 196 80t79 199q0 117 -79 196.5t-196 79.5q-116 0 -195 -79.5t-79 -196.5z" />
<glyph unicode="&#xa5;" horiz-adv-x="1116" d="M41 1434h244l278 -586l279 586h233l-332 -635h291v-119h-350l-16 -35v-133h366v-119h-366v-393h-219v393h-367v119h367v133l-19 35h-348v119h291z" />
<glyph unicode="&#xa6;" horiz-adv-x="583" d="M205 -205v686h174v-686h-174zM205 952v686h174v-686h-174z" />
<glyph unicode="&#xa7;" horiz-adv-x="1146" d="M92 590q0 101 62 179.5t168 113.5q-107 96 -107 231q0 148 106 244t273 96q69 0 127.5 -15.5t97 -40t69.5 -54t48 -59t28.5 -54t15.5 -39.5l3 -16l-184 -62q-1 7 -3.5 17.5t-16.5 38.5t-34 49.5t-59 39t-88 17.5q-73 0 -120.5 -43t-47.5 -107q0 -67 47 -119.5t164 -95.5 q414 -149 414 -397q0 -101 -62.5 -180t-167.5 -113q107 -99 107 -229q0 -149 -107 -244.5t-274 -95.5q-68 0 -126.5 15.5t-97 40t-69 54t-47.5 59t-28.5 54t-14.5 39.5l-4 16l184 60q1 -7 3.5 -17.5t16.5 -38.5t33.5 -49.5t58 -39t87.5 -17.5q74 0 122 43t48 106 q0 68 -47.5 121t-165.5 95q-412 150 -412 397zM307 618q0 -74 64.5 -136.5t230.5 -121.5q21 -7 70 -28q76 9 122 50.5t46 102.5q0 75 -64 137.5t-231 122.5q-43 13 -74 29q-74 -11 -119 -53.5t-45 -102.5z" />
<glyph unicode="&#xa8;" d="M215 1339q0 51 34 85t85 34t85 -34t34 -85t-34 -84.5t-85 -33.5q-53 0 -86 33t-33 85zM592 1339q0 51 34 85t85 34t84.5 -34t33.5 -85t-33.5 -84.5t-84.5 -33.5q-53 0 -86 33t-33 85z" />
<glyph unicode="&#xa9;" horiz-adv-x="1650" d="M82 713q0 204 98.5 374t270 268.5t378.5 98.5q155 0 292.5 -56.5t235.5 -154t155 -233.5t57 -289t-58.5 -290t-158 -236t-238 -157t-293.5 -58q-207 0 -376.5 96.5t-266 264.5t-96.5 372zM215 717q0 -169 80.5 -310t221 -222t308.5 -81t307.5 81t220.5 222t81 310 t-81 310t-220.5 221.5t-307.5 80.5q-126 0 -239 -47.5t-194.5 -129t-129 -195t-47.5 -240.5zM434 713q0 172 117 290.5t295 118.5q60 0 114.5 -14.5t88.5 -35t60 -40.5t37 -34l11 -15l-108 -92q-3 4 -8 10t-23 21.5t-39 27.5t-56 21.5t-73 9.5q-111 0 -186.5 -75.5 t-75.5 -188.5t75.5 -188.5t186.5 -75.5q41 0 77.5 10.5t60 25.5t41 30t25.5 25l7 11l102 -92q-4 -6 -12 -16.5t-37.5 -36.5t-63.5 -46t-91 -36.5t-119 -16.5q-178 0 -292 115t-114 287z" />
<glyph unicode="&#xaa;" horiz-adv-x="714" d="M92 975q0 89 65 144t173 55q86 0 139 -44v46q0 139 -135 139q-45 0 -87 -10.5t-61 -20.5l-20 -10l-39 112q9 6 27 15.5t78 25t124 15.5q124 0 195.5 -67t71.5 -195v-389h-123l-11 49q-59 -62 -163 -62q-108 0 -171 53.5t-63 143.5zM113 565v105h510v-105h-510zM244 979 q0 -42 31.5 -69t82.5 -27q52 0 84.5 27t32.5 69t-32.5 69t-84.5 27q-51 0 -82.5 -27t-31.5 -69z" />
<glyph unicode="&#xab;" horiz-adv-x="1380" d="M82 680v72l465 430l112 -113l-350 -350l350 -348l-112 -121zM680 680v72l465 430l112 -113l-350 -350l350 -348l-112 -121z" />
<glyph unicode="&#xac;" d="M82 700v170h881v-512h-181v342h-700z" />
<glyph unicode="&#xad;" horiz-adv-x="737" d="M82 629v194h573v-194h-573z" />
<glyph unicode="&#xae;" horiz-adv-x="966" d="M82 1053q0 168 116.5 284.5t286.5 116.5q169 0 284.5 -115t115.5 -282q0 -168 -117 -284t-287 -116t-284.5 114t-114.5 282zM172 1055q0 -133 89.5 -222.5t221.5 -89.5q131 0 220.5 89.5t89.5 222.5q0 134 -89.5 223.5t-220.5 89.5q-133 0 -222 -89t-89 -224zM336 862 v387h174q62 0 101.5 -35t39.5 -92q0 -42 -22.5 -73t-61.5 -45l101 -142h-103l-88 131h-55v-131h-86zM422 1061h78q31 0 48 15.5t17 41.5q0 27 -17.5 42.5t-47.5 15.5h-78v-115z" />
<glyph unicode="&#xaf;" horiz-adv-x="942" d="M154 1286v133h634v-133h-634z" />
<glyph unicode="&#xb0;" horiz-adv-x="823" d="M72 1128q0 137 94.5 231.5t232.5 94.5t232 -92.5t94 -228.5q0 -137 -95.5 -230.5t-234.5 -93.5q-138 0 -230.5 91.5t-92.5 227.5zM217 1130q0 -78 51 -131t129 -53t129.5 53t51.5 131q0 79 -52 133t-129 54t-128.5 -54t-51.5 -133z" />
<glyph unicode="&#xb1;" d="M82 90v170h881v-170h-881zM82 815v168h354v356h172v-356h355v-168h-355v-356h-172v356h-354z" />
<glyph unicode="&#xb2;" horiz-adv-x="620" d="M61 573v105l289 364q62 76 62 158q0 52 -28.5 82.5t-76.5 30.5q-47 0 -74.5 -30.5t-27.5 -82.5v-45h-144v39q0 115 69.5 183.5t180.5 68.5q107 0 177.5 -63.5t70.5 -165.5q0 -122 -108 -256l-207 -259h315v-129h-498z" />
<glyph unicode="&#xb3;" horiz-adv-x="634" d="M61 799v35h140v-27q0 -55 29 -86t77 -31q50 0 79.5 32t29.5 87v29q0 57 -29.5 90t-81.5 33h-69v114h69q45 0 71.5 29t26.5 80v26q0 47 -26.5 76t-69.5 29q-42 0 -68 -27.5t-26 -75.5v-20h-139v20q0 103 67.5 168.5t171.5 65.5q103 0 170.5 -63.5t67.5 -161.5v-11 q0 -120 -100 -190q53 -29 82.5 -81t29.5 -116v-22q0 -105 -73 -172.5t-181 -67.5t-178 66t-70 172z" />
<glyph unicode="&#xb4;" horiz-adv-x="757" d="M199 1178l127 338h217l-185 -338h-159z" />
<glyph unicode="&#xb5;" horiz-adv-x="1064" d="M123 -328v1379h211v-633q0 -252 192 -252q93 0 150 59.5t57 177.5v648h209v-1051h-184l-10 129q-45 -72 -117 -110.5t-158 -38.5q-78 0 -139 28v-336h-211z" />
<glyph unicode="&#xb6;" horiz-adv-x="1335" d="M72 1038q0 170 115.5 283t308.5 113h655v-1434h-195v1260h-239v-1260h-195v649h-33q-193 0 -305 110t-112 279z" />
<glyph unicode="&#xb7;" horiz-adv-x="440" d="M82 715q0 60 39 99.5t98 39.5q60 0 99.5 -39.5t39.5 -99.5q0 -59 -39.5 -98t-99.5 -39q-59 0 -98 39t-39 98z" />
<glyph unicode="&#xb8;" horiz-adv-x="727" d="M170 -365l25 132q38 -25 110 -25q64 0 101.5 34t37.5 93q0 39 -18 72t-36 46l-17 13l78 76q6 -3 16.5 -8t37 -24.5t46.5 -43.5t36.5 -65t16.5 -87q0 -115 -81 -181t-199 -66q-41 0 -79.5 8.5t-56.5 16.5z" />
<glyph unicode="&#xb9;" horiz-adv-x="524" d="M31 1225l258 209h123v-861h-148v687l-162 -130z" />
<glyph unicode="&#xba;" horiz-adv-x="720" d="M92 1040v136q0 123 74 194.5t196 71.5q121 0 194 -70t73 -194v-134q0 -124 -74.5 -195t-196.5 -71t-194 69.5t-72 192.5zM113 565v105h495v-105h-495zM244 1040q0 -131 116 -131q53 0 84 32.5t31 98.5v140q0 129 -115 129q-116 0 -116 -129v-140z" />
<glyph unicode="&#xbb;" horiz-adv-x="1380" d="M123 365l350 350l-350 348l113 121l464 -430v-72l-464 -430zM721 365l350 350l-350 348l113 121l464 -430v-72l-464 -430z" />
<glyph unicode="&#xbc;" horiz-adv-x="1495" d="M31 1225l258 209h123v-861h-148v687l-162 -130zM225 0l949 1434h141l-948 -1434h-142zM834 201v118l315 541h145v-545h99v-114h-99v-201h-141v201h-319zM950 315h203v344z" />
<glyph unicode="&#xbd;" horiz-adv-x="1607" d="M31 1225l258 209h123v-861h-148v687l-162 -130zM225 0l949 1434h141l-948 -1434h-142zM1008 0v104l288 365q62 76 62 158q0 52 -28.5 82t-76.5 30q-47 0 -74.5 -30t-27.5 -82v-45h-143v39q0 115 69 183t180 68q107 0 177.5 -63.5t70.5 -165.5q0 -122 -108 -256l-207 -258 h315v-129h-497z" />
<glyph unicode="&#xbe;" horiz-adv-x="1515" d="M61 799v35h140v-27q0 -55 29 -86t77 -31q50 0 79.5 32t29.5 87v29q0 57 -29.5 90t-81.5 33h-69v114h69q45 0 71.5 29t26.5 80v26q0 47 -26.5 76t-69.5 29q-42 0 -68 -27.5t-26 -75.5v-20h-139v20q0 103 67.5 168.5t171.5 65.5q103 0 170.5 -63.5t67.5 -161.5v-11 q0 -120 -100 -190q53 -29 82.5 -81t29.5 -116v-22q0 -105 -73 -172.5t-181 -67.5t-178 66t-70 172zM246 0l948 1434h141l-948 -1434h-141zM854 201v118l315 541h146v-545h98v-114h-98v-201h-141v201h-320zM971 315h203v344z" />
<glyph unicode="&#xbf;" horiz-adv-x="983" d="M82 362q0 61 16.5 116.5t43.5 97t59 80t64.5 73.5t59.5 69.5t43.5 75.5t16.5 84v25h195v-41q0 -60 -21.5 -115.5t-53 -95.5t-69 -84t-69 -82t-53 -88t-21.5 -102q0 -95 52 -149t140 -54q89 0 141 58t52 159v51h203v-39q0 -190 -112.5 -305.5t-289.5 -115.5 q-171 0 -284 106t-113 276zM344 1317q0 59 39 98t98 39q60 0 100 -39t40 -98q0 -60 -40 -99.5t-100 -39.5q-59 0 -98 39.5t-39 99.5z" />
<glyph unicode="&#xc0;" horiz-adv-x="1105" d="M0 0l446 1434h211l449 -1434h-232l-104 352h-448l-103 -352h-219zM287 1884h217l127 -338h-160zM365 520h360l-180 610z" />
<glyph unicode="&#xc1;" horiz-adv-x="1105" d="M0 0l446 1434h211l449 -1434h-232l-104 352h-448l-103 -352h-219zM365 520h360l-180 610zM475 1546l127 338h217l-184 -338h-160z" />
<glyph unicode="&#xc2;" horiz-adv-x="1105" d="M0 0l446 1434h211l449 -1434h-232l-104 352h-448l-103 -352h-219zM221 1546l246 338h174l246 -338h-174l-164 199l-162 -199h-166zM365 520h360l-180 610z" />
<glyph unicode="&#xc3;" horiz-adv-x="1105" d="M0 0l446 1434h211l449 -1434h-232l-104 352h-448l-103 -352h-219zM233 1602q0 5 0.5 13.5t4.5 33.5t11 48t21 51t33.5 48t51 33.5t69.5 13.5q39 0 71.5 -14t54 -34.5t41 -40.5t41.5 -34t46 -14q30 0 48 29t21 57l3 29l122 -9q0 -5 -0.5 -14t-4.5 -34t-11 -48t-21.5 -51 t-34 -48t-51 -34t-69.5 -14t-70.5 14.5t-54.5 35t-41 40.5t-41.5 34.5t-46.5 14.5q-30 0 -47.5 -29t-20.5 -57l-2 -29zM365 520h360l-180 610z" />
<glyph unicode="&#xc4;" horiz-adv-x="1105" d="M0 0l446 1434h211l449 -1434h-232l-104 352h-448l-103 -352h-219zM246 1708q0 51 34 85t85 34t84.5 -34t33.5 -85t-33.5 -85t-84.5 -34q-53 0 -86 33.5t-33 85.5zM365 520h360l-180 610zM623 1708q0 51 33.5 85t84.5 34t85 -34t34 -85t-34 -85t-85 -34q-52 0 -85 33 t-33 86z" />
<glyph unicode="&#xc5;" horiz-adv-x="1105" d="M0 0l446 1434h211l449 -1434h-232l-104 352h-448l-103 -352h-219zM348 1724q0 86 58 141.5t147 55.5q88 0 146.5 -55.5t58.5 -141.5q0 -83 -58.5 -137.5t-146.5 -54.5q-89 0 -147 54.5t-58 137.5zM365 520h360l-180 610zM451 1724q0 -41 29.5 -69.5t72.5 -28.5t71.5 28.5 t28.5 69.5q0 44 -28.5 72.5t-71.5 28.5t-72.5 -28.5t-29.5 -72.5z" />
<glyph unicode="&#xc6;" horiz-adv-x="1566" d="M-10 0l628 1434h877v-195h-528v-405h446v-183h-446v-456h538v-195h-757v354h-377l-156 -354h-225zM432 520h316v733z" />
<glyph unicode="&#xc7;" horiz-adv-x="1138" d="M123 436v553q0 213 124.5 339t327.5 126q201 0 321 -123t120 -336v-53h-213v51q0 124 -61 194t-169 70q-109 0 -170 -70t-61 -194v-553q0 -124 61 -194t170 -70q108 0 169 70t61 194v72h213v-70q0 -191 -99 -311t-268 -145q43 -60 43 -138q0 -115 -81 -181t-199 -66 q-41 0 -79.5 8.5t-56.5 16.5l-18 9l25 132q38 -25 110 -25q64 0 101.5 34t37.5 93q0 40 -17 71t-38 48q-165 25 -259.5 142.5t-94.5 305.5z" />
<glyph unicode="&#xc8;" horiz-adv-x="962" d="M143 0v1434h748v-195h-529v-405h447v-183h-447v-456h539v-195h-758zM276 1884h218l127 -338h-160z" />
<glyph unicode="&#xc9;" horiz-adv-x="962" d="M143 0v1434h748v-195h-529v-405h447v-183h-447v-456h539v-195h-758zM444 1546l127 338h217l-184 -338h-160z" />
<glyph unicode="&#xca;" horiz-adv-x="962" d="M143 0v1434h748v-195h-529v-405h447v-183h-447v-456h539v-195h-758zM178 1546l246 338h174l246 -338h-174l-164 199l-162 -199h-166z" />
<glyph unicode="&#xcb;" horiz-adv-x="962" d="M143 0v1434h748v-195h-529v-405h447v-183h-447v-456h539v-195h-758zM205 1708q0 51 34 85t85 34t84.5 -34t33.5 -85t-33.5 -85t-84.5 -34q-52 0 -85.5 33.5t-33.5 85.5zM582 1708q0 51 33.5 85t84.5 34t85 -34t34 -85t-34 -85t-85 -34q-52 0 -85 33t-33 86z" />
<glyph unicode="&#xcc;" horiz-adv-x="534" d="M0 1884h217l127 -338h-160zM154 0v1434h227v-1434h-227z" />
<glyph unicode="&#xcd;" horiz-adv-x="534" d="M154 0v1434h227v-1434h-227zM190 1546l127 338h218l-185 -338h-160z" />
<glyph unicode="&#xce;" horiz-adv-x="534" d="M-66 1546l246 338h174l246 -338h-174l-164 199l-162 -199h-166zM154 0v1434h227v-1434h-227z" />
<glyph unicode="&#xcf;" horiz-adv-x="534" d="M-41 1708q0 51 34 85t85 34t85 -34t34 -85t-34 -85t-85 -34q-52 0 -85.5 33.5t-33.5 85.5zM154 0v1434h227v-1434h-227zM336 1708q0 51 34 85t85 34t84.5 -34t33.5 -85t-33.5 -85t-84.5 -34q-53 0 -86 33.5t-33 85.5z" />
<glyph unicode="&#xd0;" horiz-adv-x="1239" d="M41 662v131h174v641h428q224 0 348.5 -127.5t124.5 -362.5v-450q0 -234 -127.5 -364t-351.5 -130h-422v662h-174zM436 195h199q127 0 194.5 77t67.5 220v450q0 143 -67.5 220t-194.5 77h-199v-446h260v-131h-260v-467z" />
<glyph unicode="&#xd1;" horiz-adv-x="1208" d="M143 0v1434h215l504 -1010v1010h203v-1434h-203l-516 1034v-1034h-203zM293 1602q0 10 1.5 26t12 57.5t28 73.5t56.5 58t92 26q39 0 71.5 -14t54 -34.5t41 -40.5t41.5 -34t46 -14q30 0 48 29t21 57l3 29l123 -9q0 -5 -0.5 -14t-5 -34t-11.5 -48t-21.5 -51t-34 -48 t-51 -34t-69.5 -14t-70.5 14.5t-54.5 35t-41 40.5t-41.5 34.5t-46.5 14.5q-30 0 -47.5 -29t-19.5 -57l-2 -29z" />
<glyph unicode="&#xd2;" horiz-adv-x="1167" d="M123 446v533q0 218 127.5 346.5t335.5 128.5t333 -125.5t125 -343.5v-532q0 -217 -128 -345t-336 -128t-332.5 124.5t-124.5 341.5zM328 1884h217l127 -338h-160zM342 451q0 -129 64 -202t178 -73q112 0 175.5 73t63.5 202v532q0 129 -63 201.5t-176 72.5 q-114 0 -178 -72.5t-64 -201.5v-532z" />
<glyph unicode="&#xd3;" horiz-adv-x="1167" d="M123 446v533q0 218 127.5 346.5t335.5 128.5t333 -125.5t125 -343.5v-532q0 -217 -128 -345t-336 -128t-332.5 124.5t-124.5 341.5zM342 451q0 -129 64 -202t178 -73q112 0 175.5 73t63.5 202v532q0 129 -63 201.5t-176 72.5q-114 0 -178 -72.5t-64 -201.5v-532z M496 1546l127 338h217l-185 -338h-159z" />
<glyph unicode="&#xd4;" horiz-adv-x="1167" d="M123 446v533q0 218 127.5 346.5t335.5 128.5t333 -125.5t125 -343.5v-532q0 -217 -128 -345t-336 -128t-332.5 124.5t-124.5 341.5zM250 1546l246 338h174l245 -338h-174l-163 199l-162 -199h-166zM342 451q0 -129 64 -202t178 -73q112 0 175.5 73t63.5 202v532 q0 129 -63 201.5t-176 72.5q-114 0 -178 -72.5t-64 -201.5v-532z" />
<glyph unicode="&#xd5;" horiz-adv-x="1167" d="M123 446v533q0 218 127.5 346.5t335.5 128.5t333 -125.5t125 -343.5v-532q0 -217 -128 -345t-336 -128t-332.5 124.5t-124.5 341.5zM264 1602q0 5 0.5 13.5t4.5 33.5t11 48t21 51t33.5 48t51 33.5t69.5 13.5q39 0 71.5 -14t54 -34.5t41 -40.5t41.5 -34t46 -14q30 0 48 29 t21 57l2 29l123 -9q0 -5 -0.5 -14t-4.5 -34t-11 -48t-21.5 -51t-34 -48t-51 -34t-69.5 -14t-70.5 14.5t-54.5 35t-41 40.5t-41.5 34.5t-46.5 14.5q-30 0 -47.5 -29t-19.5 -57l-3 -29zM342 451q0 -129 64 -202t178 -73q112 0 175.5 73t63.5 202v532q0 129 -63 201.5 t-176 72.5q-114 0 -178 -72.5t-64 -201.5v-532z" />
<glyph unicode="&#xd6;" horiz-adv-x="1167" d="M123 446v533q0 218 127.5 346.5t335.5 128.5t333 -125.5t125 -343.5v-532q0 -217 -128 -345t-336 -128t-332.5 124.5t-124.5 341.5zM276 1708q0 51 34 85t85 34t85 -34t34 -85t-34 -85t-85 -34q-53 0 -86 33.5t-33 85.5zM342 451q0 -129 64 -202t178 -73q112 0 175.5 73 t63.5 202v532q0 129 -63 201.5t-176 72.5q-114 0 -178 -72.5t-64 -201.5v-532zM653 1708q0 51 34 85t85 34t85 -34t34 -85t-34 -85t-85 -34q-52 0 -85.5 33.5t-33.5 85.5z" />
<glyph unicode="&#xd7;" d="M94 408l314 307l-314 309l117 117l309 -314l309 314l119 -117l-315 -309l315 -307l-119 -119l-309 313l-309 -313z" />
<glyph unicode="&#xd8;" horiz-adv-x="1167" d="M92 -61l115 213q-84 120 -84 294v533q0 218 127.5 346.5t335.5 128.5q162 0 282 -84l70 125h137l-117 -215q86 -119 86 -295v-532q0 -217 -128 -345t-336 -128q-170 0 -285 83l-68 -124h-135zM338 451q0 -38 2 -54l428 785q-67 80 -184 80q-115 0 -180.5 -74t-65.5 -205 v-532zM397 252q63 -82 187 -82q115 0 180 74.5t65 206.5v532q0 19 -4 55z" />
<glyph unicode="&#xd9;" horiz-adv-x="1167" d="M133 436v998h221v-994q0 -124 61.5 -194t170.5 -70q107 0 168 70t61 194v994h219v-992q0 -213 -125 -337.5t-329 -124.5q-203 0 -325 121.5t-122 334.5zM330 1884h217l127 -338h-160z" />
<glyph unicode="&#xda;" horiz-adv-x="1167" d="M133 436v998h221v-994q0 -124 61.5 -194t170.5 -70q107 0 168 70t61 194v994h219v-992q0 -213 -125 -337.5t-329 -124.5q-203 0 -325 121.5t-122 334.5zM516 1546l127 338h217l-184 -338h-160z" />
<glyph unicode="&#xdb;" horiz-adv-x="1167" d="M133 436v998h221v-994q0 -124 61.5 -194t170.5 -70q107 0 168 70t61 194v994h219v-992q0 -213 -125 -337.5t-329 -124.5q-203 0 -325 121.5t-122 334.5zM252 1546l246 338h174l246 -338h-175l-163 199l-162 -199h-166z" />
<glyph unicode="&#xdc;" horiz-adv-x="1167" d="M133 436v998h221v-994q0 -124 61.5 -194t170.5 -70q107 0 168 70t61 194v994h219v-992q0 -213 -125 -337.5t-329 -124.5q-203 0 -325 121.5t-122 334.5zM279 1708q0 51 33.5 85t84.5 34t85 -34t34 -85t-34 -85t-85 -34q-52 0 -85 33t-33 86zM655 1708q0 51 34 85t85 34 t85 -34t34 -85t-34 -85t-85 -34q-52 0 -85.5 33.5t-33.5 85.5z" />
<glyph unicode="&#xdd;" horiz-adv-x="1075" d="M0 1434h248l295 -660l297 660h235l-428 -881v-553h-219v553zM475 1546l127 338h217l-184 -338h-160z" />
<glyph unicode="&#xde;" horiz-adv-x="1105" d="M143 0v1434h222v-242h170q219 0 354 -125.5t135 -316.5q0 -192 -138 -320.5t-358 -128.5h-163v-301h-222zM365 485h155q128 0 206.5 75t78.5 188q0 111 -77.5 185.5t-205.5 74.5h-157v-523z" />
<glyph unicode="&#xdf;" horiz-adv-x="1105" d="M123 0v1057q0 184 114.5 290.5t299.5 106.5q182 0 293.5 -100t111.5 -269v-22q0 -96 -39.5 -172t-109.5 -123q109 -40 170 -131.5t61 -224.5v-27q0 -185 -114 -295t-294 -110q-36 0 -70 4t-50 8l-17 4l19 180q37 -10 96 -10q101 0 161 61.5t60 167.5v25q0 107 -60.5 170 t-160.5 63h-82v178h20q91 0 146 56t55 149v27q0 93 -55 149t-146 56q-90 0 -144 -57.5t-54 -157.5v-1053h-211z" />
<glyph unicode="&#xe0;" horiz-adv-x="1024" d="M82 301q0 143 100.5 235.5t268.5 92.5q159 0 249 -90v88q0 127 -63 192.5t-178 65.5q-71 0 -136 -16.5t-95 -32.5l-29 -17l-56 166q5 3 14.5 9t43 21t71 26t98 20.5t124.5 9.5q196 0 306.5 -111t110.5 -319v-641h-170l-14 98q-97 -118 -283 -118q-167 0 -264.5 89.5 t-97.5 231.5zM258 1516h217l127 -338h-160zM291 309q0 -76 57 -125t150 -49q97 0 155 49t58 125t-58.5 125t-154.5 49q-93 0 -150 -49t-57 -125z" />
<glyph unicode="&#xe1;" horiz-adv-x="1024" d="M82 301q0 143 100.5 235.5t268.5 92.5q159 0 249 -90v88q0 127 -63 192.5t-178 65.5q-71 0 -136 -16.5t-95 -32.5l-29 -17l-56 166q5 3 14.5 9t43 21t71 26t98 20.5t124.5 9.5q196 0 306.5 -111t110.5 -319v-641h-170l-14 98q-97 -118 -283 -118q-167 0 -264.5 89.5 t-97.5 231.5zM291 309q0 -76 57 -125t150 -49q97 0 155 49t58 125t-58.5 125t-154.5 49q-93 0 -150 -49t-57 -125zM449 1178l126 338h218l-185 -338h-159z" />
<glyph unicode="&#xe2;" horiz-adv-x="1024" d="M82 301q0 143 100.5 235.5t268.5 92.5q159 0 249 -90v88q0 127 -63 192.5t-178 65.5q-71 0 -136 -16.5t-95 -32.5l-29 -17l-56 166q5 3 14.5 9t43 21t71 26t98 20.5t124.5 9.5q196 0 306.5 -111t110.5 -319v-641h-170l-14 98q-97 -118 -283 -118q-167 0 -264.5 89.5 t-97.5 231.5zM182 1178l246 338h174l246 -338h-174l-164 198l-162 -198h-166zM291 309q0 -76 57 -125t150 -49q97 0 155 49t58 125t-58.5 125t-154.5 49q-93 0 -150 -49t-57 -125z" />
<glyph unicode="&#xe3;" horiz-adv-x="1024" d="M82 301q0 143 100.5 235.5t268.5 92.5q159 0 249 -90v88q0 127 -63 192.5t-178 65.5q-71 0 -136 -16.5t-95 -32.5l-29 -17l-56 166q5 3 14.5 9t43 21t71 26t98 20.5t124.5 9.5q196 0 306.5 -111t110.5 -319v-641h-170l-14 98q-97 -118 -283 -118q-167 0 -264.5 89.5 t-97.5 231.5zM207 1233q0 10 1.5 26t12 58t28 74t56.5 58t92 26q39 0 71.5 -14t54 -34.5t41 -41t41.5 -34.5t46 -14q30 0 48 28.5t21 57.5l3 29l123 -8q0 -5 -0.5 -14t-5 -34t-11.5 -48t-21.5 -51.5t-34 -48.5t-51 -34t-69.5 -14t-70.5 14.5t-54.5 35t-41 40.5t-41.5 34.5 t-46.5 14.5q-30 0 -47.5 -28.5t-19.5 -56.5l-2 -29zM291 309q0 -76 57 -125t150 -49q97 0 155 49t58 125t-58.5 125t-154.5 49q-93 0 -150 -49t-57 -125z" />
<glyph unicode="&#xe4;" horiz-adv-x="1024" d="M82 301q0 143 100.5 235.5t268.5 92.5q159 0 249 -90v88q0 127 -63 192.5t-178 65.5q-71 0 -136 -16.5t-95 -32.5l-29 -17l-56 166q5 3 14.5 9t43 21t71 26t98 20.5t124.5 9.5q196 0 306.5 -111t110.5 -319v-641h-170l-14 98q-97 -118 -283 -118q-167 0 -264.5 89.5 t-97.5 231.5zM209 1339q0 51 34 85t85 34t84.5 -34t33.5 -85t-33.5 -84.5t-84.5 -33.5q-53 0 -86 33t-33 85zM291 309q0 -76 57 -125t150 -49q97 0 155 49t58 125t-58.5 125t-154.5 49q-93 0 -150 -49t-57 -125zM586 1339q0 51 34 85t85 34t84.5 -34t33.5 -85t-33.5 -84.5 t-84.5 -33.5q-53 0 -86 33t-33 85z" />
<glyph unicode="&#xe5;" horiz-adv-x="1024" d="M82 301q0 143 100.5 235.5t268.5 92.5q159 0 249 -90v88q0 127 -63 192.5t-178 65.5q-71 0 -136 -16.5t-95 -32.5l-29 -17l-56 166q5 3 14.5 9t43 21t71 26t98 20.5t124.5 9.5q196 0 306.5 -111t110.5 -319v-641h-170l-14 98q-97 -118 -283 -118q-167 0 -264.5 89.5 t-97.5 231.5zM291 309q0 -76 57 -125t150 -49q97 0 155 49t58 125t-58.5 125t-154.5 49q-93 0 -150 -49t-57 -125zM311 1356q0 86 58 141t147 55q88 0 146.5 -55t58.5 -141q0 -83 -58.5 -138t-146.5 -55q-89 0 -147 55t-58 138zM414 1356q0 -41 29.5 -70t72.5 -29 q42 0 71 28.5t29 70.5q0 44 -28.5 72t-71.5 28t-72.5 -28t-29.5 -72z" />
<glyph unicode="&#xe6;" horiz-adv-x="1636" d="M82 301q0 143 100.5 235.5t268.5 92.5q158 0 251 -90v88q0 127 -63 192.5t-178 65.5q-72 0 -137 -16.5t-94 -32.5l-29 -17l-58 166q5 3 14.5 9t43 21t71.5 26t98.5 20.5t125.5 9.5q109 0 190 -43t125 -125q48 80 129 124t184 44q185 0 297.5 -110.5t112.5 -301.5v-151 h-623v-111q0 -108 57.5 -169.5t153.5 -61.5q55 0 97 21.5t62 52t32.5 60.5t14.5 52l3 21l199 -41q-1 -7 -2.5 -20t-12 -49.5t-26 -69.5t-47.5 -74t-73.5 -70t-106.5 -49t-144 -20q-220 0 -317 167q-45 -78 -135 -122.5t-211 -44.5q-174 0 -273.5 89t-99.5 232zM293 309 q0 -76 57 -125t150 -49q97 0 155 49t58 125t-59.5 125t-153.5 49q-93 0 -150 -49t-57 -125zM911 647h420v27q0 106 -57 168.5t-152 62.5q-96 0 -153.5 -62t-57.5 -169v-27z" />
<glyph unicode="&#xe7;" horiz-adv-x="1015" d="M102 381v283q0 186 114.5 296.5t295.5 110.5t291 -106.5t110 -290.5v-19h-202v13q0 99 -54.5 158t-144.5 59q-91 0 -146 -59.5t-55 -161.5v-277q0 -103 54.5 -162t146.5 -59q90 0 144.5 58.5t54.5 156.5v22h202v-22q0 -160 -89 -265.5t-236 -129.5q43 -60 43 -138 q0 -115 -81.5 -181t-199.5 -66q-41 0 -79 8.5t-56 16.5l-18 9l24 132q39 -25 111 -25q64 0 101.5 34t37.5 93q0 70 -55 119q-144 25 -229 128t-85 265z" />
<glyph unicode="&#xe8;" horiz-adv-x="1036" d="M102 391v262q0 191 117.5 304.5t304.5 113.5q185 0 297.5 -110.5t112.5 -301.5v-151h-623v-111q0 -108 57.5 -169.5t153.5 -61.5q55 0 97 21.5t62 52t32.5 60.5t14.5 52l3 21l199 -41q-1 -7 -2.5 -20t-12 -49.5t-26 -69.5t-47.5 -74t-73.5 -70t-106.5 -49t-144 -20 q-188 0 -302 109.5t-114 301.5zM266 1516h217l127 -338h-159zM311 647h420v27q0 106 -57 168.5t-152 62.5q-96 0 -153.5 -62t-57.5 -169v-27z" />
<glyph unicode="&#xe9;" horiz-adv-x="1036" d="M102 391v262q0 191 117.5 304.5t304.5 113.5q185 0 297.5 -110.5t112.5 -301.5v-151h-623v-111q0 -108 57.5 -169.5t153.5 -61.5q55 0 97 21.5t62 52t32.5 60.5t14.5 52l3 21l199 -41q-1 -7 -2.5 -20t-12 -49.5t-26 -69.5t-47.5 -74t-73.5 -70t-106.5 -49t-144 -20 q-188 0 -302 109.5t-114 301.5zM311 647h420v27q0 106 -57 168.5t-152 62.5q-96 0 -153.5 -62t-57.5 -169v-27zM455 1178l127 338h217l-185 -338h-159z" />
<glyph unicode="&#xea;" horiz-adv-x="1036" d="M102 391v262q0 191 117.5 304.5t304.5 113.5q185 0 297.5 -110.5t112.5 -301.5v-151h-623v-111q0 -108 57.5 -169.5t153.5 -61.5q55 0 97 21.5t62 52t32.5 60.5t14.5 52l3 21l199 -41q-1 -7 -2.5 -20t-12 -49.5t-26 -69.5t-47.5 -74t-73.5 -70t-106.5 -49t-144 -20 q-188 0 -302 109.5t-114 301.5zM184 1178l246 338h174l246 -338h-174l-164 198l-162 -198h-166zM311 647h420v27q0 106 -57 168.5t-152 62.5q-96 0 -153.5 -62t-57.5 -169v-27z" />
<glyph unicode="&#xeb;" horiz-adv-x="1036" d="M102 391v262q0 191 117.5 304.5t304.5 113.5q185 0 297.5 -110.5t112.5 -301.5v-151h-623v-111q0 -108 57.5 -169.5t153.5 -61.5q55 0 97 21.5t62 52t32.5 60.5t14.5 52l3 21l199 -41q-1 -7 -2.5 -20t-12 -49.5t-26 -69.5t-47.5 -74t-73.5 -70t-106.5 -49t-144 -20 q-188 0 -302 109.5t-114 301.5zM209 1339q0 51 34 85t85 34t84.5 -34t33.5 -85t-33.5 -84.5t-84.5 -33.5q-53 0 -86 33t-33 85zM311 647h420v27q0 106 -57 168.5t-152 62.5q-96 0 -153.5 -62t-57.5 -169v-27zM586 1339q0 51 34 85t85 34t84.5 -34t33.5 -85t-33.5 -84.5 t-84.5 -33.5q-53 0 -86 33t-33 85z" />
<glyph unicode="&#xec;" horiz-adv-x="481" d="M-31 1516h217l127 -338h-159zM133 0v1051h215v-1051h-215z" />
<glyph unicode="&#xed;" horiz-adv-x="481" d="M133 0v1051h215v-1051h-215zM168 1178l127 338h217l-184 -338h-160z" />
<glyph unicode="&#xee;" horiz-adv-x="481" d="M-92 1178l246 338h174l245 -338h-174l-163 198l-162 -198h-166zM133 0v1051h215v-1051h-215z" />
<glyph unicode="&#xef;" horiz-adv-x="481" d="M-66 1339q0 51 34 85t85 34t85 -34t34 -85t-34 -84.5t-85 -33.5q-53 0 -86 33t-33 85zM133 0v1051h215v-1051h-215zM311 1339q0 51 34 85t85 34t85 -34t34 -85t-34 -84.5t-85 -33.5q-53 0 -86 33t-33 85z" />
<glyph unicode="&#xf0;" d="M102 391v242q0 185 108 291t284 106q88 0 168 -49l-115 215l-281 -63v120l223 52l-67 129h213l41 -86l266 59v-121l-215 -49l141 -289q74 -151 74 -319v-232q0 -191 -117.5 -304t-306.5 -113q-187 0 -301.5 110t-114.5 301zM311 397q0 -107 57.5 -169t153.5 -62 q95 0 152 62.5t57 168.5v236q0 108 -57 169.5t-152 61.5q-96 0 -153.5 -61.5t-57.5 -169.5v-236z" />
<glyph unicode="&#xf1;" horiz-adv-x="1054" d="M123 0v1051h184l8 -136q45 76 121 116t172 40q154 0 244 -101.5t90 -289.5v-680h-211v633q0 252 -192 252q-93 0 -148.5 -61t-58.5 -183v-641h-209zM211 1233q0 10 1.5 26t12 58t28 74t56.5 58t92 26q39 0 71.5 -14t54 -34.5t41 -41t41.5 -34.5t46 -14q30 0 48 28.5 t21 57.5l3 29l123 -8q0 -5 -0.5 -14t-5 -34t-11.5 -48t-21.5 -51.5t-34 -48.5t-51 -34t-69.5 -14t-70.5 14.5t-54.5 35t-41 40.5t-41.5 34.5t-46.5 14.5q-30 0 -47.5 -28.5t-19.5 -56.5l-2 -29z" />
<glyph unicode="&#xf2;" d="M102 391v262q0 191 117.5 304.5t304.5 113.5q189 0 303.5 -110.5t114.5 -301.5v-262q0 -192 -117.5 -304.5t-306.5 -112.5q-188 0 -302 109.5t-114 301.5zM266 1516h217l127 -338h-159zM311 397q0 -108 57.5 -169.5t153.5 -61.5q95 0 152 61.5t57 169.5v256 q0 106 -57.5 169t-151.5 63q-96 0 -153.5 -62.5t-57.5 -169.5v-256z" />
<glyph unicode="&#xf3;" d="M102 391v262q0 191 117.5 304.5t304.5 113.5q189 0 303.5 -110.5t114.5 -301.5v-262q0 -192 -117.5 -304.5t-306.5 -112.5q-188 0 -302 109.5t-114 301.5zM311 397q0 -108 57.5 -169.5t153.5 -61.5q95 0 152 61.5t57 169.5v256q0 106 -57.5 169t-151.5 63 q-96 0 -153.5 -62.5t-57.5 -169.5v-256zM444 1178l127 338h217l-184 -338h-160z" />
<glyph unicode="&#xf4;" d="M102 391v262q0 191 117.5 304.5t304.5 113.5q189 0 303.5 -110.5t114.5 -301.5v-262q0 -192 -117.5 -304.5t-306.5 -112.5q-188 0 -302 109.5t-114 301.5zM188 1178l246 338h174l246 -338h-174l-164 198l-162 -198h-166zM311 397q0 -108 57.5 -169.5t153.5 -61.5 q95 0 152 61.5t57 169.5v256q0 106 -57.5 169t-151.5 63q-96 0 -153.5 -62.5t-57.5 -169.5v-256z" />
<glyph unicode="&#xf5;" d="M102 391v262q0 191 117.5 304.5t304.5 113.5q189 0 303.5 -110.5t114.5 -301.5v-262q0 -192 -117.5 -304.5t-306.5 -112.5q-188 0 -302 109.5t-114 301.5zM201 1233q0 10 1.5 26t12 58t28 74t56.5 58t92 26q39 0 71.5 -14t54 -34.5t41 -41t41.5 -34.5t46 -14 q30 0 48 28.5t21 57.5l3 29l123 -8q0 -5 -0.5 -14t-5 -34t-11.5 -48t-21.5 -51.5t-34 -48.5t-51 -34t-69.5 -14t-70.5 14.5t-54.5 35t-41 40.5t-41.5 34.5t-46.5 14.5q-30 0 -47.5 -28.5t-19.5 -56.5l-2 -29zM311 397q0 -108 57.5 -169.5t153.5 -61.5q95 0 152 61.5 t57 169.5v256q0 106 -57.5 169t-151.5 63q-96 0 -153.5 -62.5t-57.5 -169.5v-256z" />
<glyph unicode="&#xf6;" d="M102 391v262q0 191 117.5 304.5t304.5 113.5q189 0 303.5 -110.5t114.5 -301.5v-262q0 -192 -117.5 -304.5t-306.5 -112.5q-188 0 -302 109.5t-114 301.5zM225 1339q0 51 34 85t85 34t85 -34t34 -85t-34 -84.5t-85 -33.5q-53 0 -86 33t-33 85zM311 397 q0 -108 57.5 -169.5t153.5 -61.5q95 0 152 61.5t57 169.5v256q0 106 -57.5 169t-151.5 63q-96 0 -153.5 -62.5t-57.5 -169.5v-256zM602 1339q0 51 34 85t85 34t85 -34t34 -85t-34 -84.5t-85 -33.5q-53 0 -86 33t-33 85z" />
<glyph unicode="&#xf7;" d="M82 639v178h881v-178h-881zM395 319q0 53 37.5 90t89.5 37t89.5 -37t37.5 -90q0 -52 -37 -89t-90 -37t-90 37t-37 89zM395 1137q0 53 37.5 90t89.5 37t89.5 -37t37.5 -90t-37.5 -90t-89.5 -37t-89.5 37t-37.5 90z" />
<glyph unicode="&#xf8;" d="M68 -61l120 182q-86 109 -86 270v262q0 192 117.5 305t306.5 113q143 0 246 -65l70 106h135l-121 -182q86 -114 86 -271v-262q0 -191 -117.5 -304t-304.5 -113q-145 0 -248 65l-69 -106h-135zM303 397q0 -55 10 -86l355 537q-56 47 -146 47q-102 0 -160.5 -63.5 t-58.5 -178.5v-256zM377 203q56 -47 145 -47q102 0 161.5 63.5t59.5 177.5v256q0 47 -12 88z" />
<glyph unicode="&#xf9;" horiz-adv-x="1054" d="M113 371v680h211v-633q0 -252 192 -252q93 0 148.5 61t58.5 183v641h209v-1051h-184l-9 135q-45 -76 -121 -115.5t-172 -39.5q-154 0 -243.5 101.5t-89.5 289.5zM281 1516h217l127 -338h-160z" />
<glyph unicode="&#xfa;" horiz-adv-x="1054" d="M113 371v680h211v-633q0 -252 192 -252q93 0 148.5 61t58.5 183v641h209v-1051h-184l-9 135q-45 -76 -121 -115.5t-172 -39.5q-154 0 -243.5 101.5t-89.5 289.5zM459 1178l127 338h217l-185 -338h-159z" />
<glyph unicode="&#xfb;" horiz-adv-x="1054" d="M113 371v680h211v-633q0 -252 192 -252q93 0 148.5 61t58.5 183v641h209v-1051h-184l-9 135q-45 -76 -121 -115.5t-172 -39.5q-154 0 -243.5 101.5t-89.5 289.5zM199 1178l245 338h174l246 -338h-174l-164 198l-161 -198h-166z" />
<glyph unicode="&#xfc;" horiz-adv-x="1054" d="M113 371v680h211v-633q0 -252 192 -252q93 0 148.5 61t58.5 183v641h209v-1051h-184l-9 135q-45 -76 -121 -115.5t-172 -39.5q-154 0 -243.5 101.5t-89.5 289.5zM225 1339q0 51 34 85t85 34t85 -34t34 -85t-34 -84.5t-85 -33.5q-53 0 -86 33t-33 85zM602 1339q0 51 34 85 t85 34t85 -34t34 -85t-34 -84.5t-85 -33.5q-53 0 -86 33t-33 85z" />
<glyph unicode="&#xfd;" horiz-adv-x="921" d="M10 1051h226l231 -781l231 781h213l-366 -1088q-55 -167 -139 -239t-207 -72q-46 0 -88 9t-61 17l-19 9l41 166q41 -21 104 -21q70 0 114 40.5t72 127.5zM387 1178l127 338h217l-184 -338h-160z" />
<glyph unicode="&#xfe;" horiz-adv-x="1064" d="M123 -328v1762h211v-488q89 125 266 125q170 0 266.5 -101t96.5 -284v-313q0 -184 -99.5 -288.5t-269.5 -104.5q-174 0 -260 118v-426h-211zM334 397q0 -106 57 -168.5t152 -62.5q96 0 153.5 62t57.5 169v256q0 108 -57.5 170t-153.5 62q-95 0 -152 -62t-57 -170v-256z " />
<glyph unicode="&#xff;" horiz-adv-x="921" d="M10 1051h226l231 -781l231 781h213l-366 -1088q-55 -167 -139 -239t-207 -72q-46 0 -88 9t-61 17l-19 9l41 166q41 -21 104 -21q70 0 114 40.5t72 127.5zM160 1339q0 51 34 85t85 34t84.5 -34t33.5 -85t-33.5 -84.5t-84.5 -33.5q-53 0 -86 33t-33 85zM537 1339 q0 51 33.5 85t84.5 34t85 -34t34 -85t-34 -84.5t-85 -33.5q-53 0 -85.5 32.5t-32.5 85.5z" />
<glyph unicode="&#x152;" horiz-adv-x="1601" d="M123 487v451q0 235 127.5 365.5t351.5 130.5h928v-195h-526v-405h444v-183h-444v-456h536v-195h-944q-224 0 -348.5 127t-124.5 360zM342 492q0 -143 67.5 -220t194.5 -77h178v1044h-178q-127 0 -194.5 -77t-67.5 -220v-450z" />
<glyph unicode="&#x153;" horiz-adv-x="1665" d="M102 391v262q0 191 117.5 304.5t304.5 113.5q207 0 314 -135q110 135 315 135q185 0 297.5 -110.5t112.5 -301.5v-151h-623v-111q0 -108 57.5 -169.5t153.5 -61.5q55 0 97 21.5t62 52t32.5 60.5t15.5 52l2 21l199 -41q-1 -7 -2.5 -20t-12 -49.5t-26 -69.5t-47.5 -74 t-73.5 -70t-106.5 -49t-144 -20q-209 0 -313 135q-110 -135 -316 -135q-188 0 -302 109.5t-114 301.5zM311 397q0 -108 57.5 -169.5t153.5 -61.5q95 0 152 61.5t57 169.5v256q0 106 -57.5 169t-151.5 63q-96 0 -153.5 -62.5t-57.5 -169.5v-256zM940 647h420v27 q0 106 -57 168.5t-152 62.5q-96 0 -153.5 -62t-57.5 -169v-27z" />
<glyph unicode="&#x178;" horiz-adv-x="1075" d="M0 1434h248l295 -660l297 660h235l-428 -881v-553h-219v553zM250 1708q0 51 34 85t85 34t84.5 -34t33.5 -85t-33.5 -85t-84.5 -34q-53 0 -86 33.5t-33 85.5zM627 1708q0 51 33.5 85t84.5 34t85 -34t34 -85t-34 -85t-85 -34q-52 0 -85 33t-33 86z" />
<glyph unicode="&#x2c6;" horiz-adv-x="1085" d="M209 1178l246 338h174l245 -338h-174l-163 198l-162 -198h-166z" />
<glyph unicode="&#x2dc;" horiz-adv-x="956" d="M158 1233q0 10 1.5 26t12 58t28 74t56.5 58t92 26q39 0 71.5 -14t54 -34.5t41 -41t41.5 -34.5t46 -14q30 0 48 28.5t21 57.5l3 29l123 -8q0 -5 -0.5 -14t-5 -34t-11.5 -48t-21.5 -51.5t-34 -48.5t-51 -34t-69.5 -14t-70.5 14.5t-54.5 35t-41 40.5t-41.5 34.5t-46.5 14.5 q-30 0 -47.5 -28.5t-19.5 -56.5l-2 -29z" />
<glyph unicode="&#x2000;" horiz-adv-x="960" />
<glyph unicode="&#x2001;" horiz-adv-x="1921" />
<glyph unicode="&#x2002;" horiz-adv-x="960" />
<glyph unicode="&#x2003;" horiz-adv-x="1921" />
<glyph unicode="&#x2004;" horiz-adv-x="640" />
<glyph unicode="&#x2005;" horiz-adv-x="480" />
<glyph unicode="&#x2006;" horiz-adv-x="320" />
<glyph unicode="&#x2007;" horiz-adv-x="320" />
<glyph unicode="&#x2008;" horiz-adv-x="240" />
<glyph unicode="&#x2009;" horiz-adv-x="384" />
<glyph unicode="&#x200a;" horiz-adv-x="106" />
<glyph unicode="&#x2010;" horiz-adv-x="737" d="M82 629v194h573v-194h-573z" />
<glyph unicode="&#x2011;" horiz-adv-x="737" d="M82 629v194h573v-194h-573z" />
<glyph unicode="&#x2012;" horiz-adv-x="737" d="M82 629v194h573v-194h-573z" />
<glyph unicode="&#x2013;" d="M82 635v188h881v-188h-881z" />
<glyph unicode="&#x2014;" horiz-adv-x="1454" d="M82 635v188h1290v-188h-1290z" />
<glyph unicode="&#x2018;" horiz-adv-x="430" d="M82 891l98 543h168l-35 -543h-231z" />
<glyph unicode="&#x2019;" horiz-adv-x="430" d="M82 891l35 543h231l-98 -543h-168z" />
<glyph unicode="&#x201a;" horiz-adv-x="430" d="M82 -266l35 542h231l-98 -542h-168z" />
<glyph unicode="&#x201c;" horiz-adv-x="788" d="M82 891l98 543h168l-35 -543h-231zM440 891l99 543h168l-35 -543h-232z" />
<glyph unicode="&#x201d;" horiz-adv-x="788" d="M82 891l35 543h231l-98 -543h-168zM440 891l35 543h232l-99 -543h-168z" />
<glyph unicode="&#x201e;" horiz-adv-x="788" d="M82 -266l35 542h231l-98 -542h-168zM440 -266l35 542h232l-99 -542h-168z" />
<glyph unicode="&#x2022;" horiz-adv-x="675" d="M92 715q0 104 71.5 176t174.5 72q104 0 175 -71t71 -175q0 -103 -72 -174.5t-176 -71.5t-174 70t-70 174z" />
<glyph unicode="&#x202f;" horiz-adv-x="384" />
<glyph unicode="&#x2039;" horiz-adv-x="782" d="M82 680v72l465 430l112 -113l-350 -350l350 -348l-112 -121z" />
<glyph unicode="&#x203a;" horiz-adv-x="782" d="M123 365l350 350l-350 348l113 121l464 -430v-72l-464 -430z" />
<glyph unicode="&#x205f;" horiz-adv-x="480" />
<glyph unicode="&#x20ac;" horiz-adv-x="1077" d="M31 520v117h164v160h-164v116h164v129q0 188 112 300t289 112q174 0 281.5 -107t107.5 -290v-33h-203v31q0 99 -50 156t-138 57t-139.5 -57.5t-51.5 -155.5v-142h467v-116h-467v-160h426v-117h-426v-141q0 -99 51.5 -156t139.5 -57t138 56.5t50 156.5v31h203v-29 q0 -183 -109.5 -292t-283.5 -109q-177 0 -287 109.5t-110 297.5v133h-164z" />
<glyph unicode="&#x2122;" horiz-adv-x="1306" d="M92 1313v121h449v-121h-156v-525h-135v525h-158zM647 788v646h135l150 -355l151 355h131v-646h-131v398l-125 -291h-55l-127 293v-400h-129z" />
<glyph unicode="&#x25fc;" horiz-adv-x="1054" d="M0 0v1055h1055v-1055h-1055z" />
<glyph unicode="&#xfb01;" horiz-adv-x="1208" d="M31 846v164h164v137q0 149 79.5 228t221.5 79q61 0 113.5 -8t74.5 -16l23 -9l-27 -161q-55 18 -123 18q-76 0 -115 -37t-39 -121v-110h283v-164h-283v-846h-208v846h-164zM799 1343q0 59 39.5 98.5t97.5 39.5q60 0 99.5 -39.5t39.5 -98.5t-39.5 -98t-99.5 -39 q-58 0 -97.5 39t-39.5 98zM829 0v1051h215v-1051h-215z" />
<glyph unicode="&#xfb02;" horiz-adv-x="1208" d="M31 846v164h164v137q0 149 79.5 228t221.5 79q61 0 113.5 -8t74.5 -16l23 -9l-27 -161q-55 18 -123 18q-76 0 -115 -37t-39 -121v-110h283v-164h-283v-846h-208v846h-164zM860 0v1434h215v-1434h-215z" />
</font>
</defs>
</svg>
